STARTFONT 2.1
COMMENT
COMMENT Converted from OpenType font "PoetsenOne-Regular.ttf" by "otf2bdf 3.0".
COMMENT
FONT -FreeType-PoetsenOne-Medium-R-Normal--89-640-100-100-P-450-ISO10646-1
SIZE 64 100 100
FONTBOUNDINGBOX 118 105 -15 -18
STARTPROPERTIES 19
FOUNDRY "FreeType"
FAMILY_NAME "PoetsenOne"
WEIGHT_NAME "Medium"
SLANT "R"
SETWIDTH_NAME "Normal"
ADD_STYLE_NAME ""
PIXEL_SIZE 89
POINT_SIZE 640
RESOLUTION_X 100
RESOLUTION_Y 100
SPACING "P"
AVERAGE_WIDTH 450
CHARSET_REGISTRY "ISO10646"
CHARSET_ENCODING "1"
FONT_ASCENT 89
FONT_DESCENT 17
COPYRIGHT "Copyright (c) 2012, Pablo Impallari (www.impallari.com|impallari@gmail.com) and Rodrigo Fuenzalida (www.rfuenzalida.com), with Reserved Font Name Poetsen."
_OTF_FONTFILE "PoetsenOne-Regular.ttf"
_OTF_PSNAME "PoetsenOne-Regular"
ENDPROPERTIES
CHARS 441
STARTCHAR 0020
ENCODING 32
SWIDTH 213 0
DWIDTH 19 0
BBX 0 0 0 0
BITMAP
ENDCHAR
STARTCHAR 0021
ENCODING 33
SWIDTH 292 0
DWIDTH 26 0
BBX 21 67 3 -1
BITMAP
03FF80
07FFE0
07FFF0
07FFF8
07FFF8
07FFF8
07FFF8
07FFF8
07FFF8
07FFF8
07FFF8
07FFF8
07FFF8
0FFFF8
0FFFF8
0FFFF0
0FFFF0
0FFFF0
0FFFF0
0FFFF0
0FFFF0
0FFFE0
0FFFE0
0FFFE0
0FFFE0
0FFFE0
1FFFE0
1FFFC0
1FFFC0
1FFFC0
1FFFC0
1FFFC0
1FFF80
1FFF80
1FFF80
1FFF80
1FFF80
1FFF00
1FFF00
1FFF00
0FFF00
0FFF00
07FE00
01FE00
000000
000000
000000
000000
000000
000000
07F000
1FF800
3FFC00
7FFE00
7FFE00
FFFE00
FFFE00
FFFE00
FFFE00
FFFE00
FFFE00
FFFE00
FFFC00
FFFC00
7FF800
3FF000
1FC000
ENDCHAR
STARTCHAR 0022
ENCODING 34
SWIDTH 416 0
DWIDTH 37 0
BBX 31 26 5 40
BITMAP
3FE01FF8
3FF81FFC
3FF81FFC
3FF81FFE
3FF81FFE
7FF81FFE
7FF81FFC
7FF81FFC
7FF81FFC
7FF81FFC
7FF83FFC
7FF03FFC
7FF03FFC
7FF03FF8
7FF03FF8
7FF03FF8
7FF03FF8
7FE03FF8
7FE03FF8
FFE03FF0
FFE03FF0
FFE03FF0
FFC03FF0
7FC03FF0
7FC03FE0
3FC01FE0
ENDCHAR
STARTCHAR 0023
ENCODING 35
SWIDTH 686 0
DWIDTH 61 0
BBX 58 64 2 0
BITMAP
0000400001000000
0000FE0003F80000
0001FF0007FE0000
0001FF8007FE0000
0001FFC007FF0000
0001FFC007FF0000
0001FFC007FF0000
0001FFC007FF0000
0001FFC007FF0000
0003FFC007FF0000
0003FFC007FF0000
0003FFC00FFF0000
0003FFC00FFF0000
0003FFC00FFF0000
0003FF800FFF0000
0003FF800FFF0000
0003FF800FFF0000
0007FF800FFE0000
01FFFFFFFFFFFFC0
07FFFFFFFFFFFFC0
0FFFFFFFFFFFFFC0
0FFFFFFFFFFFFFC0
1FFFFFFFFFFFFFC0
1FFFFFFFFFFFFF80
1FFFFFFFFFFFFF80
1FFFFFFFFFFFFF80
1FFFFFFFFFFFFF00
1FFFFFFFFFFFFC00
000FFF003FFC0000
000FFF003FFC0000
000FFF003FFC0000
000FFE003FFC0000
000FFE003FFC0000
001FFE003FF80000
001FFE003FF80000
001FFE007FF80000
001FFE007FF80000
001FFE007FF80000
0FFFFFFFFFFFFE00
3FFFFFFFFFFFFE00
3FFFFFFFFFFFFE00
7FFFFFFFFFFFFE00
7FFFFFFFFFFFFE00
FFFFFFFFFFFFFE00
FFFFFFFFFFFFFC00
FFFFFFFFFFFFFC00
FFFFFFFFFFFFF800
FFFFFFFFFFFFE000
003FF800FFF00000
007FF800FFE00000
007FF800FFE00000
007FF800FFE00000
007FF801FFE00000
007FF801FFE00000
007FF801FFE00000
007FF001FFE00000
007FF001FFE00000
007FF001FFC00000
007FF001FFC00000
007FF001FFC00000
003FF000FFC00000
003FF000FFC00000
001FE0007FC00000
0007E0000F800000
ENDCHAR
STARTCHAR 0024
ENCODING 36
SWIDTH 528 0
DWIDTH 47 0
BBX 43 82 2 -9
BITMAP
000003C00000
000007F00000
000007F80000
000007FC0000
000007FC0000
000007FC0000
000007FC0000
000007FC0000
00000FFC0000
00007FFFC000
0001FFFFF000
000FFFFFFC00
001FFFFFFE00
007FFFFFFF00
00FFFFFFFF80
01FFFFFFFF80
03FFFFFFFFC0
03FFFFFFFFC0
07FFFFFFFFE0
0FFFFFFFFFE0
0FFFFFFFFFE0
0FFFFFFFFFE0
1FFFF83FFFE0
1FFFE00FFFE0
1FFFC007FFE0
1FFF8007FFC0
3FFF8007FFC0
3FFF8007FF80
3FFF8003FF80
3FFF8003FF00
3FFF8003FC00
3FFFC003F000
3FFFE0000000
1FFFF0000000
1FFFFC000000
1FFFFF000000
1FFFFFC00000
0FFFFFF80000
0FFFFFFE0000
07FFFFFF8000
07FFFFFFC000
03FFFFFFF000
01FFFFFFF800
00FFFFFFFC00
003FFFFFFC00
001FFFFFFE00
0007FFFFFF00
0000FFFFFF00
00003FFFFF80
00000FFFFF80
000003FFFF80
000000FFFF80
0000007FFF80
3800007FFF80
7E00007FFFC0
7F00007FFFC0
7F80007FFF80
FFE0007FFF80
FFF800FFFF80
FFFF87FFFF80
FFFFFFFFFF80
FFFFFFFFFF80
FFFFFFFFFF00
FFFFFFFFFF00
FFFFFFFFFE00
7FFFFFFFFE00
7FFFFFFFFC00
3FFFFFFFF800
1FFFFFFFF000
07FFFFFFE000
01FFFFFFC000
007FFFFF0000
000FFFF80000
0001FF800000
0001FF800000
0001FF800000
0001FF800000
0000FF800000
0000FF800000
0000FF800000
00007F000000
00001F000000
ENDCHAR
STARTCHAR 0025
ENCODING 37
SWIDTH 787 0
DWIDTH 70 0
BBX 62 65 4 -1
BITMAP
003FE00000000000
00FFFC000003E000
03FFFE000007F000
07FFFF00000FF000
0FFFFF80001FF000
1FFFFF80001FF000
3FFFFFC0003FF000
3FFFFFC0007FE000
7FF0FFC0007FE000
7FE07FC000FFC000
7FC07FC001FFC000
FFC07FE001FF8000
FF807FE003FF8000
FF807FC007FF0000
FF807FC007FE0000
FF807FC00FFE0000
FF807FC00FFC0000
FF80FFC01FF80000
FF80FFC03FF80000
FFC1FF803FF00000
FFE3FF807FE00000
FFFFFF80FFE00000
7FFFFF00FFC00000
7FFFFE01FFC00000
3FFFFE01FF800000
3FFFFC03FF000000
1FFFF007FF000000
07FFE007FE000000
01FF000FFC000000
0000001FFC000000
0000001FF8000000
0000003FF8000000
0000003FF0000000
0000007FE0000000
000000FFE0000000
000000FFC003FE00
000001FF801FFF80
000003FF803FFFE0
000003FF00FFFFF0
000007FF01FFFFF0
000007FE01FFFFF8
00000FFC03FFFFF8
00001FFC07FFFFFC
00001FF807FF1FFC
00003FF007FE0FFC
00007FF00FFC07FC
00007FE00FF807FC
0000FFE00FF807FC
0000FFC00FF807FC
0001FF800FF807FC
0003FF800FF807FC
0003FF000FF807FC
0007FE000FF80FFC
000FFE000FF80FFC
000FFC000FF80FF8
001FF8000FFC1FF8
001FF8000FFE3FF8
003FF0000FFFFFF0
003FF00007FFFFF0
007FE00007FFFFE0
007FC00007FFFFC0
007FC00003FFFF80
007F800001FFFF00
007F0000007FFC00
003E0000001FF000
ENDCHAR
STARTCHAR 0026
ENCODING 38
SWIDTH 675 0
DWIDTH 60 0
BBX 58 65 2 -1
BITMAP
000000FFF0000000
00001FFFFE000000
00007FFFFFC00000
0001FFFFFFE00000
0007FFFFFFF00000
000FFFFFFFF80000
001FFFFFFFFC0000
003FFFFFFFFC0000
007FFFFFFFFC0000
00FFFFFFFFFE0000
00FFFFFFFFFE0000
01FFFFFFFFFE0000
01FFFFFFFFFE0000
03FFFF83FFFE0000
03FFFE00FFFE0000
03FFFC007FFC0000
03FFFC007FFC0000
03FFF8007FF80000
03FFF8003FF00000
03FFF0003FC00000
03FFF0003C000000
03FFF00000000000
03FFF80000000000
01FFF80000000000
01FFF80000000000
00FFFC0000000000
00FFFF0000000000
007FFFFFFFFFFFC0
003FFFFFFFFFFFC0
001FFFFFFFFFFFC0
003FFFFFFFFFFFC0
00FFFFFFFFFFFFC0
01FFFFFFFFFFFFC0
03FFFFFFFFFFFFC0
07FFFFFFFFFFFF80
0FFFFFFFFFFFFF80
1FFFFFFFFFFFFE00
3FFFF8000FFFC000
3FFFE0001FFFC000
7FFFC0001FFFC000
7FFFC0001FFFC000
7FFF80001FFFC000
7FFF80001FFF8000
FFFF80003FFF8000
FFFF80003FFF8000
FFFF80003FFF8000
FFFF80007FFF0000
FFFF8000FFFF0000
FFFFC000FFFF0000
FFFFE001FFFE0000
FFFFF003FFFE0000
7FFFFC0FFFFC0000
7FFFFFFFFFFC0000
7FFFFFFFFFF80000
3FFFFFFFFFF80000
3FFFFFFFFFF00000
3FFFFFFFFFE00000
1FFFFFFFFFC00000
0FFFFFFFFF800000
07FFFFFFFF000000
03FFFFFFFE000000
01FFFFFFF8000000
007FFFFFE0000000
001FFFFF00000000
0001FFF000000000
ENDCHAR
STARTCHAR 0027
ENCODING 39
SWIDTH 225 0
DWIDTH 20 0
BBX 13 26 5 40
BITMAP
3FE0
3FF8
3FF8
3FF8
3FF8
7FF8
7FF8
7FF8
7FF8
7FF8
7FF8
7FF0
7FF0
7FF0
7FF0
7FF0
7FF0
7FE0
7FE0
FFE0
FFE0
FFE0
FFC0
7FC0
7FC0
3FC0
ENDCHAR
STARTCHAR 0028
ENCODING 40
SWIDTH 405 0
DWIDTH 36 0
BBX 35 83 3 -17
BITMAP
000003FF00
00001FFFC0
00007FFFC0
0001FFFFE0
0003FFFFE0
0007FFFFE0
000FFFFFE0
001FFFFFE0
003FFFFFE0
007FFFFFC0
007FFFFFC0
00FFFFFFC0
01FFFFFF80
01FFFFFF80
03FFFF0780
03FFFC0000
07FFF80000
07FFF00000
07FFF00000
0FFFE00000
0FFFE00000
1FFFC00000
1FFFC00000
1FFFC00000
1FFF800000
3FFF800000
3FFF800000
3FFF800000
3FFF000000
7FFF000000
7FFF000000
7FFF000000
7FFF000000
7FFF000000
7FFE000000
FFFE000000
FFFE000000
FFFE000000
FFFE000000
FFFE000000
FFFE000000
FFFE000000
FFFE000000
FFFE000000
FFFE000000
FFFE000000
FFFE000000
FFFE000000
FFFE000000
FFFE000000
FFFE000000
FFFE000000
FFFE000000
FFFE000000
FFFE000000
FFFE000000
FFFE000000
FFFE000000
FFFE000000
FFFE000000
FFFE000000
FFFE000000
FFFE000000
7FFF000000
7FFF000000
7FFF000000
7FFF800000
7FFF800000
3FFFC1C000
3FFFFFC000
3FFFFFC000
1FFFFFC000
1FFFFFC000
1FFFFFC000
0FFFFFC000
0FFFFFC000
07FFFFC000
03FFFFC000
01FFFF8000
00FFFF8000
007FFF0000
003FFE0000
0007F80000
ENDCHAR
STARTCHAR 0029
ENCODING 41
SWIDTH 416 0
DWIDTH 37 0
BBX 36 83 -2 -17
BITMAP
0003FC0000
000FFF8000
001FFFC000
003FFFF000
003FFFF800
007FFFF800
007FFFFC00
007FFFFE00
007FFFFE00
007FFFFF00
00FFFFFF00
00FFFFFF80
007FFFFF80
007FFFFFC0
00707FFFC0
00003FFFC0
00003FFFC0
00001FFFE0
00001FFFE0
00001FFFE0
00000FFFE0
00000FFFE0
00000FFFF0
00000FFFF0
00000FFFF0
00000FFFF0
00000FFFF0
00000FFFF0
00000FFFF0
00000FFFF0
00000FFFF0
00000FFFF0
00000FFFF0
00000FFFF0
00000FFFF0
00000FFFF0
00000FFFF0
00000FFFF0
00000FFFF0
00000FFFF0
00000FFFF0
00000FFFF0
00000FFFF0
00000FFFF0
00000FFFF0
00000FFFF0
00000FFFE0
00000FFFE0
00000FFFE0
00001FFFE0
00001FFFE0
00001FFFE0
00001FFFE0
00001FFFC0
00001FFFC0
00003FFFC0
00003FFFC0
00003FFF80
00003FFF80
00007FFF80
00007FFF00
00007FFF00
0000FFFF00
0000FFFE00
0001FFFE00
0001FFFE00
0003FFFC00
0007FFFC00
3C1FFFF800
3FFFFFF800
3FFFFFF000
7FFFFFE000
7FFFFFE000
7FFFFFC000
FFFFFF8000
FFFFFF0000
FFFFFE0000
FFFFFC0000
FFFFF80000
FFFFF00000
7FFFC00000
7FFF000000
1FF8000000
ENDCHAR
STARTCHAR 002A
ENCODING 42
SWIDTH 461 0
DWIDTH 41 0
BBX 35 36 5 31
BITMAP
00003F8000
0000FFC000
0001FFE000
0001FFE000
0003FFE000
0F03FFC000
1F83FFC000
3FC3FF8000
3FE3FF0000
7FF3FF0000
7FFBFE0E00
7FFBFC3F80
7FFDFCFFC0
7FFFFBFFC0
7FFFFFFFE0
3FFFFFFFE0
1FFFFFFFE0
01FFFFFFE0
001FFFFFE0
007FFFFFE0
03FFF9FFC0
0FFFFC1F80
3FFFFE0000
7FFFFF0000
FFFDFF8000
FFFDFFC000
FFF9FFC000
FFF9FFE000
7FF1FFE000
3FE1FFE000
1FC1FFE000
0781FFC000
0000FF8000
0000FF0000
0000FE0000
0000780000
ENDCHAR
STARTCHAR 002B
ENCODING 43
SWIDTH 483 0
DWIDTH 43 0
BBX 39 42 2 9
BITMAP
0001F80000
0001FE0000
0001FF8000
0001FF8000
0001FFC000
0001FFC000
0001FFC000
0001FFC000
0001FFC000
0003FFC000
0003FFC000
0003FFC000
0003FFC000
0003FFC000
0003FFC000
0003FFC000
0FFFFFFFFC
3FFFFFFFFE
7FFFFFFFFE
7FFFFFFFFE
7FFFFFFFFE
7FFFFFFFFC
FFFFFFFFFC
FFFFFFFFFC
FFFFFFFFFC
FFFFFFFFF8
FFFFFFFFE0
0007FF8000
0007FF8000
0007FF8000
0007FF0000
0007FF0000
0007FF0000
0007FF0000
0007FF0000
0007FF0000
0007FF0000
0007FF0000
0003FF0000
0003FF0000
0001FF0000
00003E0000
ENDCHAR
STARTCHAR 002C
ENCODING 44
SWIDTH 258 0
DWIDTH 23 0
BBX 16 33 2 -17
BITMAP
03F0
0FFC
3FFC
3FFE
7FFE
7FFF
FFFF
FFFF
FFFF
FFFF
FFFF
FFFF
FFFF
FFFF
7FFF
3FFF
1FFE
03FE
03FE
03FE
07FC
07FC
0FFC
1FF8
3FF8
7FF0
FFF0
FFE0
FFE0
FFC0
FF80
7E00
1000
ENDCHAR
STARTCHAR 002D
ENCODING 45
SWIDTH 461 0
DWIDTH 41 0
BBX 33 12 4 19
BITMAP
0FFFFFFF00
3FFFFFFF80
7FFFFFFF80
7FFFFFFF00
7FFFFFFF00
7FFFFFFF00
7FFFFFFF00
FFFFFFFF00
FFFFFFFF00
FFFFFFFE00
FFFFFFFE00
FFFFFFF800
ENDCHAR
STARTCHAR 002E
ENCODING 46
SWIDTH 247 0
DWIDTH 22 0
BBX 16 17 2 -1
BITMAP
07F0
1FFC
3FFC
7FFE
7FFE
7FFF
FFFF
FFFF
FFFF
FFFE
FFFE
FFFE
FFFC
7FFC
7FF8
3FF0
0FC0
ENDCHAR
STARTCHAR 002F
ENCODING 47
SWIDTH 326 0
DWIDTH 29 0
BBX 27 65 1 -1
BITMAP
00000800
00003FC0
00007FE0
00007FE0
00007FE0
0000FFE0
0000FFE0
0000FFE0
0001FFE0
0001FFE0
0001FFE0
0003FFC0
0003FFC0
0003FFC0
0003FF80
0007FF80
0007FF80
0007FF80
000FFF00
000FFF00
000FFF00
001FFE00
001FFE00
001FFE00
003FFE00
003FFC00
003FFC00
007FFC00
007FF800
007FF800
00FFF800
00FFF000
00FFF000
00FFF000
01FFE000
01FFE000
01FFE000
03FFC000
03FFC000
03FFC000
07FFC000
07FF8000
07FF8000
0FFF8000
0FFF0000
0FFF0000
0FFF0000
1FFE0000
1FFE0000
1FFE0000
3FFC0000
3FFC0000
3FFC0000
3FF80000
7FF80000
7FF80000
7FF80000
7FF00000
7FF00000
FFF00000
FFE00000
FFE00000
7FE00000
7FC00000
1F800000
ENDCHAR
STARTCHAR 0030
ENCODING 48
SWIDTH 663 0
DWIDTH 59 0
BBX 51 65 4 -1
BITMAP
000001FFE00000
00001FFFFE0000
00007FFFFF8000
0001FFFFFFE000
0007FFFFFFF000
000FFFFFFFF800
001FFFFFFFFC00
003FFFFFFFFE00
007FFFFFFFFE00
00FFFFFFFFFF00
01FFFFFFFFFF00
03FFFFFFFFFF80
03FFFFFFFFFF80
07FFFFFFFFFF80
0FFFFF83FFFFC0
0FFFFE00FFFFC0
1FFFFC00FFFFC0
1FFFF8007FFFC0
1FFFF0007FFFE0
3FFFE0003FFFE0
3FFFE0003FFFE0
3FFFE0003FFFE0
7FFFC0003FFFE0
7FFFC0003FFFE0
7FFFC0001FFFE0
7FFF80001FFFE0
7FFF80001FFFE0
FFFF80001FFFE0
FFFF80001FFFE0
FFFF80001FFFE0
FFFF80001FFFE0
FFFF80001FFFE0
FFFF00003FFFE0
FFFF00003FFFE0
FFFF00003FFFE0
FFFF00003FFFE0
FFFF00003FFFE0
FFFF00003FFFC0
FFFF00003FFFC0
FFFF80007FFFC0
FFFF80007FFFC0
FFFF80007FFFC0
FFFF80007FFF80
FFFF8000FFFF80
FFFF8000FFFF80
FFFFC001FFFF80
7FFFC001FFFF00
7FFFC003FFFF00
7FFFE007FFFE00
7FFFF00FFFFE00
3FFFFC1FFFFC00
3FFFFFFFFFFC00
3FFFFFFFFFF800
1FFFFFFFFFF800
1FFFFFFFFFF000
0FFFFFFFFFE000
0FFFFFFFFFE000
07FFFFFFFFC000
03FFFFFFFF8000
01FFFFFFFE0000
00FFFFFFFC0000
007FFFFFF00000
001FFFFFE00000
0007FFFF000000
00007FF8000000
ENDCHAR
STARTCHAR 0031
ENCODING 49
SWIDTH 382 0
DWIDTH 34 0
BBX 28 63 2 0
BITMAP
000FFE00
001FFF80
007FFFC0
00FFFFE0
03FFFFE0
0FFFFFF0
1FFFFFF0
7FFFFFF0
FFFFFFF0
FFFFFFF0
FFFFFFF0
7FFFFFF0
7FFFFFF0
7FFFFFF0
3FFFFFF0
1FFFFFF0
0FFFFFE0
011FFFE0
001FFFE0
001FFFE0
001FFFE0
001FFFE0
001FFFE0
001FFFE0
001FFFE0
001FFFE0
001FFFE0
001FFFE0
003FFFE0
003FFFE0
003FFFE0
003FFFC0
003FFFC0
003FFFC0
003FFFC0
003FFFC0
003FFFC0
003FFFC0
003FFFC0
003FFFC0
007FFFC0
007FFFC0
007FFFC0
007FFFC0
007FFFC0
007FFFC0
007FFF80
007FFF80
007FFF80
007FFF80
007FFF80
007FFF80
007FFF80
007FFF80
007FFF80
007FFF80
007FFF80
007FFF80
007FFF80
003FFF00
003FFF00
001FFF00
0003FF00
ENDCHAR
STARTCHAR 0032
ENCODING 50
SWIDTH 585 0
DWIDTH 52 0
BBX 47 64 2 0
BITMAP
00000FFF8000
0000FFFFF000
0003FFFFFC00
000FFFFFFF00
003FFFFFFF80
007FFFFFFFE0
00FFFFFFFFE0
01FFFFFFFFF0
03FFFFFFFFF8
07FFFFFFFFF8
07FFFFFFFFFC
0FFFFFFFFFFC
0FFFFFFFFFFC
0FFFF81FFFFC
0FFFF007FFFE
0FFFE003FFFE
0FFFE003FFFE
0FFFC003FFFE
0FFFC003FFFE
0FFF8003FFFE
0FFF8003FFFC
0FFF8003FFFC
07FF8007FFFC
07FF0007FFFC
03FF000FFFF8
00FF001FFFF8
000C001FFFF8
0000003FFFF0
0000007FFFF0
000000FFFFE0
000001FFFFC0
000003FFFFC0
000007FFFF80
00000FFFFF80
00001FFFFF00
00007FFFFE00
0000FFFFFC00
0001FFFFF800
0003FFFFF000
0007FFFFF000
001FFFFFE000
003FFFFFC000
007FFFFF8000
00FFFFFE0000
03FFFFFC0000
07FFFFF80000
0FFFFFF00000
1FFFFFE00000
3FFFFF800000
7FFFFF000000
7FFFFE000000
FFFFF8000000
FFFFFFFFFFF0
FFFFFFFFFFF8
FFFFFFFFFFF8
FFFFFFFFFFF8
FFFFFFFFFFF8
FFFFFFFFFFF0
FFFFFFFFFFF0
FFFFFFFFFFF0
7FFFFFFFFFF0
7FFFFFFFFFE0
3FFFFFFFFFE0
0FFFFFFFFF80
ENDCHAR
STARTCHAR 0033
ENCODING 51
SWIDTH 562 0
DWIDTH 50 0
BBX 45 65 1 -1
BITMAP
00000FFF0000
0000FFFFF000
0007FFFFFC00
001FFFFFFF00
003FFFFFFF80
007FFFFFFFC0
00FFFFFFFFE0
01FFFFFFFFF0
03FFFFFFFFF0
03FFFFFFFFF0
03FFFFFFFFF8
03FFFFFFFFF8
03FFFFFFFFF8
03FFFC1FFFF8
01FFE007FFF8
01FFC003FFF8
007FC003FFF8
001F8003FFF8
00000003FFF8
00000003FFF8
00000003FFF8
00000003FFF0
00000003FFF0
00000007FFF0
0000000FFFE0
0000001FFFC0
000FFFFFFF80
001FFFFFFF00
003FFFFFFE00
003FFFFFF800
007FFFFFFE00
007FFFFFFF00
007FFFFFFFC0
007FFFFFFFE0
007FFFFFFFE0
007FFFFFFFF0
0000007FFFF0
0000001FFFF8
0000000FFFF8
0000000FFFF8
00000007FFF8
00000007FFF8
00000007FFF8
00000007FFF8
0000000FFFF8
0000000FFFF8
07F0000FFFF8
1FF8001FFFF0
3FF8003FFFF0
7FFC007FFFF0
7FFF01FFFFE0
FFFFFFFFFFE0
FFFFFFFFFFC0
FFFFFFFFFFC0
FFFFFFFFFF80
FFFFFFFFFF00
FFFFFFFFFE00
FFFFFFFFFC00
7FFFFFFFF800
7FFFFFFFF000
3FFFFFFFC000
1FFFFFFF8000
07FFFFFC0000
01FFFFF00000
003FFE000000
ENDCHAR
STARTCHAR 0034
ENCODING 52
SWIDTH 596 0
DWIDTH 53 0
BBX 47 63 2 0
BITMAP
007FC000FFC0
00FFF001FFF0
00FFF801FFF8
00FFFC01FFFC
00FFFC01FFFC
00FFFC01FFFE
00FFFE01FFFE
00FFFE01FFFE
00FFFE01FFFE
00FFFE01FFFE
00FFFE01FFFE
01FFFC01FFFE
01FFFC01FFFE
01FFFC01FFFE
01FFFC01FFFE
03FFFC01FFFE
03FFF801FFFC
03FFF803FFFC
03FFF803FFFC
07FFF803FFFC
07FFF803FFFC
07FFF003FFFC
0FFFF003FFFC
0FFFF003FFFC
0FFFF003FFFC
0FFFE003FFFC
1FFFE003FFFC
1FFFE003FFFC
1FFFE003FFFC
3FFFC003FFFC
3FFFC007FFFC
3FFFC007FFFC
3FFFC007FFF8
7FFF8007FFF8
7FFFFFFFFFF8
7FFFFFFFFFF8
FFFFFFFFFFF8
FFFFFFFFFFF8
FFFFFFFFFFF8
FFFFFFFFFFF8
FFFFFFFFFFF8
FFFFFFFFFFF8
FFFFFFFFFFF8
7FFFFFFFFFF8
3FFFFFFFFFF8
0FFFFFFFFFF8
0000000FFFF0
0000000FFFF0
0000000FFFF0
0000000FFFF0
0000000FFFF0
0000000FFFF0
0000000FFFF0
0000000FFFF0
0000000FFFF0
0000000FFFF0
0000000FFFF0
0000000FFFF0
0000000FFFF0
00000007FFE0
00000007FFE0
00000003FFE0
000000007FE0
ENDCHAR
STARTCHAR 0035
ENCODING 53
SWIDTH 562 0
DWIDTH 50 0
BBX 45 64 2 -1
BITMAP
00FFFFFFFFF0
01FFFFFFFFF0
01FFFFFFFFF0
01FFFFFFFFF0
01FFFFFFFFF0
01FFFFFFFFF0
01FFFFFFFFF0
03FFFFFFFFF0
03FFFFFFFFF0
03FFFFFFFFE0
03FFFFFFFFC0
03FFFFFFFF80
03FFF8000000
03FFF8000000
03FFF8000000
07FFF8000000
07FFF0000000
07FFF0000000
07FFF0000000
07FFF0000000
07FFF0000000
07FFF0000000
07FFF0000000
07FFF0FF0000
0FFFE7FFE000
0FFFFFFFF800
0FFFFFFFFE00
0FFFFFFFFF00
0FFFFFFFFF80
0FFFFFFFFF80
0FFFFFFFFFC0
0FFFFFFFFFE0
0FFFFFFFFFE0
0FFFF01FFFE0
07FFE00FFFF0
03FFE00FFFF0
01FFE007FFF0
00000007FFF0
00000007FFF8
00000007FFF8
00000007FFF8
00000007FFF8
00000007FFF8
00000007FFF0
00000007FFF0
07F0000FFFF0
1FF0001FFFF0
3FF8001FFFF0
7FFC007FFFE0
FFFF01FFFFE0
FFFFFFFFFFE0
FFFFFFFFFFC0
FFFFFFFFFFC0
FFFFFFFFFF80
FFFFFFFFFF00
FFFFFFFFFF00
7FFFFFFFFE00
7FFFFFFFFC00
3FFFFFFFF800
1FFFFFFFE000
07FFFFFFC000
03FFFFFF0000
007FFFF80000
0007FF800000
ENDCHAR
STARTCHAR 0036
ENCODING 54
SWIDTH 618 0
DWIDTH 55 0
BBX 47 65 4 -1
BITMAP
000001FFF000
00001FFFFF00
0000FFFFFFC0
0001FFFFFFE0
0007FFFFFFF8
000FFFFFFFF8
001FFFFFFFFC
007FFFFFFFFC
007FFFFFFFFE
00FFFFFFFFFE
01FFFFFFFFFE
03FFFFFFFFFE
03FFFFFFFFFE
07FFFFFFFFFE
07FFFF80FFFC
0FFFFE003FFC
0FFFFC003FF8
1FFFF8001FF0
1FFFF0001F80
3FFFE0000000
3FFFE0000000
3FFFC0000000
3FFFC0000000
7FFFC0000000
7FFF803FF800
7FFF81FFFF00
7FFF83FFFF80
7FFF8FFFFFC0
FFFF9FFFFFE0
FFFFBFFFFFF0
FFFFBFFFFFF8
FFFFFFFFFFF8
FFFFFFFFFFFC
FFFFFFFFFFFC
FFFFFE1FFFFE
FFFFF807FFFE
FFFFF003FFFE
FFFFE003FFFE
FFFFC001FFFE
FFFFC001FFFE
FFFF8001FFFE
FFFF8001FFFE
FFFF8001FFFE
FFFF8003FFFE
FFFF8003FFFE
FFFF8003FFFE
FFFF8007FFFE
FFFF8007FFFE
7FFFC00FFFFC
7FFFC01FFFFC
7FFFF07FFFFC
7FFFFFFFFFF8
3FFFFFFFFFF8
3FFFFFFFFFF0
3FFFFFFFFFF0
1FFFFFFFFFE0
1FFFFFFFFFC0
0FFFFFFFFF80
07FFFFFFFF00
03FFFFFFFE00
01FFFFFFF800
00FFFFFFF000
003FFFFFC000
000FFFFE0000
0001FFE00000
ENDCHAR
STARTCHAR 0037
ENCODING 55
SWIDTH 495 0
DWIDTH 44 0
BBX 41 63 4 0
BITMAP
1FFFFFFFFF80
3FFFFFFFFF80
7FFFFFFFFF80
7FFFFFFFFF80
FFFFFFFFFF80
FFFFFFFFFF80
FFFFFFFFFF80
FFFFFFFFFF80
FFFFFFFFFF00
FFFFFFFFFF00
FFFFFFFFFF00
FFFFFFFFFE00
000003FFFC00
000007FFFC00
000007FFF800
000007FFF800
00000FFFF000
00000FFFF000
00001FFFF000
00001FFFE000
00003FFFE000
00007FFFC000
00007FFFC000
0000FFFF8000
0000FFFF8000
0001FFFF0000
0001FFFE0000
0003FFFE0000
0003FFFE0000
0007FFFC0000
0007FFFC0000
000FFFF80000
000FFFF80000
001FFFF00000
001FFFF00000
003FFFE00000
003FFFE00000
007FFFC00000
00FFFFC00000
00FFFF800000
01FFFF800000
01FFFF000000
03FFFF000000
03FFFE000000
07FFFE000000
07FFFC000000
0FFFFC000000
0FFFF8000000
1FFFF8000000
1FFFF0000000
3FFFF0000000
3FFFE0000000
7FFFE0000000
7FFFC0000000
FFFFC0000000
FFFFC0000000
FFFF80000000
FFFF80000000
FFFF00000000
FFFF00000000
7FFE00000000
3FFE00000000
07FC00000000
ENDCHAR
STARTCHAR 0038
ENCODING 56
SWIDTH 607 0
DWIDTH 54 0
BBX 47 65 3 -1
BITMAP
000007FF8000
00007FFFF000
0003FFFFFE00
0007FFFFFF00
001FFFFFFFC0
003FFFFFFFE0
007FFFFFFFE0
00FFFFFFFFF0
01FFFFFFFFF8
03FFFFFFFFF8
03FFFFFFFFF8
07FFFFFFFFFC
07FFFFFFFFFC
0FFFFF07FFFC
0FFFFC03FFFC
0FFFF801FFFC
0FFFF801FFFC
0FFFF001FFFC
1FFFF001FFFC
1FFFF001FFFC
1FFFF001FFFC
1FFFF001FFF8
0FFFF003FFF8
0FFFF003FFF0
0FFFF807FFF0
0FFFFC1FFFE0
07FFFFFFFFC0
07FFFFFFFF80
03FFFFFFFE00
01FFFFFFFF80
007FFFFFFFC0
00FFFFFFFFE0
01FFFFFFFFF0
03FFFFFFFFF8
07FFFC1FFFF8
0FFFF007FFFC
1FFFE007FFFC
1FFFC003FFFE
3FFFC003FFFE
7FFFC003FFFE
7FFF8003FFFE
7FFF8003FFFE
FFFF8003FFFE
FFFF8007FFFE
FFFF8007FFFE
FFFF8007FFFC
FFFF8007FFFC
FFFF800FFFFC
FFFFC01FFFFC
FFFFC03FFFF8
FFFFF07FFFF8
FFFFFFFFFFF0
7FFFFFFFFFF0
7FFFFFFFFFE0
7FFFFFFFFFE0
3FFFFFFFFFC0
3FFFFFFFFF80
1FFFFFFFFF00
0FFFFFFFFE00
07FFFFFFFC00
03FFFFFFF000
01FFFFFFE000
007FFFFF8000
001FFFFE0000
0001FFE00000
ENDCHAR
STARTCHAR 0039
ENCODING 57
SWIDTH 607 0
DWIDTH 54 0
BBX 47 65 4 -1
BITMAP
00001FFE0000
0001FFFFE000
0007FFFFF800
001FFFFFFC00
007FFFFFFF00
00FFFFFFFF80
01FFFFFFFFC0
03FFFFFFFFC0
07FFFFFFFFE0
0FFFFFFFFFF0
0FFFFFFFFFF0
1FFFFFFFFFF8
1FFFFFFFFFF8
3FFFFFFFFFF8
3FFFFC1FFFFC
7FFFF00FFFFC
7FFFE007FFFC
7FFFC007FFFC
7FFFC003FFFC
FFFFC003FFFC
FFFF8003FFFE
FFFF8003FFFE
FFFF8003FFFE
FFFF8003FFFE
FFFF8007FFFE
FFFF8007FFFE
FFFF800FFFFE
FFFFC00FFFFE
7FFFC01FFFFE
7FFFF07FFFFE
7FFFFFFFFFFE
3FFFFFFFFFFE
3FFFFFFFFFFE
1FFFFFFDFFFE
1FFFFFF9FFFC
0FFFFFF1FFFC
07FFFFE1FFFC
03FFFFC1FFFC
00FFFF83FFFC
003FFC03FFFC
00000003FFF8
00000003FFF8
00000007FFF8
00000007FFF8
0000000FFFF0
0000001FFFF0
03F0001FFFE0
1FF0003FFFE0
3FF000FFFFE0
7FF801FFFFC0
FFFC0FFFFFC0
FFFFFFFFFF80
FFFFFFFFFF00
FFFFFFFFFF00
FFFFFFFFFE00
FFFFFFFFFC00
FFFFFFFFF800
FFFFFFFFF000
FFFFFFFFE000
7FFFFFFFC000
3FFFFFFF8000
1FFFFFFE0000
0FFFFFF80000
03FFFFC00000
007FFC000000
ENDCHAR
STARTCHAR 003A
ENCODING 58
SWIDTH 281 0
DWIDTH 25 0
BBX 18 43 3 -1
BITMAP
01FC00
03FF00
0FFF80
0FFF80
1FFFC0
1FFFC0
3FFFC0
3FFFC0
3FFFC0
3FFFC0
3FFF80
3FFF80
3FFF80
1FFF00
1FFE00
0FFC00
03F000
000000
000000
000000
000000
000000
000000
000000
000000
000000
07F000
1FFC00
3FFC00
7FFE00
7FFE00
7FFE00
FFFF00
FFFF00
FFFF00
FFFE00
FFFE00
FFFE00
FFFC00
7FFC00
7FF800
3FF000
1FC000
ENDCHAR
STARTCHAR 003B
ENCODING 59
SWIDTH 281 0
DWIDTH 25 0
BBX 18 59 3 -17
BITMAP
01FC00
07FF00
0FFF80
0FFF80
1FFF80
1FFFC0
3FFFC0
3FFFC0
3FFFC0
3FFF80
3FFF80
3FFF80
3FFF80
1FFF00
1FFE00
0FFC00
03F000
000000
000000
000000
000000
000000
000000
000000
000000
000000
03F000
0FFC00
1FFE00
3FFE00
7FFF00
7FFF00
FFFF00
FFFF00
FFFF00
FFFF00
FFFF00
FFFF00
FFFF00
FFFF00
7FFF00
3FFF00
1FFF00
01FE00
03FE00
03FE00
03FE00
07FC00
0FFC00
1FF800
3FF800
7FF800
FFF000
FFE000
FFE000
FFC000
FF8000
7F0000
180000
ENDCHAR
STARTCHAR 003C
ENCODING 60
SWIDTH 427 0
DWIDTH 38 0
BBX 33 41 2 10
BITMAP
0000000380
0000001F80
0000007F80
000001FF80
000007FF80
00001FFF80
00007FFF80
0001FFFF80
0007FFFF80
000FFFFF00
003FFFFF00
00FFFFFE00
03FFFFFC00
07FFFFF000
1FFFFFE000
3FFFFF0000
7FFFFC0000
7FFFF00000
7FFF800000
7FFE000000
7FF0000000
7FFC000000
7FFF000000
FFFFC00000
7FFFF00000
7FFFFC0000
3FFFFF0000
1FFFFFC000
0FFFFFF000
03FFFFFC00
01FFFFFE00
00FFFFFE00
003FFFFE00
000FFFFE00
0007FFFE00
0001FFFC00
0000FFFC00
00003FFC00
00000FF800
000003F800
000000F000
ENDCHAR
STARTCHAR 003D
ENCODING 61
SWIDTH 540 0
DWIDTH 48 0
BBX 40 35 4 8
BITMAP
01FFFFFFFF
07FFFFFFFF
0FFFFFFFFF
0FFFFFFFFF
0FFFFFFFFF
0FFFFFFFFF
0FFFFFFFFF
1FFFFFFFFE
1FFFFFFFFE
1FFFFFFFFE
1FFFFFFFFC
1FFFFFFFF0
0000000000
0000000000
0000000000
0000000000
0000000000
0000000000
0000000000
0000000000
0000000000
0000000000
0000000000
0FFFFFFFF0
3FFFFFFFF8
7FFFFFFFF8
7FFFFFFFF8
7FFFFFFFF8
FFFFFFFFF8
FFFFFFFFF0
FFFFFFFFF0
FFFFFFFFF0
FFFFFFFFF0
FFFFFFFFE0
FFFFFFFF80
ENDCHAR
STARTCHAR 003E
ENCODING 62
SWIDTH 427 0
DWIDTH 38 0
BBX 33 41 3 10
BITMAP
0380000000
07F0000000
0FFC000000
0FFF000000
0FFF800000
1FFFE00000
1FFFF80000
1FFFFC0000
1FFFFF0000
1FFFFF8000
1FFFFFE000
0FFFFFF000
03FFFFF800
00FFFFFE00
003FFFFF00
000FFFFF80
0003FFFF80
0000FFFF80
00003FFF80
00000FFF80
000007FF80
00001FFF80
00007FFF80
0003FFFF80
000FFFFF80
007FFFFF00
01FFFFFE00
07FFFFF800
0FFFFFE000
1FFFFFC000
3FFFFF0000
7FFFFC0000
7FFFF00000
7FFFE00000
7FFF800000
7FFE000000
FFF8000000
FFE0000000
FF80000000
FC00000000
7000000000
ENDCHAR
STARTCHAR 003F
ENCODING 63
SWIDTH 528 0
DWIDTH 47 0
BBX 42 68 4 -1
BITMAP
00007FF80000
000FFFFF0000
003FFFFFC000
00FFFFFFF000
03FFFFFFF800
07FFFFFFFC00
0FFFFFFFFE00
1FFFFFFFFF00
3FFFFFFFFF00
7FFFFFFFFF80
7FFFFFFFFF80
7FFFFFFFFFC0
FFFFC0FFFFC0
FFFF007FFFC0
FFFE003FFFC0
FFFE003FFFC0
FFFC001FFFC0
FFFC001FFFC0
FFF8001FFFC0
FFF8003FFFC0
7FF8003FFF80
3FF8003FFF80
1FF0007FFF80
03F000FFFF00
000001FFFF00
000003FFFE00
000007FFFC00
00000FFFF800
00001FFFF800
00003FFFF000
00007FFFE000
0000FFFFC000
0001FFFF8000
0003FFFF0000
0003FFFE0000
0007FFFC0000
000FFFF80000
000FFFF00000
000FFFE00000
000FFFC00000
000FFF800000
000FFF000000
000FFF000000
0007FE000000
0001FE000000
000000000000
000000000000
000000000000
000000000000
000000000000
000000000000
0003F0000000
000FFC000000
003FFE000000
003FFE000000
007FFF000000
007FFF000000
007FFF000000
00FFFF000000
00FFFF000000
00FFFF000000
00FFFE000000
00FFFE000000
007FFE000000
007FFC000000
007FF8000000
003FF0000000
000FC0000000
ENDCHAR
STARTCHAR 0040
ENCODING 64
SWIDTH 798 0
DWIDTH 71 0
BBX 66 65 3 -10
BITMAP
00000007FFF0000000
000000FFFFFF800000
000007FFFFFFE00000
00003FFFFFFFF80000
0000FFFFFFFFFE0000
0003FFFFFFFFFF8000
0007FFFFFFFFFFC000
000FFFFFFFFFFFE000
003FFFFFFFFFFFF000
007FFFFC003FFFF800
00FFFFC00007FFF800
01FFFE000000FFFC00
01FFF80000007FFE00
03FFF00000003FFE00
07FFE00FF0001FFF00
07FFC07FF8FE0FFF00
0FFF81FFFCFF07FF00
1FFF03FFFFFF87FF80
1FFE07FFFFFF83FF80
1FFC0FFFFFFF83FF80
3FFC0FFFFFFF81FF80
3FF81FFFFFFF81FF80
7FF81FFF0FFF81FF80
7FF03FFC07FF01FFC0
7FF03FF803FF01FFC0
7FF07FF803FF01FFC0
FFE07FF003FF00FFC0
FFE07FF003FF00FFC0
FFE07FF003FF01FFC0
FFE07FE003FF01FFC0
FFE0FFE003FE01FF80
FFE0FFE003FE01FF80
FFC0FFE003FE01FF80
FFC0FFE003FE01FF80
FFC0FFE007FE01FF80
FFC0FFE007FE01FF80
FFC0FFE007FE03FF00
FFC0FFE00FFE03FF00
FFC07FE01FFE07FE00
FFE07FF03FFE07FE00
FFE07FF87FFF1FFC00
FFE07FFFFFFFFFFC00
FFE07FFFFFFFFFF800
FFE03FFFFFFFFFF000
FFF03FFFFFFFFFE000
7FF01FFFE7FFFFC000
7FF00FFFC3FFFF8000
7FF807FF01FFFE0000
3FF801FC003FF00000
3FFC00000000000000
3FFE00000000000000
1FFF00000000000000
1FFF80000000000000
0FFFE0000080000000
07FFF80007C0000000
07FFFF003FC0000000
03FFFFFFFFC0000000
01FFFFFFFFC0000000
00FFFFFFFFC0000000
007FFFFFFF80000000
001FFFFFFF80000000
000FFFFFFF00000000
0003FFFFFE00000000
00007FFFF800000000
000007FFC000000000
ENDCHAR
STARTCHAR 0041
ENCODING 65
SWIDTH 618 0
DWIDTH 55 0
BBX 52 64 1 0
BITMAP
000001FF000000
00000FFFE00000
00001FFFF80000
00001FFFFC0000
00003FFFFC0000
00003FFFFE0000
00003FFFFE0000
00007FFFFF0000
00007FFFFF0000
0000FFFFFF0000
0000FFFFFF0000
0001FFFFFF8000
0001FFFFFF8000
0001FFFFFF8000
0003FFEFFF8000
0003FFEFFFC000
0007FFEFFFC000
0007FFCFFFC000
0007FFCFFFC000
000FFFCFFFE000
000FFFCFFFE000
001FFF87FFE000
001FFF87FFE000
001FFF87FFF000
003FFF07FFF000
003FFF07FFF000
007FFF07FFF000
007FFF03FFF800
007FFE03FFF800
00FFFE03FFF800
00FFFE03FFF800
01FFFC03FFFC00
01FFFC03FFFC00
01FFFC01FFFC00
03FFFC01FFFC00
03FFF801FFFE00
03FFF801FFFE00
07FFFFFFFFFE00
07FFFFFFFFFE00
07FFFFFFFFFF00
0FFFFFFFFFFF00
0FFFFFFFFFFF00
0FFFFFFFFFFF00
1FFFFFFFFFFF00
1FFFFFFFFFFF80
1FFFFFFFFFFF80
3FFFFFFFFFFF80
3FFFFFFFFFFF80
3FFFFFFFFFFFC0
7FFFFFFFFFFFC0
7FFFC0007FFFC0
7FFF80007FFFC0
7FFF80007FFFE0
FFFF80003FFFE0
FFFF80003FFFE0
FFFF00003FFFE0
FFFF00003FFFE0
FFFF00003FFFF0
FFFF00001FFFF0
FFFE00001FFFF0
FFFE00000FFFF0
7FFE000007FFF0
3FFE000003FFF0
0FFC0000007FF0
ENDCHAR
STARTCHAR 0042
ENCODING 66
SWIDTH 607 0
DWIDTH 54 0
BBX 45 65 5 -1
BITMAP
1FFFFFF00000
1FFFFFFF8000
1FFFFFFFF000
1FFFFFFFFC00
1FFFFFFFFF00
1FFFFFFFFF80
1FFFFFFFFFC0
1FFFFFFFFFE0
1FFFFFFFFFE0
1FFFFFFFFFF0
1FFFFFFFFFF0
1FFFFFFFFFF8
1FFFC01FFFF8
3FFFC007FFF8
3FFFC003FFF8
3FFFC003FFF8
3FFFC001FFF8
3FFFC001FFF8
3FFFC001FFF8
3FFFC001FFF8
3FFFC001FFF8
3FFFC001FFF8
3FFFC003FFF8
3FFFC003FFF0
3FFFC007FFF0
3FFFE01FFFE0
7FFFFFFFFFE0
7FFFFFFFFFC0
7FFFFFFFFF80
7FFFFFFFFF00
7FFFFFFFFC00
7FFFFFFFF000
7FFFFFFFFE00
7FFFFFFFFF00
7FFFFFFFFFC0
7FFFFFFFFFC0
7FFFFFFFFFE0
7FFFFFFFFFF0
7FFF803FFFF0
FFFF800FFFF8
FFFF8007FFF8
FFFF8007FFF8
FFFF8003FFF8
FFFF0003FFF8
FFFF0003FFF8
FFFF0003FFF8
FFFF0003FFF8
FFFF0003FFF8
FFFF0003FFF8
FFFF0007FFF8
FFFF0007FFF8
FFFF000FFFF8
FFFF803FFFF0
FFFFFFFFFFF0
FFFFFFFFFFE0
FFFFFFFFFFE0
FFFFFFFFFFC0
FFFFFFFFFF80
FFFFFFFFFF00
FFFFFFFFFE00
7FFFFFFFF800
3FFFFFFFF000
1FFFFFFF8000
07FFFFFC0000
007FFFC00000
ENDCHAR
STARTCHAR 0043
ENCODING 67
SWIDTH 618 0
DWIDTH 55 0
BBX 51 65 3 -1
BITMAP
000000FFF00000
00000FFFFF0000
00003FFFFFE000
0000FFFFFFF000
0003FFFFFFFC00
0007FFFFFFFE00
000FFFFFFFFF00
003FFFFFFFFF00
003FFFFFFFFF80
007FFFFFFFFFC0
00FFFFFFFFFFC0
01FFFFFFFFFFC0
01FFFFFFFFFFE0
03FFFFFFFFFFE0
07FFFFC0FFFFE0
07FFFF003FFFE0
0FFFFE003FFFE0
0FFFFC001FFFE0
0FFFF8001FFFE0
1FFFF8001FFFE0
1FFFF0001FFFC0
1FFFF0001FFFC0
3FFFE0001FFF80
3FFFE0001FFF80
3FFFE0001FFF00
3FFFC0001FFC00
7FFFC0001FF000
7FFFC000000000
7FFFC000000000
7FFF8000000000
7FFF8000000000
7FFF8000000000
7FFF8000000000
7FFF8000000000
7FFF8000000000
FFFF8000000000
FFFF8000000000
FFFF8000000000
FFFF8000000000
7FFF8000000000
7FFF8000000000
7FFF8000000000
7FFFC000000000
7FFFC000000000
7FFFC000001C00
7FFFE000007C00
7FFFE00000FC00
3FFFF00001FC00
3FFFF80007FC00
3FFFFC001FFC00
1FFFFF007FFC00
1FFFFFFFFFFC00
0FFFFFFFFFFC00
0FFFFFFFFFF800
07FFFFFFFFF800
07FFFFFFFFF800
03FFFFFFFFF000
01FFFFFFFFF000
00FFFFFFFFE000
007FFFFFFFC000
003FFFFFFF8000
000FFFFFFE0000
0007FFFFFC0000
0000FFFFE00000
00000FFE000000
ENDCHAR
STARTCHAR 0044
ENCODING 68
SWIDTH 663 0
DWIDTH 59 0
BBX 51 65 5 -1
BITMAP
0003FFFF000000
1FFFFFFFF80000
1FFFFFFFFF0000
1FFFFFFFFFC000
1FFFFFFFFFE000
1FFFFFFFFFF800
1FFFFFFFFFFC00
1FFFFFFFFFFC00
1FFFFFFFFFFE00
1FFFFFFFFFFF00
1FFFFFFFFFFF00
1FFFFFFFFFFF80
1FFFFFFFFFFF80
1FFFFFFFFFFFC0
1FFFE00FFFFFC0
1FFFC003FFFFC0
3FFFC000FFFFC0
3FFFC0007FFFC0
3FFFC0007FFFE0
3FFFC0003FFFE0
3FFFC0003FFFE0
3FFFC0003FFFE0
3FFFC0003FFFE0
3FFF80001FFFE0
3FFF80001FFFE0
3FFF80001FFFE0
3FFF80001FFFE0
3FFF80001FFFE0
3FFF80001FFFE0
7FFF80001FFFE0
7FFF80001FFFE0
7FFF80001FFFE0
7FFF80001FFFE0
7FFF80001FFFE0
7FFF80001FFFE0
7FFF80003FFFE0
7FFF80003FFFC0
7FFF80003FFFC0
7FFF00003FFFC0
7FFF00003FFFC0
7FFF00007FFFC0
FFFF00007FFFC0
FFFF00007FFF80
FFFF0000FFFF80
FFFF0000FFFF80
FFFF0001FFFF00
FFFF0003FFFF00
FFFF0007FFFF00
FFFF000FFFFE00
FFFF001FFFFE00
FFFF00FFFFFC00
FFFFFFFFFFFC00
FFFFFFFFFFF800
FFFFFFFFFFF000
FFFFFFFFFFF000
FFFFFFFFFFE000
FFFFFFFFFFC000
FFFFFFFFFF8000
FFFFFFFFFF0000
FFFFFFFFFC0000
FFFFFFFFF80000
7FFFFFFFE00000
3FFFFFFF800000
0FFFFFFC000000
03FFFFC0000000
ENDCHAR
STARTCHAR 0045
ENCODING 69
SWIDTH 506 0
DWIDTH 45 0
BBX 37 63 5 0
BITMAP
0FFFFFFFF8
1FFFFFFFF8
1FFFFFFFF8
1FFFFFFFF8
1FFFFFFFF8
1FFFFFFFF8
1FFFFFFFF8
1FFFFFFFF8
1FFFFFFFF8
1FFFFFFFF0
1FFFFFFFF0
1FFFFFFFC0
1FFFC00000
1FFFC00000
3FFFC00000
3FFFC00000
3FFFC00000
3FFFC00000
3FFFC00000
3FFFC00000
3FFF800000
3FFF800000
3FFF800000
3FFF800000
3FFFFFFE00
3FFFFFFE00
7FFFFFFE00
7FFFFFFE00
7FFFFFFE00
7FFFFFFE00
7FFFFFFE00
7FFFFFFE00
7FFFFFFE00
7FFFFFFC00
7FFFFFFC00
7FFFFFF800
7FFFFFF000
7FFF000000
7FFF000000
7FFF000000
FFFF000000
FFFF000000
FFFF000000
FFFF000000
FFFF000000
FFFF000000
FFFF000000
FFFF000000
FFFF000000
FFFE000000
FFFE000000
FFFFFFFFF0
FFFFFFFFF0
FFFFFFFFF0
FFFFFFFFF0
FFFFFFFFF0
FFFFFFFFF0
FFFFFFFFF0
FFFFFFFFF0
FFFFFFFFF0
7FFFFFFFE0
3FFFFFFFC0
0FFFFFFF80
ENDCHAR
STARTCHAR 0046
ENCODING 70
SWIDTH 461 0
DWIDTH 41 0
BBX 37 63 5 0
BITMAP
0FFFFFFFF8
1FFFFFFFF8
1FFFFFFFF8
1FFFFFFFF8
1FFFFFFFF8
1FFFFFFFF8
1FFFFFFFF8
1FFFFFFFF8
1FFFFFFFF8
1FFFFFFFF0
1FFFFFFFF0
1FFFFFFFC0
1FFFC00000
1FFFC00000
3FFFC00000
3FFFC00000
3FFFC00000
3FFFC00000
3FFFC00000
3FFFC00000
3FFF800000
3FFF800000
3FFF800000
3FFF800000
3FFFFFFE00
3FFFFFFE00
7FFFFFFE00
7FFFFFFE00
7FFFFFFE00
7FFFFFFE00
7FFFFFFE00
7FFFFFFE00
7FFFFFFE00
7FFFFFFC00
7FFFFFFC00
7FFFFFF800
7FFFFFF000
7FFF000000
7FFF000000
7FFF000000
FFFF000000
FFFF000000
FFFF000000
FFFF000000
FFFF000000
FFFF000000
FFFF000000
FFFF000000
FFFF000000
FFFF000000
FFFE000000
FFFE000000
FFFE000000
FFFE000000
FFFE000000
FFFE000000
FFFE000000
FFFE000000
FFFE000000
FFFE000000
7FFE000000
3FFE000000
0FFE000000
ENDCHAR
STARTCHAR 0047
ENCODING 71
SWIDTH 641 0
DWIDTH 57 0
BBX 50 65 4 -1
BITMAP
000000FFF80000
00000FFFFF0000
00007FFFFFE000
0001FFFFFFF000
0007FFFFFFFC00
000FFFFFFFFE00
001FFFFFFFFF00
003FFFFFFFFF00
007FFFFFFFFF80
00FFFFFFFFFF80
01FFFFFFFFFFC0
03FFFFFFFFFFC0
03FFFFFFFFFFC0
07FFFFFFFFFFC0
0FFFFFC0FFFFC0
0FFFFF007FFFC0
1FFFFC003FFFC0
1FFFF8003FFFC0
1FFFF0003FFF80
3FFFF0003FFF80
3FFFE0003FFF00
3FFFE0003FFE00
7FFFC0003FF800
7FFFC0001FE000
7FFFC000000000
7FFF8000000000
FFFF8000000000
FFFF8000000000
FFFF8000000000
FFFF8000000000
FFFF8000000000
FFFF0000000000
FFFF0000000000
FFFF00003FF000
FFFF00003FFC00
FFFF00003FFE00
FFFF00007FFE00
FFFF00007FFF00
FFFF00007FFF00
FFFF00007FFF00
FFFF00007FFF00
FFFF80007FFF00
FFFF80007FFF00
FFFF80007FFF00
FFFF80007FFF00
FFFF8000FFFF00
FFFFC000FFFF00
FFFFC000FFFF00
7FFFE001FFFF00
7FFFF003FFFF00
7FFFF80FFFFF00
3FFFFFFFFFFF00
3FFFFFFFFFFE00
3FFFFFFFFFFE00
1FFFFFFFFFFE00
1FFFFFFFFFFE00
0FFFFFFFFFFE00
0FFFFFFFFFFE00
07FFFFFFFFFE00
03FFFFFCFFFE00
01FFFFFCFFFE00
00FFFFF87FFE00
007FFFE03FFC00
001FFFC00FFC00
0003FE00000000
ENDCHAR
STARTCHAR 0048
ENCODING 72
SWIDTH 675 0
DWIDTH 60 0
BBX 51 63 5 0
BITMAP
0FFC00000FFC00
1FFF00001FFF00
1FFF80001FFF80
1FFFC0001FFFC0
1FFFC0001FFFC0
1FFFC0001FFFC0
1FFFE0001FFFE0
1FFFE0001FFFE0
1FFFE0001FFFE0
1FFFE0001FFFE0
1FFFE0001FFFE0
1FFFE0001FFFE0
1FFFE0001FFFE0
1FFFE0001FFFE0
3FFFC0003FFFE0
3FFFC0003FFFC0
3FFFC0003FFFC0
3FFFC0003FFFC0
3FFFC0003FFFC0
3FFFC0003FFFC0
3FFFC0003FFFC0
3FFFC0003FFFC0
3FFFC0003FFFC0
3FFFC0003FFFC0
3FFFFFFFFFFFC0
3FFFFFFFFFFFC0
7FFFFFFFFFFFC0
7FFFFFFFFFFFC0
7FFFFFFFFFFFC0
7FFFFFFFFFFF80
7FFFFFFFFFFF80
7FFFFFFFFFFF80
7FFFFFFFFFFF80
7FFFFFFFFFFF80
7FFFFFFFFFFF80
7FFFFFFFFFFF80
7FFFFFFFFFFF80
7FFF80007FFF80
7FFF80007FFF80
7FFF80007FFF80
FFFF8000FFFF80
FFFF8000FFFF80
FFFF8000FFFF80
FFFF0000FFFF80
FFFF0000FFFF00
FFFF0000FFFF00
FFFF0000FFFF00
FFFF0000FFFF00
FFFF0000FFFF00
FFFF0000FFFF00
FFFF0000FFFF00
FFFF0000FFFF00
FFFF0000FFFF00
FFFF0000FFFF00
FFFF0000FFFF00
FFFF0000FFFF00
FFFF0000FFFF00
FFFE0000FFFF00
FFFE0000FFFE00
FFFE0000FFFE00
7FFE00007FFE00
3FFE00003FFE00
0FFE00000FFE00
ENDCHAR
STARTCHAR 0049
ENCODING 73
SWIDTH 315 0
DWIDTH 28 0
BBX 19 63 5 0
BITMAP
0FFC00
1FFF00
1FFF80
1FFFC0
1FFFC0
1FFFC0
1FFFE0
1FFFE0
1FFFE0
1FFFE0
1FFFE0
1FFFE0
1FFFE0
1FFFE0
3FFFC0
3FFFC0
3FFFC0
3FFFC0
3FFFC0
3FFFC0
3FFFC0
3FFFC0
3FFFC0
3FFFC0
3FFFC0
3FFFC0
7FFFC0
7FFFC0
7FFFC0
7FFF80
7FFF80
7FFF80
7FFF80
7FFF80
7FFF80
7FFF80
7FFF80
7FFF80
7FFF80
7FFF80
FFFF80
FFFF80
FFFF80
FFFF00
FFFF00
FFFF00
FFFF00
FFFF00
FFFF00
FFFF00
FFFF00
FFFF00
FFFF00
FFFF00
FFFF00
FFFF00
FFFF00
FFFE00
FFFE00
FFFE00
7FFE00
3FFE00
0FFE00
ENDCHAR
STARTCHAR 004A
ENCODING 74
SWIDTH 483 0
DWIDTH 43 0
BBX 40 65 -1 -1
BITMAP
0000001F00
0000007FF8
0000007FFE
0000007FFF
0000007FFF
0000007FFF
0000007FFF
0000007FFF
0000007FFF
0000007FFF
0000007FFF
0000007FFF
0000007FFF
000000FFFF
000000FFFF
000000FFFF
000000FFFF
000000FFFF
000000FFFF
000000FFFF
000000FFFF
000000FFFF
000000FFFE
000000FFFE
000000FFFE
000000FFFE
000000FFFE
000000FFFE
000000FFFE
000001FFFE
000001FFFE
000001FFFE
000001FFFE
000001FFFE
000001FFFE
000001FFFE
000001FFFC
000001FFFC
000003FFFC
000003FFFC
000003FFFC
000003FFFC
000003FFF8
000007FFF8
002007FFF8
03E007FFF8
0FF007FFF8
1FF00FFFF0
3FF00FFFF0
7FF81FFFF0
7FFC3FFFE0
7FFFFFFFE0
FFFFFFFFE0
FFFFFFFFC0
FFFFFFFFC0
7FFFFFFF80
7FFFFFFF00
7FFFFFFF00
3FFFFFFE00
3FFFFFFC00
1FFFFFF800
0FFFFFF000
03FFFFC000
00FFFF0000
001FF80000
ENDCHAR
STARTCHAR 004B
ENCODING 75
SWIDTH 618 0
DWIDTH 55 0
BBX 48 65 5 -1
BITMAP
000000000380
0FFC000007E0
1FFF00000FF0
1FFF80001FF8
1FFFC0003FF8
1FFFC0003FFC
1FFFC0007FFE
1FFFC000FFFE
1FFFE001FFFF
1FFFE001FFFF
1FFFE003FFFF
1FFFE007FFFF
1FFFE00FFFFF
1FFFC00FFFFF
1FFFC01FFFFE
3FFFC03FFFFC
3FFFC07FFFFC
3FFFC07FFFF8
3FFFC0FFFFF0
3FFFC1FFFFE0
3FFFC3FFFFC0
3FFFC3FFFF80
3FFFC7FFFF00
3FFFCFFFFE00
3FFFDFFFFC00
3FFFDFFFF800
3FFFFFFFF000
3FFFFFFFC000
7FFFFFFF8000
7FFFFFFF0000
7FFFFFFE0000
7FFFFFFE0000
7FFFFFFF0000
7FFFFFFF0000
7FFFFFFF8000
7FFFFFFF8000
7FFFFFFFC000
7FFFFFFFE000
7FFFEFFFE000
7FFFC7FFF000
7FFF87FFF800
FFFF87FFF800
FFFF83FFFC00
FFFF83FFFE00
FFFF03FFFE00
FFFF01FFFF00
FFFF01FFFF80
FFFF01FFFF80
FFFF00FFFFC0
FFFF00FFFFE0
FFFF00FFFFE0
FFFF007FFFF0
FFFF007FFFF8
FFFF003FFFF8
FFFF003FFFFC
FFFF003FFFFC
FFFF001FFFFE
FFFF001FFFFF
FFFE000FFFFF
FFFE0007FFFF
FFFE0007FFFE
7FFE0003FFFC
3FFE0001FFF8
0FFE00007FE0
000000001F80
ENDCHAR
STARTCHAR 004C
ENCODING 76
SWIDTH 450 0
DWIDTH 40 0
BBX 33 64 5 0
BITMAP
07C0000000
1FFE000000
1FFF800000
1FFF800000
1FFFC00000
1FFFC00000
1FFFC00000
1FFFC00000
1FFFC00000
1FFFC00000
1FFFC00000
1FFFC00000
1FFFC00000
1FFFC00000
3FFFC00000
3FFFC00000
3FFFC00000
3FFFC00000
3FFFC00000
3FFFC00000
3FFFC00000
3FFFC00000
3FFF800000
3FFF800000
3FFF800000
3FFF800000
3FFF800000
7FFF800000
7FFF800000
7FFF800000
7FFF800000
7FFF800000
7FFF800000
7FFF800000
7FFF800000
7FFF800000
7FFF000000
7FFF000000
7FFF000000
7FFF000000
FFFF000000
FFFF000000
FFFF000000
FFFF000000
FFFF000000
FFFF000000
FFFF000000
FFFF000000
FFFF000000
FFFF000000
FFFE000000
FFFE000000
FFFFFFFF80
FFFFFFFF80
FFFFFFFF80
FFFFFFFF80
FFFFFFFF80
FFFFFFFF80
FFFFFFFF00
FFFFFFFF00
FFFFFFFF00
7FFFFFFF00
3FFFFFFE00
0FFFFFF800
ENDCHAR
STARTCHAR 004D
ENCODING 77
SWIDTH 911 0
DWIDTH 81 0
BBX 71 63 5 0
BITMAP
0FFFF8000001FFFFE0
1FFFFF000003FFFFF8
1FFFFF800003FFFFFC
1FFFFFC00003FFFFFE
1FFFFFC00003FFFFFE
1FFFFFE00007FFFFFE
1FFFFFE00007FFFFFE
1FFFFFF00007FFFFFE
1FFFFFF00007FFFFFE
1FFFFFF8000FFFFFFE
1FFFFFF8000FFFFFFE
1FFFFFF8000FFFFFFE
1FFFFFF8001FFFFFFE
1FFFFFF8001FFFFFFE
3FFFFFFC001FFFFFFE
3FFFFFFC001FFFFFFE
3FFFFFFC003FFFFFFE
3FFFFFFC003FFFFFFE
3FFF7FFC003FFEFFFE
3FFF7FFC003FFEFFFE
3FFF7FFE007FFEFFFE
3FFF7FFE007FFCFFFE
3FFF3FFE007FFDFFFE
3FFF3FFE007FFDFFFE
3FFF3FFE00FFF9FFFE
3FFF3FFE00FFF9FFFE
3FFF3FFE00FFF9FFFE
7FFF1FFF00FFF1FFFC
7FFF1FFF01FFF1FFFC
7FFF1FFF01FFF1FFFC
7FFF1FFF01FFE1FFFC
7FFF1FFF03FFE1FFFC
7FFF0FFF03FFE1FFFC
7FFF0FFF83FFC1FFFC
7FFF0FFF83FFC3FFFC
7FFF0FFF87FFC3FFFC
7FFF0FFF87FF83FFFC
7FFF07FF87FF83FFFC
7FFF07FF87FF83FFFC
7FFE07FF8FFF03FFFC
FFFE07FFCFFF03FFFC
FFFE07FFCFFF03FFFC
FFFE03FFDFFE03FFF8
FFFE03FFDFFE07FFF8
FFFE03FFDFFE07FFF8
FFFE03FFFFFC07FFF8
FFFE01FFFFFC07FFF8
FFFE01FFFFFC07FFF8
FFFE01FFFFF807FFF8
FFFE01FFFFF807FFF8
FFFE01FFFFF807FFF8
FFFE00FFFFF007FFF8
FFFE00FFFFF007FFF8
FFFE00FFFFF007FFF8
FFFE00FFFFE00FFFF8
FFFE007FFFE00FFFF0
FFFE007FFFC00FFFF0
FFFE007FFFC007FFF0
FFFE003FFFC007FFF0
FFFE003FFF8007FFF0
7FFE001FFF8003FFF0
3FFE000FFF8001FFF0
0FFE0001FE00007FF0
ENDCHAR
STARTCHAR 004E
ENCODING 78
SWIDTH 686 0
DWIDTH 61 0
BBX 52 63 5 0
BITMAP
0FFF000007FE00
1FFFC00007FF80
1FFFF00007FFE0
1FFFF80007FFE0
1FFFF80007FFF0
1FFFFC0007FFF0
1FFFFC0007FFF0
1FFFFE0007FFF0
1FFFFE0007FFF0
1FFFFE0007FFF0
1FFFFF0007FFF0
1FFFFF0007FFF0
1FFFFF8007FFF0
1FFFFF8007FFF0
3FFFFF8007FFF0
3FFFFFC007FFF0
3FFFFFC007FFF0
3FFFFFE007FFF0
3FFFFFE007FFE0
3FFFFFE007FFE0
3FFFFFF007FFE0
3FFFFFF007FFE0
3FFFFFF807FFE0
3FFFFFF807FFE0
3FFDFFF807FFE0
3FFDFFFC07FFE0
3FFEFFFC07FFE0
7FFEFFFE07FFE0
7FFE7FFE07FFE0
7FFE7FFF07FFE0
7FFE3FFF07FFE0
7FFE3FFF07FFE0
7FFE1FFF87FFE0
7FFE1FFF87FFE0
7FFE1FFFC7FFC0
7FFE0FFFC7FFC0
7FFE0FFFE7FFC0
7FFE07FFE7FFC0
7FFE07FFE7FFC0
7FFE03FFF7FFC0
FFFE03FFF7FFC0
FFFE01FFFFFFC0
FFFE01FFFFFFC0
FFFE00FFFFFFC0
FFFE00FFFFFFC0
FFFE007FFFFFC0
FFFE007FFFFFC0
FFFE003FFFFFC0
FFFE003FFFFF80
FFFE001FFFFF80
FFFE001FFFFF80
FFFE000FFFFF80
FFFE000FFFFF80
FFFE0007FFFF80
FFFE0007FFFF80
FFFE0003FFFF80
FFFE0003FFFF80
FFFE0003FFFF80
FFFE0001FFFF80
FFFE0001FFFF80
7FFE0000FFFF00
3FFE00007FFF00
0FFE00001FFF00
ENDCHAR
STARTCHAR 004F
ENCODING 79
SWIDTH 708 0
DWIDTH 63 0
BBX 56 65 4 -1
BITMAP
0000007FFC0000
000007FFFFC000
00003FFFFFF800
0000FFFFFFFE00
0003FFFFFFFF00
0007FFFFFFFF80
001FFFFFFFFFC0
003FFFFFFFFFE0
007FFFFFFFFFF0
00FFFFFFFFFFF0
01FFFFFFFFFFF8
01FFFFFFFFFFF8
03FFFFFFFFFFFC
07FFFFFFFFFFFC
07FFFFC07FFFFE
0FFFFF000FFFFE
0FFFFE0007FFFE
1FFFF80007FFFE
1FFFF80003FFFF
3FFFF00003FFFF
3FFFE00001FFFF
3FFFE00001FFFF
7FFFC00001FFFF
7FFFC00001FFFF
7FFFC00000FFFF
7FFF800000FFFF
FFFF800000FFFF
FFFF800000FFFF
FFFF800000FFFF
FFFF800000FFFF
FFFF000000FFFF
FFFF000000FFFF
FFFF000001FFFF
FFFF000001FFFF
FFFF000001FFFF
FFFF000001FFFF
FFFF000001FFFF
FFFF000001FFFE
FFFF000003FFFE
FFFF000003FFFE
FFFF000003FFFE
FFFF800007FFFE
FFFF800007FFFC
FFFF800007FFFC
FFFF80000FFFFC
FFFFC0000FFFF8
FFFFC0001FFFF8
7FFFE0003FFFF0
7FFFF0007FFFF0
7FFFF800FFFFF0
3FFFFE03FFFFE0
3FFFFFFFFFFFE0
3FFFFFFFFFFFC0
1FFFFFFFFFFF80
1FFFFFFFFFFF80
0FFFFFFFFFFF00
07FFFFFFFFFE00
07FFFFFFFFFC00
03FFFFFFFFF800
01FFFFFFFFE000
007FFFFFFFC000
003FFFFFFF0000
000FFFFFFC0000
0003FFFFE00000
00003FFE000000
ENDCHAR
STARTCHAR 0050
ENCODING 80
SWIDTH 585 0
DWIDTH 52 0
BBX 46 64 5 0
BITMAP
1FFFFFFE0000
1FFFFFFFE000
1FFFFFFFF800
1FFFFFFFFE00
1FFFFFFFFF00
1FFFFFFFFFC0
1FFFFFFFFFC0
1FFFFFFFFFE0
1FFFFFFFFFF0
1FFFFFFFFFF0
1FFFFFFFFFF8
1FFFFFFFFFF8
1FFFFFFFFFF8
1FFFE01FFFFC
1FFFC007FFFC
3FFFC003FFFC
3FFF8003FFFC
3FFF8001FFFC
3FFF8001FFFC
3FFF8001FFFC
3FFF8001FFFC
3FFF8001FFFC
3FFF8001FFFC
3FFF8001FFFC
3FFF8001FFFC
3FFF8001FFFC
3FFF8003FFFC
7FFF8003FFFC
7FFF8003FFF8
7FFF8007FFF8
7FFF8007FFF8
7FFF800FFFF8
7FFF801FFFF0
7FFF807FFFF0
7FFFFFFFFFE0
7FFFFFFFFFE0
7FFFFFFFFFC0
7FFFFFFFFFC0
7FFFFFFFFF80
7FFFFFFFFF00
FFFFFFFFFE00
FFFFFFFFFC00
FFFFFFFFF800
FFFFFFFFE000
FFFFFFFFC000
FFFFFFFE0000
FFFF7FF00000
FFFE00000000
FFFE00000000
FFFE00000000
FFFE00000000
FFFE00000000
FFFE00000000
FFFE00000000
FFFE00000000
FFFE00000000
FFFE00000000
FFFE00000000
FFFE00000000
FFFE00000000
FFFC00000000
7FFC00000000
3FFC00000000
0FFC00000000
ENDCHAR
STARTCHAR 0051
ENCODING 81
SWIDTH 686 0
DWIDTH 61 0
BBX 54 81 4 -17
BITMAP
000000FFF00000
00000FFFFF0000
00007FFFFFE000
0001FFFFFFF000
0007FFFFFFFC00
000FFFFFFFFE00
001FFFFFFFFF00
003FFFFFFFFF80
007FFFFFFFFF80
00FFFFFFFFFFC0
01FFFFFFFFFFE0
03FFFFFFFFFFE0
03FFFFFFFFFFE0
07FFFFFFFFFFF0
0FFFFF80FFFFF0
0FFFFE007FFFF0
1FFFFC003FFFF8
1FFFF8001FFFF8
1FFFF0000FFFF8
3FFFF0000FFFF8
3FFFE0000FFFF8
3FFFE00007FFF8
7FFFC00007FFF8
7FFFC00007FFFC
7FFFC00007FFFC
7FFF800007FFFC
FFFF800007FFFC
FFFF800007FFFC
FFFF800007FFFC
FFFF800007FFFC
FFFF000007FFFC
FFFF000007FFF8
FFFF000007FFF8
FFFF000007FFF8
FFFF000007FFF8
FFFF000007FFF8
FFFF00000FFFF8
FFFF00000FFFF8
FFFF00000FFFF8
FFFF00000FFFF0
FFFF00001FFFF0
FFFF00001FFFF0
FFFF80001FFFF0
FFFF80003FFFE0
FFFF80003FFFE0
FFFFC0007FFFE0
FFFFC0007FFFC0
7FFFE000FFFFC0
7FFFE001FFFFC0
7FFFF003FFFF80
3FFFFC0FFFFF80
3FFFFFFFFFFF00
3FFFFFFFFFFE00
1FFFFFFFFFFE00
1FFFFFFFFFFC00
0FFFFFFFFFF800
07FFFFFFFFF000
07FFFFFFFFE000
03FFFFFFFFC000
01FFFFFFFF8000
00FFFFFFFF0000
003FFFFFFC0000
000FFFFFF00000
0001FFFFC00000
00001FFFE00000
00000FFFF00000
00000FFFF80000
00000FFFFC0000
000007FFFE0000
000007FFFF0000
000003FFFF8000
000003FFFFC000
000003FFFFE000
000001FFFFF000
000000FFFFF800
000000FFFFF000
0000007FFFE000
0000003FFFC000
0000001FFF8000
0000000FFF0000
00000003F80000
ENDCHAR
STARTCHAR 0052
ENCODING 82
SWIDTH 618 0
DWIDTH 55 0
BBX 46 65 5 -1
BITMAP
0FFFFFFE0000
1FFFFFFFE000
1FFFFFFFF800
1FFFFFFFFE00
1FFFFFFFFF00
1FFFFFFFFF80
1FFFFFFFFFC0
1FFFFFFFFFE0
1FFFFFFFFFF0
1FFFFFFFFFF0
1FFFFFFFFFF8
1FFFFFFFFFF8
3FFFFFFFFFF8
3FFFE01FFFFC
3FFFC007FFFC
3FFFC003FFFC
3FFFC003FFFC
3FFFC001FFFC
3FFFC001FFFC
3FFFC001FFFC
3FFFC001FFFC
3FFFC001FFFC
3FFF8001FFFC
3FFF8001FFFC
3FFF8001FFFC
3FFF8003FFFC
3FFF8003FFFC
7FFF8007FFF8
7FFF8007FFF8
7FFF800FFFF8
7FFFC03FFFF0
7FFFFFFFFFF0
7FFFFFFFFFF0
7FFFFFFFFFE0
7FFFFFFFFFC0
7FFFFFFFFFC0
7FFFFFFFFF80
7FFFFFFFFF00
7FFFFFFFFC00
7FFFFFFFF800
FFFFFFFFE000
FFFFFFFFE000
FFFF7FFFF000
FFFF03FFF800
FFFF03FFF800
FFFF03FFFC00
FFFF03FFFE00
FFFF01FFFF00
FFFF01FFFF00
FFFF01FFFF80
FFFF01FFFFC0
FFFF00FFFFC0
FFFE00FFFFE0
FFFE00FFFFF0
FFFE007FFFF0
FFFE007FFFF8
FFFE003FFFFC
FFFE003FFFFC
FFFE001FFFFC
FFFE001FFFFC
FFFE000FFFF8
7FFE0007FFF0
3FFE0003FFE0
0FFC0001FF80
00000000FE00
ENDCHAR
STARTCHAR 0053
ENCODING 83
SWIDTH 540 0
DWIDTH 48 0
BBX 42 65 3 -1
BITMAP
00000FFF0000
0000FFFFE000
0007FFFFF800
000FFFFFFC00
003FFFFFFE00
007FFFFFFF00
00FFFFFFFF80
01FFFFFFFF80
03FFFFFFFFC0
07FFFFFFFFC0
0FFFFFFFFFC0
0FFFFFFFFFC0
1FFFFFFFFFC0
1FFFFFFFFFC0
1FFFF83FFFC0
3FFFE01FFFC0
3FFFC00FFFC0
3FFF8007FFC0
3FFF8007FFC0
3FFF0007FF80
3FFF0007FF00
3FFF0007FE00
3FFF8007FC00
3FFFC003E000
3FFFE0000000
3FFFF0000000
3FFFFC000000
1FFFFF000000
1FFFFFC00000
0FFFFFF80000
0FFFFFFE0000
07FFFFFF8000
03FFFFFFC000
03FFFFFFE000
01FFFFFFF000
007FFFFFF800
003FFFFFFC00
000FFFFFFE00
0003FFFFFE00
00007FFFFF00
00001FFFFF00
000007FFFF80
000001FFFF80
000000FFFF80
3000007FFF80
7C00007FFF80
FE00007FFF80
FF80007FFF80
FFC000FFFF80
FFF000FFFF80
FFFC03FFFF80
FFFFFFFFFF80
FFFFFFFFFF00
FFFFFFFFFF00
FFFFFFFFFF00
FFFFFFFFFE00
FFFFFFFFFC00
7FFFFFFFFC00
7FFFFFFFF800
1FFFFFFFF000
0FFFFFFFE000
03FFFFFFC000
00FFFFFF0000
003FFFFC0000
0003FFC00000
ENDCHAR
STARTCHAR 0054
ENCODING 84
SWIDTH 540 0
DWIDTH 48 0
BBX 47 63 3 0
BITMAP
1FFFFFFFFFFE
3FFFFFFFFFFE
7FFFFFFFFFFE
FFFFFFFFFFFE
FFFFFFFFFFFE
FFFFFFFFFFFE
FFFFFFFFFFFE
FFFFFFFFFFFE
FFFFFFFFFFFC
FFFFFFFFFFFC
FFFFFFFFFFF8
FFFFFFFFFFF0
0001FFFC0000
0001FFFC0000
0001FFFC0000
0001FFFC0000
0001FFFC0000
0003FFFC0000
0003FFFC0000
0003FFFC0000
0003FFFC0000
0003FFFC0000
0003FFFC0000
0003FFFC0000
0003FFFC0000
0003FFF80000
0003FFF80000
0003FFF80000
0003FFF80000
0003FFF80000
0007FFF80000
0007FFF80000
0007FFF80000
0007FFF80000
0007FFF80000
0007FFF80000
0007FFF80000
0007FFF80000
0007FFF80000
0007FFF80000
0007FFF00000
0007FFF00000
0007FFF00000
000FFFF00000
000FFFF00000
000FFFF00000
000FFFF00000
000FFFF00000
000FFFF00000
000FFFF00000
000FFFF00000
000FFFF00000
000FFFF00000
000FFFF00000
000FFFF00000
000FFFE00000
000FFFE00000
000FFFE00000
000FFFE00000
0007FFE00000
0007FFE00000
0001FFE00000
00007FE00000
ENDCHAR
STARTCHAR 0055
ENCODING 85
SWIDTH 663 0
DWIDTH 59 0
BBX 50 65 5 -1
BITMAP
07C0000007C000
1FFE00001FFE00
1FFF00001FFF80
1FFF80001FFFC0
1FFFC0001FFFC0
1FFFC0001FFFC0
1FFFC0001FFFC0
1FFFC0001FFFC0
1FFFE0001FFFC0
1FFFE0001FFFC0
3FFFE0001FFFC0
3FFFC0001FFFC0
3FFFC0001FFFC0
3FFFC0001FFFC0
3FFFC0003FFFC0
3FFFC0003FFFC0
3FFFC0003FFFC0
3FFFC0003FFFC0
3FFFC0003FFFC0
3FFFC0003FFFC0
3FFFC0003FFFC0
3FFFC0003FFFC0
7FFFC0003FFFC0
7FFFC0003FFFC0
7FFFC0003FFF80
7FFFC0003FFF80
7FFF80003FFF80
7FFF80007FFF80
7FFF80007FFF80
7FFF80007FFF80
7FFF80007FFF80
7FFF80007FFF80
7FFF80007FFF80
7FFF80007FFF80
FFFF80007FFF80
FFFF80007FFF80
FFFF80007FFF80
FFFF8000FFFF00
FFFF8000FFFF00
FFFF8000FFFF00
FFFF8000FFFF00
FFFF8000FFFF00
FFFF8001FFFF00
FFFF8001FFFE00
FFFF8001FFFE00
FFFF8003FFFE00
FFFF8003FFFE00
FFFFC007FFFC00
FFFFC00FFFFC00
7FFFE01FFFF800
7FFFF83FFFF800
7FFFFFFFFFF800
7FFFFFFFFFF000
3FFFFFFFFFF000
3FFFFFFFFFE000
1FFFFFFFFFC000
1FFFFFFFFFC000
0FFFFFFFFF8000
07FFFFFFFF0000
03FFFFFFFE0000
01FFFFFFF80000
00FFFFFFF00000
003FFFFFC00000
000FFFFE000000
0001FFE0000000
ENDCHAR
STARTCHAR 0056
ENCODING 86
SWIDTH 618 0
DWIDTH 55 0
BBX 53 64 2 0
BITMAP
02000000003800
7FF8000003FF80
FFFE000003FFE0
FFFF000003FFF0
FFFF800003FFF8
7FFFC00007FFF8
7FFFC00007FFF8
7FFFC00007FFF8
7FFFE00007FFF8
3FFFE0000FFFF8
3FFFE0000FFFF8
3FFFE0000FFFF0
3FFFE0000FFFF0
3FFFE0001FFFF0
1FFFF0001FFFF0
1FFFF0001FFFE0
1FFFF0001FFFE0
1FFFF0003FFFE0
0FFFF0003FFFE0
0FFFF0003FFFC0
0FFFF0003FFFC0
0FFFF8007FFFC0
0FFFF8007FFF80
07FFF8007FFF80
07FFF8007FFF80
07FFF800FFFF00
07FFF800FFFF00
03FFFC00FFFF00
03FFFC00FFFE00
03FFFC01FFFE00
03FFFC01FFFE00
01FFFC01FFFC00
01FFFC03FFFC00
01FFFE03FFF800
01FFFE03FFF800
01FFFE03FFF800
00FFFE07FFF000
00FFFE07FFF000
00FFFE07FFF000
00FFFE07FFE000
007FFF0FFFE000
007FFF0FFFC000
007FFF0FFFC000
007FFF1FFFC000
003FFF1FFF8000
003FFF1FFF8000
003FFF9FFF0000
003FFFBFFF0000
001FFFBFFF0000
001FFFBFFE0000
001FFFFFFE0000
001FFFFFFC0000
000FFFFFFC0000
000FFFFFFC0000
000FFFFFF80000
000FFFFFF80000
0007FFFFF00000
0007FFFFF00000
0007FFFFE00000
0003FFFFE00000
0003FFFFC00000
0001FFFFC00000
0000FFFF800000
00003FFF000000
ENDCHAR
STARTCHAR 0057
ENCODING 87
SWIDTH 945 0
DWIDTH 84 0
BBX 80 64 3 0
BITMAP
080000001C0000000700
FFF80001FFFC00007FF0
FFFE0003FFFF00007FFC
FFFF0003FFFF8000FFFE
FFFF8003FFFFC000FFFF
FFFFC003FFFFC000FFFF
FFFFC003FFFFE000FFFF
FFFFC003FFFFE000FFFF
7FFFC003FFFFF000FFFF
7FFFE003FFFFF000FFFF
7FFFE007FFFFF001FFFF
7FFFE007FFFFF001FFFF
3FFFE007FFFFF001FFFF
3FFFE007FFFFF801FFFE
3FFFE007FFFFF801FFFE
3FFFE007FF7FF801FFFE
1FFFE007FF7FF803FFFE
1FFFE007FF7FF803FFFE
1FFFF00FFF7FF803FFFC
1FFFF00FFF7FF803FFFC
1FFFF00FFE7FF803FFFC
0FFFF00FFE7FFC03FFFC
0FFFF00FFE7FFC07FFF8
0FFFF00FFE7FFC07FFF8
0FFFF00FFE3FFC07FFF8
07FFF01FFE3FFC07FFF8
07FFF81FFE3FFC07FFF0
07FFF81FFC3FFC07FFF0
07FFF81FFC3FFC07FFF0
03FFF81FFC3FFC0FFFF0
03FFF81FFC3FFC0FFFE0
03FFF81FFC3FFE0FFFE0
03FFF83FFC3FFE0FFFE0
01FFF83FFC1FFE0FFFC0
01FFF83FF81FFE0FFFC0
01FFFC3FF81FFE1FFFC0
01FFFC3FF81FFE1FFFC0
00FFFC3FF81FFE1FFF80
00FFFC7FF81FFE1FFF80
00FFFC7FF81FFE1FFF80
00FFFC7FF81FFE3FFF80
007FFC7FF01FFF3FFF00
007FFC7FF00FFF3FFF00
007FFC7FF00FFF3FFF00
007FFEFFF00FFF3FFE00
003FFEFFF00FFF7FFE00
003FFEFFF00FFF7FFE00
003FFEFFF00FFF7FFE00
003FFEFFE00FFF7FFC00
001FFEFFE00FFF7FFC00
001FFFFFE00FFFFFFC00
001FFFFFE007FFFFF800
001FFFFFE007FFFFF800
000FFFFFE007FFFFF800
000FFFFFC007FFFFF000
000FFFFFC007FFFFF000
000FFFFFC007FFFFF000
0007FFFFC003FFFFE000
0007FFFFC003FFFFE000
0003FFFF8003FFFFE000
0003FFFF8001FFFFC000
0001FFFF8000FFFFC000
0000FFFF00007FFF8000
00007FFE00003FFF0000
ENDCHAR
STARTCHAR 0058
ENCODING 88
SWIDTH 641 0
DWIDTH 57 0
BBX 55 65 1 -1
BITMAP
00000000000F00
0FFE0000001F80
1FFFC000001FC0
1FFFF000003FE0
1FFFF800007FF0
0FFFFC00007FF0
07FFFE0000FFF8
07FFFF0001FFF8
03FFFF0001FFFC
03FFFF8003FFFC
01FFFF8007FFFE
01FFFFC007FFFE
00FFFFC00FFFFE
007FFFC01FFFFE
007FFFE01FFFFC
003FFFE03FFFFC
003FFFF07FFFF8
001FFFF07FFFF0
000FFFF8FFFFE0
000FFFF9FFFFE0
0007FFF9FFFFC0
0007FFFFFFFF80
0003FFFFFFFF00
0001FFFFFFFC00
0001FFFFFFF800
0000FFFFFFF000
0000FFFFFFE000
00007FFFFFC000
00003FFFFF0000
00003FFFFE0000
00001FFFFC0000
00001FFFF00000
00000FFFF00000
00003FFFF00000
00007FFFF80000
0000FFFFF80000
0003FFFFFC0000
0007FFFFFE0000
000FFFFFFE0000
001FFFFFFF0000
007FFFFFFF8000
00FFFFFFFF8000
01FFFFFFFFC000
03FFFFBFFFC000
07FFFFBFFFE000
0FFFFF1FFFF000
1FFFFE1FFFF000
1FFFFE0FFFF800
3FFFFC0FFFFC00
7FFFF807FFFC00
7FFFF807FFFE00
FFFFF003FFFF00
FFFFE003FFFF00
FFFFE003FFFF80
7FFFC001FFFF80
7FFFC001FFFFC0
7FFF8000FFFFC0
3FFF0000FFFFE0
3FFF00007FFFF0
1FFE00007FFFF0
1FFC00003FFFF0
0FFC00001FFFF8
07F8000007FFF8
03F00000007FF0
01E00000000000
ENDCHAR
STARTCHAR 0059
ENCODING 89
SWIDTH 607 0
DWIDTH 54 0
BBX 53 64 2 0
BITMAP
7FE0000003FE00
FFF8000003FF80
FFFE000007FFE0
FFFF000007FFF0
FFFF800007FFF8
7FFF80000FFFF8
7FFFC0000FFFF8
3FFFC0000FFFF0
3FFFC0001FFFF0
3FFFE0001FFFF0
1FFFE0001FFFE0
1FFFE0003FFFE0
0FFFF0003FFFE0
0FFFF0003FFFC0
0FFFF0007FFFC0
07FFF8007FFF80
07FFF8007FFF80
03FFF800FFFF00
03FFF800FFFF00
01FFFC01FFFE00
01FFFC01FFFE00
01FFFC01FFFC00
00FFFE03FFFC00
00FFFE03FFF800
007FFE07FFF800
007FFF07FFF000
003FFF0FFFE000
003FFF0FFFE000
001FFF9FFFC000
001FFF9FFFC000
001FFFBFFF8000
000FFFBFFF0000
000FFFFFFF0000
0007FFFFFE0000
0007FFFFFC0000
0003FFFFFC0000
0003FFFFF80000
0001FFFFF00000
0001FFFFF00000
0000FFFFE00000
0000FFFFC00000
0000FFFF800000
0000FFFF800000
0000FFFF000000
0000FFFF000000
0000FFFF000000
0000FFFF000000
0001FFFF000000
0001FFFF000000
0001FFFF000000
0001FFFF000000
0001FFFF000000
0001FFFE000000
0001FFFE000000
0001FFFE000000
0001FFFE000000
0001FFFE000000
0001FFFE000000
0001FFFE000000
0000FFFE000000
0000FFFE000000
00007FFE000000
00003FFE000000
00000FFC000000
ENDCHAR
STARTCHAR 005A
ENCODING 90
SWIDTH 551 0
DWIDTH 49 0
BBX 47 63 1 0
BITMAP
00FFFFFFFFFE
01FFFFFFFFFE
03FFFFFFFFFE
03FFFFFFFFFE
07FFFFFFFFFE
07FFFFFFFFFE
07FFFFFFFFFE
07FFFFFFFFFE
07FFFFFFFFFC
07FFFFFFFFFC
07FFFFFFFFF8
07FFFFFFFFF8
0000003FFFF0
0000007FFFE0
0000007FFFE0
000000FFFFC0
000000FFFFC0
000001FFFF80
000001FFFF00
000003FFFF00
000007FFFE00
000007FFFE00
00000FFFFC00
00000FFFF800
00001FFFF800
00003FFFF000
00003FFFF000
00007FFFE000
00007FFFC000
0000FFFFC000
0001FFFF8000
0001FFFF8000
0003FFFF0000
0003FFFE0000
0007FFFE0000
000FFFFC0000
000FFFF80000
001FFFF80000
003FFFF00000
003FFFF00000
007FFFE00000
00FFFFC00000
00FFFFC00000
01FFFF800000
03FFFF000000
03FFFF000000
07FFFE000000
07FFFE000000
0FFFFC000000
1FFFF8000000
1FFFF8000000
3FFFFFFFFFF0
7FFFFFFFFFF0
7FFFFFFFFFF0
FFFFFFFFFFF0
FFFFFFFFFFF0
FFFFFFFFFFF0
FFFFFFFFFFF0
FFFFFFFFFFF0
FFFFFFFFFFF0
FFFFFFFFFFE0
FFFFFFFFFFC0
FFFFFFFFFF80
ENDCHAR
STARTCHAR 005B
ENCODING 91
SWIDTH 405 0
DWIDTH 36 0
BBX 33 83 3 -17
BITMAP
07FFFFFF80
07FFFFFF80
07FFFFFF80
07FFFFFF80
07FFFFFF80
07FFFFFF80
07FFFFFF80
07FFFFFF80
07FFFFFF80
0FFFFFFF00
0FFFFFFF00
0FFFFFFE00
0FFFFFFC00
0FFFC00000
0FFFC00000
0FFFC00000
0FFFC00000
0FFFC00000
0FFFC00000
0FFFC00000
0FFFC00000
0FFF800000
0FFF800000
0FFF800000
1FFF800000
1FFF800000
1FFF800000
1FFF800000
1FFF800000
1FFF800000
1FFF800000
1FFF800000
1FFF800000
1FFF800000
1FFF800000
1FFF800000
1FFF000000
3FFF000000
3FFF000000
3FFF000000
3FFF000000
3FFF000000
3FFF000000
3FFF000000
3FFF000000
3FFF000000
3FFF000000
3FFF000000
3FFF000000
3FFF000000
7FFE000000
7FFE000000
7FFE000000
7FFE000000
7FFE000000
7FFE000000
7FFE000000
7FFE000000
7FFE000000
7FFE000000
7FFE000000
7FFE000000
7FFE000000
7FFE000000
7FFC000000
FFFC000000
FFFC000000
FFFC000000
FFFC000000
FFFC000000
FFFFFFF000
FFFFFFF000
FFFFFFF000
FFFFFFF000
FFFFFFF000
FFFFFFF000
FFFFFFF000
FFFFFFF000
FFFFFFE000
7FFFFFE000
7FFFFFE000
3FFFFFC000
0FFFFF8000
ENDCHAR
STARTCHAR 005C
ENCODING 92
SWIDTH 326 0
DWIDTH 29 0
BBX 20 65 5 -1
BITMAP
010000
3FC000
7FE000
FFE000
FFE000
FFE000
FFE000
FFF000
FFF000
FFF000
FFF000
FFF000
7FF000
7FF800
7FF800
7FF800
7FF800
7FF800
7FFC00
3FFC00
3FFC00
3FFC00
3FFC00
3FFC00
1FFE00
1FFE00
1FFE00
1FFE00
1FFE00
1FFE00
0FFF00
0FFF00
0FFF00
0FFF00
0FFF00
0FFF00
07FF80
07FF80
07FF80
07FF80
07FF80
07FF80
03FFC0
03FFC0
03FFC0
03FFC0
03FFC0
03FFC0
01FFE0
01FFE0
01FFE0
01FFE0
01FFE0
01FFE0
00FFE0
00FFE0
00FFE0
00FFF0
00FFF0
00FFF0
007FE0
007FE0
007FE0
007FC0
003F80
ENDCHAR
STARTCHAR 005D
ENCODING 93
SWIDTH 405 0
DWIDTH 36 0
BBX 33 83 -1 -17
BITMAP
007FFFF800
01FFFFFE00
03FFFFFF00
03FFFFFF00
03FFFFFF80
07FFFFFF80
07FFFFFF80
07FFFFFF80
07FFFFFF80
07FFFFFF80
07FFFFFF80
07FFFFFF80
07FFFFFF80
00001FFF80
00001FFF80
00001FFF80
00001FFF80
00001FFF80
00001FFF80
00001FFF80
00003FFF00
00003FFF00
00003FFF00
00003FFF00
00003FFF00
00003FFF00
00003FFF00
00003FFF00
00003FFF00
00003FFF00
00003FFF00
00003FFF00
00003FFF00
00003FFF00
00003FFE00
00007FFE00
00007FFE00
00007FFE00
00007FFE00
00007FFE00
00007FFE00
00007FFE00
00007FFE00
00007FFE00
00007FFE00
00007FFE00
00007FFE00
00007FFC00
00007FFC00
00007FFC00
0000FFFC00
0000FFFC00
0000FFFC00
0000FFFC00
0000FFFC00
0000FFFC00
0000FFFC00
0000FFFC00
0000FFFC00
0000FFFC00
0000FFFC00
0000FFF800
0000FFF800
0000FFF800
0000FFF800
0001FFF800
0001FFF800
0001FFF800
0001FFF800
0001FFF800
1FFFFFF800
3FFFFFF800
7FFFFFF800
7FFFFFF800
FFFFFFF800
FFFFFFF800
FFFFFFF000
FFFFFFF000
FFFFFFF000
FFFFFFF000
FFFFFFF000
FFFFFFF000
FFFFFFF000
ENDCHAR
STARTCHAR 005E
ENCODING 94
SWIDTH 461 0
DWIDTH 41 0
BBX 35 24 2 13
BITMAP
0000080000
0001FF8000
0003FF8000
0007FFC000
000FFFC000
001FFFE000
003FFFF000
007FFFF000
007FFFF800
00FFFFF800
01FFFFFC00
03FFDFFE00
07FF8FFE00
0FFF07FF00
0FFF07FF00
1FFE03FF80
3FFC01FFC0
7FF800FFC0
7FF000FFE0
FFE0007FE0
FFC0003FE0
7F00001FC0
3E00000F80
1C00000700
ENDCHAR
STARTCHAR 005F
ENCODING 95
SWIDTH 528 0
DWIDTH 47 0
BBX 38 12 2 -13
BITMAP
0FFFFFFFF8
3FFFFFFFFC
7FFFFFFFFC
7FFFFFFFFC
7FFFFFFFFC
FFFFFFFFF8
FFFFFFFFF8
FFFFFFFFF8
FFFFFFFFF8
FFFFFFFFF8
FFFFFFFFF0
FFFFFFFFC0
ENDCHAR
STARTCHAR 0060
ENCODING 96
SWIDTH 213 0
DWIDTH 19 0
BBX 17 19 1 55
BITMAP
01E000
07F000
1FF000
7FF000
FFF800
FFF800
FFFC00
7FFC00
7FFC00
3FFE00
1FFE00
1FFF00
0FFF00
07FF80
03FF80
01FF80
00FF00
007E00
003800
ENDCHAR
STARTCHAR 0061
ENCODING 97
SWIDTH 562 0
DWIDTH 50 0
BBX 47 51 1 -1
BITMAP
00001FFE0000
0001FFFFE000
000FFFFFF800
003FFFFFFC00
007FFFFFFF00
00FFFFFFFF00
01FFFFFFFF80
03FFFFFFFFC0
03FFFFFFFFC0
07FFFFFFFFE0
07FFFFFFFFE0
07FFFFFFFFE0
0FFFF03FFFE0
0FFFE01FFFE0
0FFFC00FFFF0
07FF800FFFF0
07FF800FFFF0
07FF8007FFF0
03FF0007FFE0
01FF0007FFE0
002E0007FFE0
0000000FFFE0
00000FFFFFE0
0001FFFFFFE0
001FFFFFFFE0
007FFFFFFFE0
01FFFFFFFFE0
03FFFFFFFFE0
07FFFFFFFFC0
0FFFFC0FFFC0
1FFFE01FFFC0
3FFF801FFFC0
7FFF001FFFC0
7FFF001FFFC0
7FFE003FFFC0
FFFE003FFFC0
FFFE007FFFE0
FFFF00FFFFF0
FFFF83FFFFFE
FFFFFFFFFFFE
FFFFFFFFFFFE
FFFFFFFFFFFE
FFFFFFFFFFFE
7FFFFFFFFFFE
7FFFFFEFFFFC
7FFFFFCFFFFC
3FFFFF8FFFF8
1FFFFF07FFF8
0FFFFC03FFF0
03FFF001FFE0
007F80007F00
ENDCHAR
STARTCHAR 0062
ENCODING 98
SWIDTH 596 0
DWIDTH 53 0
BBX 46 67 4 -1
BITMAP
1FF000000000
1FFE00000000
1FFF00000000
1FFF80000000
1FFF80000000
1FFF80000000
1FFFC0000000
1FFFC0000000
1FFFC0000000
1FFFC0000000
1FFFC0000000
3FFF80000000
3FFF80000000
3FFF80000000
3FFF80000000
3FFF80000000
3FFF807FC000
3FFF81FFF800
3FFF87FFFE00
3FFF8FFFFF00
3FFF9FFFFF80
3FFFBFFFFFC0
3FFFFFFFFFE0
3FFFFFFFFFE0
3FFFFFFFFFF0
7FFFFFFFFFF0
7FFFFFFFFFF8
7FFFFFFFFFF8
7FFFF81FFFF8
7FFFE00FFFFC
7FFFC007FFFC
7FFF8003FFFC
7FFF8003FFFC
7FFF0003FFFC
7FFF0003FFFC
7FFF0001FFFC
7FFE0001FFFC
7FFE0001FFFC
FFFE0001FFFC
FFFE0001FFFC
FFFE0001FFFC
FFFE0001FFFC
FFFE0003FFFC
FFFE0003FFFC
FFFE0003FFFC
FFFE0003FFFC
FFFE0003FFF8
FFFE0007FFF8
FFFE0007FFF8
FFFE0007FFF8
FFFE000FFFF0
FFFF000FFFF0
FFFF001FFFF0
7FFF803FFFE0
7FFFE07FFFE0
7FFFFFFFFFC0
7FFFFFFFFFC0
3FFFFFFFFF80
3FFFFFFFFF00
1FFFFFFFFE00
1FFFFFFFFC00
0FFFFFFFF800
07FFFFFFF000
01FFFFFFC000
00FFFFFF0000
003FFFFC0000
0003FFC00000
ENDCHAR
STARTCHAR 0063
ENCODING 99
SWIDTH 506 0
DWIDTH 45 0
BBX 41 51 3 -1
BITMAP
00003FF80000
0001FFFF8000
0007FFFFE000
001FFFFFF000
007FFFFFFC00
00FFFFFFFC00
01FFFFFFFE00
03FFFFFFFF00
07FFFFFFFF00
07FFFFFFFF00
0FFFFFFFFF80
1FFFFFFFFF80
1FFFF07FFF80
1FFFE03FFF80
3FFFC03FFF80
3FFF801FFF80
7FFF801FFF00
7FFF001FFF00
7FFF001FFE00
7FFF001FFC00
FFFE001FF800
FFFE001FE000
FFFE00000000
FFFE00000000
FFFE00000000
FFFE00000000
FFFE00000000
FFFE00000000
FFFE00000000
FFFE00000000
FFFE00000000
FFFE00000000
FFFE00000000
FFFE00000000
FFFF00001000
FFFF00007800
FFFF8001F800
7FFFC003F800
7FFFE01FF800
7FFFFFFFF800
3FFFFFFFF000
3FFFFFFFF000
1FFFFFFFF000
0FFFFFFFE000
0FFFFFFFE000
07FFFFFFC000
03FFFFFF8000
00FFFFFE0000
007FFFFC0000
001FFFF00000
0001FF800000
ENDCHAR
STARTCHAR 0064
ENCODING 100
SWIDTH 607 0
DWIDTH 54 0
BBX 48 67 3 -1
BITMAP
000000003FE0
000000003FF8
000000003FFC
000000003FFE
000000003FFF
000000007FFF
000000007FFF
000000007FFF
000000007FFF
000000007FFF
000000007FFF
000000007FFF
000000007FFF
000000007FFF
000000007FFF
000000007FFF
00007FC07FFF
0003FFF87FFF
000FFFFC7FFE
003FFFFEFFFE
007FFFFFFFFE
00FFFFFFFFFE
01FFFFFFFFFE
03FFFFFFFFFE
07FFFFFFFFFE
0FFFFFFFFFFE
0FFFFFFFFFFE
1FFFFFFFFFFE
1FFFF80FFFFE
3FFFF007FFFE
3FFFE003FFFE
3FFFC001FFFC
7FFFC001FFFC
7FFF8001FFFC
7FFF8001FFFC
7FFF8000FFFC
FFFF0000FFFC
FFFF0000FFFC
FFFF0000FFFC
FFFF0000FFFC
FFFF0000FFFC
FFFF0000FFFC
FFFF0000FFFC
FFFF0000FFFC
FFFF0000FFFC
FFFF0001FFF8
FFFF0001FFF8
FFFF0001FFF8
FFFF0001FFF8
FFFF8003FFF8
FFFF8003FFF8
FFFF8007FFF8
FFFFC00FFFF8
7FFFE01FFFF8
7FFFF03FFFF8
7FFFFFFFFFF8
3FFFFFFFFFF8
3FFFFFFFFFF8
3FFFFFFFFFF0
1FFFFFFFFFF0
0FFFFFFBFFF0
0FFFFFFBFFF0
07FFFFF1FFF0
03FFFFE1FFF0
00FFFFC0FFF0
003FFF001FF0
0007F8000000
ENDCHAR
STARTCHAR 0065
ENCODING 101
SWIDTH 528 0
DWIDTH 47 0
BBX 44 51 2 -1
BITMAP
000007FF8000
00007FFFF000
0001FFFFFC00
0007FFFFFE00
001FFFFFFF00
003FFFFFFF80
007FFFFFFFC0
00FFFFFFFFC0
01FFFFFFFFE0
03FFFFFFFFE0
03FFFFFFFFE0
07FFFFFFFFF0
07FFF83FFFF0
0FFFF01FFFF0
0FFFE00FFFF0
1FFFE00FFFF0
1FFFC00FFFE0
3FFFC00FFFE0
3FFF800FFFE0
3FFF800FFFE0
3FFF801FFFC0
7FFF003FFFC0
7FFF00FFFF80
7FFF07FFFF00
7FFFFFFFFE00
7FFFFFFFFC00
7FFFFFFFF800
7FFFFFFFE000
FFFFFFFF0000
FFFFFFF80000
FFFFFF800000
FFFF00000000
7FFF00000000
7FFF00000000
7FFF00000000
7FFF8000E000
7FFF8001F800
7FFFC003FC00
3FFFE007FE00
3FFFF81FFE00
1FFFFFFFFF00
1FFFFFFFFF00
0FFFFFFFFF00
0FFFFFFFFE00
07FFFFFFFE00
03FFFFFFFC00
01FFFFFFF800
007FFFFFF000
003FFFFFE000
0007FFFF0000
00007FF00000
ENDCHAR
STARTCHAR 0066
ENCODING 102
SWIDTH 450 0
DWIDTH 40 0
BBX 44 67 2 0
BITMAP
000003FFC000
00003FFFFC00
0000FFFFFF00
0003FFFFFF80
0007FFFFFFC0
000FFFFFFFE0
001FFFFFFFE0
001FFFFFFFF0
003FFFFFFFF0
003FFFFFFFF0
007FFFFFFFF0
007FFFFFFFF0
00FFFF83FFF0
00FFFF01FFF0
00FFFE01FFF0
00FFFE01FFE0
01FFFC01FFE0
01FFFC01FF80
01FFFC01FE00
01FFFC000000
01FFF8000000
01FFF8000000
01FFF8000000
01FFF8000000
0FFFFFFF0000
3FFFFFFF8000
7FFFFFFF8000
7FFFFFFF0000
7FFFFFFF0000
7FFFFFFF0000
7FFFFFFF0000
FFFFFFFF0000
FFFFFFFF0000
FFFFFFFE0000
FFFFFFFE0000
FFFFFFF80000
07FFF0000000
07FFF0000000
07FFF0000000
07FFF0000000
07FFF0000000
07FFF0000000
07FFF0000000
07FFE0000000
07FFE0000000
07FFE0000000
07FFE0000000
07FFE0000000
07FFE0000000
0FFFE0000000
0FFFE0000000
0FFFE0000000
0FFFE0000000
0FFFE0000000
0FFFE0000000
0FFFE0000000
0FFFC0000000
0FFFC0000000
0FFFC0000000
0FFFC0000000
0FFFC0000000
0FFFC0000000
07FFC0000000
07FFC0000000
03FFC0000000
01FFC0000000
007F80000000
ENDCHAR
STARTCHAR 0067
ENCODING 103
SWIDTH 607 0
DWIDTH 54 0
BBX 47 67 3 -17
BITMAP
0000FF800000
0007FFF07FC0
001FFFF87FF0
007FFFFC7FF8
00FFFFFE7FFC
01FFFFFF7FFC
03FFFFFFFFFE
07FFFFFFFFFE
07FFFFFFFFFE
0FFFFFFFFFFE
1FFFFFFFFFFE
1FFFFFFFFFFE
3FFFFC0FFFFE
3FFFF007FFFE
3FFFE003FFFE
7FFFC001FFFE
7FFFC001FFFE
7FFF8001FFFE
7FFF8001FFFC
7FFF0000FFFC
FFFF0000FFFC
FFFF0000FFFC
FFFF0000FFFC
FFFF0000FFFC
FFFF0001FFFC
FFFF0001FFFC
FFFF0001FFFC
FFFF0001FFFC
FFFF0001FFFC
FFFF0003FFFC
FFFF0003FFFC
FFFF0007FFF8
FFFF800FFFF8
7FFFC01FFFF8
7FFFE07FFFF8
7FFFFFFFFFF8
7FFFFFFFFFF8
3FFFFFFFFFF8
3FFFFFFFFFF8
1FFFFFFFFFF8
1FFFFFFBFFF8
0FFFFFF3FFF0
07FFFFE3FFF0
03FFFFC3FFF0
01FFFF87FFF0
007FFE07FFF0
000FF007FFF0
00000007FFF0
00000007FFE0
0000000FFFE0
07C0000FFFE0
1FC0001FFFE0
3FE0001FFFE0
7FF0003FFFC0
FFF8007FFFC0
FFFE01FFFFC0
FFFFFFFFFF80
FFFFFFFFFF80
FFFFFFFFFF00
7FFFFFFFFE00
7FFFFFFFFC00
3FFFFFFFF800
1FFFFFFFF000
0FFFFFFFC000
03FFFFFF8000
007FFFFC0000
000FFFC00000
ENDCHAR
STARTCHAR 0068
ENCODING 104
SWIDTH 607 0
DWIDTH 54 0
BBX 46 66 4 0
BITMAP
0FF800000000
0FFE00000000
1FFF00000000
1FFF80000000
1FFFC0000000
1FFFC0000000
1FFFC0000000
1FFFC0000000
1FFFC0000000
1FFFC0000000
1FFFC0000000
1FFFC0000000
1FFFC0000000
1FFFC0000000
1FFFC0000000
1FFFC0000000
1FFFC03FF000
1FFF81FFFE00
3FFF83FFFF80
3FFF8FFFFFC0
3FFF9FFFFFE0
3FFF9FFFFFF0
3FFFBFFFFFF0
3FFFFFFFFFF8
3FFFFFFFFFF8
3FFFFFFFFFF8
3FFFFFFFFFF8
3FFFFFFFFFFC
3FFFFC0FFFFC
3FFFF803FFFC
3FFFF003FFFC
3FFFE001FFFC
7FFFC001FFFC
7FFFC001FFFC
7FFF8001FFFC
7FFF8001FFFC
7FFF8001FFFC
7FFF0001FFFC
7FFF0001FFF8
7FFF0001FFF8
7FFF0003FFF8
7FFF0003FFF8
7FFF0003FFF8
7FFE0003FFF8
7FFE0003FFF8
FFFE0003FFF8
FFFE0003FFF8
FFFE0003FFF8
FFFE0003FFF8
FFFE0003FFF8
FFFE0003FFF0
FFFE0007FFF0
FFFE0007FFF0
FFFE0007FFF0
FFFE0007FFF0
FFFC0007FFF0
FFFC0007FFF0
FFFC0007FFF0
FFFC0007FFF0
FFFC0007FFF0
FFFC0007FFF0
FFFC0007FFF0
FFFC0003FFE0
7FFC0003FFE0
3FFC0001FFE0
0FFC00003FE0
ENDCHAR
STARTCHAR 0069
ENCODING 105
SWIDTH 281 0
DWIDTH 25 0
BBX 19 67 4 0
BITMAP
00FF00
03FFC0
0FFFC0
0FFFE0
1FFFE0
1FFFE0
1FFFE0
3FFFE0
1FFFE0
1FFFC0
1FFF80
0FFF00
03FC00
000000
000000
000000
000000
000000
1FF000
1FFC00
3FFE00
3FFF00
3FFF00
3FFF80
3FFF80
3FFF80
3FFF80
3FFF80
3FFF80
3FFF80
3FFF80
3FFF80
3FFF00
7FFF00
7FFF00
7FFF00
7FFF00
7FFF00
7FFF00
7FFF00
7FFF00
7FFF00
7FFF00
7FFF00
7FFF00
7FFF00
FFFE00
FFFE00
FFFE00
FFFE00
FFFE00
FFFE00
FFFE00
FFFE00
FFFE00
FFFE00
FFFE00
FFFE00
FFFE00
FFFC00
FFFC00
FFFC00
FFFC00
7FFC00
7FFC00
3FFC00
0FFC00
ENDCHAR
STARTCHAR 006A
ENCODING 106
SWIDTH 281 0
DWIDTH 25 0
BBX 35 85 -13 -17
BITMAP
000000FF00
000003FFC0
00000FFFC0
00000FFFE0
00001FFFE0
00001FFFE0
00003FFFE0
00003FFFE0
00003FFFE0
00001FFFC0
00001FFF80
00000FFF00
000003FC00
0000000000
0000000000
0000000000
0000000000
0000000000
00000FF800
00001FFE00
00001FFF00
00001FFF80
00001FFFC0
00001FFFC0
00001FFFC0
00001FFFC0
00001FFFC0
00001FFFC0
00001FFFC0
00001FFFC0
00001FFF80
00001FFF80
00001FFF80
00003FFF80
00003FFF80
00003FFF80
00003FFF80
00003FFF80
00003FFF80
00003FFF80
00003FFF80
00003FFF80
00003FFF80
00003FFF80
00003FFF00
00003FFF00
00003FFF00
00003FFF00
00003FFF00
00007FFF00
00007FFF00
00007FFF00
00007FFF00
00007FFF00
00007FFF00
00007FFF00
00007FFF00
00007FFF00
00007FFE00
00007FFE00
00007FFE00
00007FFE00
00007FFE00
00007FFE00
0000FFFE00
0000FFFE00
0000FFFE00
0000FFFE00
0000FFFE00
0000FFFC00
0000FFFC00
07C0FFFC00
1FE1FFFC00
7FF1FFFC00
FFFFFFF800
FFFFFFF800
FFFFFFF000
FFFFFFF000
FFFFFFE000
FFFFFFE000
7FFFFFC000
3FFFFF8000
1FFFFF0000
03FFFC0000
007FE00000
ENDCHAR
STARTCHAR 006B
ENCODING 107
SWIDTH 540 0
DWIDTH 48 0
BBX 42 67 4 -1
BITMAP
0FF800000000
0FFE00000000
1FFF00000000
1FFF80000000
1FFFC0000000
1FFFC0000000
1FFFC0000000
1FFFC0000000
1FFFC0000000
1FFFC0000000
1FFFC0000000
1FFFC0000000
1FFFC0000000
1FFFC0000000
1FFFC0000000
1FFFC0000000
1FFFC000E000
1FFFC001F000
3FFF8007F000
3FFF800FF800
3FFF801FFC00
3FFF803FFC00
3FFF807FFE00
3FFF80FFFE00
3FFF81FFFF00
3FFF83FFFF00
3FFF87FFFF00
3FFF8FFFFF00
3FFF9FFFFE00
3FFFBFFFFE00
3FFFFFFFFC00
3FFFFFFFF000
7FFFFFFFE000
7FFFFFFF8000
7FFFFFFE0000
7FFFFFF80000
7FFFFFE00000
7FFFFF800000
7FFFFF000000
7FFFFF000000
7FFFFF800000
7FFFFFC00000
7FFFFFE00000
7FFFFFF00000
7FFFFFF80000
FFFFFFFC0000
FFFFFFFE0000
FFFEFFFF0000
FFFEFFFF8000
FFFE7FFFC000
FFFE3FFFE000
FFFE3FFFF000
FFFE1FFFF800
FFFE1FFFFC00
FFFE0FFFFC00
FFFE07FFFE00
FFFC07FFFF00
FFFC03FFFF80
FFFC01FFFFC0
FFFC01FFFFC0
FFFC00FFFFC0
FFFC007FFF80
FFFC003FFF80
7FFC001FFF00
3FFC000FFE00
0FF80007FC00
00000001F800
ENDCHAR
STARTCHAR 006C
ENCODING 108
SWIDTH 303 0
DWIDTH 27 0
BBX 20 67 4 -1
BITMAP
0FF800
1FFE00
1FFF00
1FFF80
1FFF80
1FFFC0
1FFFC0
1FFFC0
1FFFC0
1FFFC0
1FFFC0
1FFFC0
1FFFC0
1FFFC0
1FFFC0
1FFFC0
1FFF80
3FFF80
3FFF80
3FFF80
3FFF80
3FFF80
3FFF80
3FFF80
3FFF80
3FFF80
3FFF80
3FFF80
3FFF80
3FFF00
3FFF00
7FFF00
7FFF00
7FFF00
7FFF00
7FFF00
7FFF00
7FFF00
7FFF00
7FFF00
7FFF00
7FFE00
7FFE00
FFFE00
FFFE00
FFFE00
FFFE00
FFFE00
FFFE00
FFFE00
FFFE00
FFFE00
FFFE00
FFFF00
FFFF80
FFFFE0
FFFFF0
FFFFF0
FFFFF0
FFFFF0
FFFFF0
7FFFE0
7FFFE0
3FFFC0
3FFF80
0FFF00
03FC00
ENDCHAR
STARTCHAR 006D
ENCODING 109
SWIDTH 900 0
DWIDTH 80 0
BBX 72 50 4 0
BITMAP
0000003FE00003FE00
1FE001FFFC001FFFC0
3FFC07FFFF007FFFF0
3FFE0FFFFF80FFFFF8
3FFF1FFFFFC1FFFFFC
3FFF1FFFFFE3FFFFFC
3FFFBFFFFFE7FFFFFE
3FFFFFFFFFE7FFFFFE
3FFFFFFFFFFFFFFFFF
3FFFFFFFFFFFFFFFFF
3FFFFFFFFFFFFFFFFF
3FFFFFFFFFFFFFFFFF
3FFFFC1FFFFFC1FFFF
3FFFF80FFFFF00FFFF
7FFFF007FFFE00FFFF
7FFFE007FFFE007FFF
7FFFE007FFFC007FFF
7FFFC007FFFC007FFF
7FFFC007FFF8007FFF
7FFF8007FFF8007FFF
7FFF8007FFF8007FFF
7FFF8007FFF0007FFF
7FFF8007FFF0007FFF
7FFF0007FFF0007FFE
7FFF0007FFF000FFFE
7FFF0007FFF000FFFE
7FFF0007FFE000FFFE
7FFF000FFFE000FFFE
FFFF000FFFE000FFFE
FFFE000FFFE000FFFE
FFFE000FFFE000FFFE
FFFE000FFFE000FFFE
FFFE000FFFE000FFFE
FFFE000FFFE000FFFE
FFFE000FFFE000FFFE
FFFE000FFFE000FFFE
FFFE000FFFE001FFFC
FFFE000FFFC001FFFC
FFFE001FFFC001FFFC
FFFE001FFFC001FFFC
FFFE001FFFC001FFFC
FFFC001FFFC001FFFC
FFFC001FFFC001FFFC
FFFC001FFFC001FFFC
FFFC001FFFC001FFFC
FFFC000FFFC000FFFC
7FFC000FFFC000FFFC
7FFC0007FFC0007FFC
3FFC0003FFC0003FF8
07FC0000FF80000FF8
ENDCHAR
STARTCHAR 006E
ENCODING 110
SWIDTH 618 0
DWIDTH 55 0
BBX 47 50 4 0
BITMAP
0000001FF800
1FF000FFFF00
3FFC03FFFFC0
3FFE07FFFFE0
3FFF0FFFFFF0
3FFF1FFFFFF8
3FFFBFFFFFF8
3FFFFFFFFFFC
3FFFFFFFFFFC
3FFFFFFFFFFC
3FFFFFFFFFFC
3FFFFFFFFFFE
3FFFFE07FFFE
3FFFF801FFFE
7FFFF001FFFE
7FFFE000FFFE
7FFFE000FFFE
7FFFC000FFFE
7FFFC000FFFE
7FFFC000FFFE
7FFF8000FFFE
7FFF8000FFFE
7FFF8000FFFC
7FFF8000FFFC
7FFF0001FFFC
7FFF0001FFFC
7FFF0001FFFC
7FFF0001FFFC
FFFF0001FFFC
FFFF0001FFFC
FFFF0001FFFC
FFFE0001FFFC
FFFE0001FFFC
FFFE0001FFFC
FFFE0001FFF8
FFFE0003FFF8
FFFE0003FFF8
FFFE0003FFF8
FFFE0003FFF8
FFFE0003FFF8
FFFC0003FFF8
FFFC0003FFF8
FFFC0003FFF8
FFFC0003FFF8
FFFC0003FFF8
FFFC0003FFF8
7FFC0001FFF0
7FFC0001FFF0
3FFC0000FFF0
07FC00001FF0
ENDCHAR
STARTCHAR 006F
ENCODING 111
SWIDTH 596 0
DWIDTH 53 0
BBX 47 51 3 -1
BITMAP
00000FFF0000
0000FFFFF000
0007FFFFFC00
000FFFFFFF00
003FFFFFFF80
007FFFFFFFC0
01FFFFFFFFE0
03FFFFFFFFF0
03FFFFFFFFF0
07FFFFFFFFF8
0FFFFFFFFFF8
0FFFFFFFFFFC
1FFFF80FFFFC
3FFFF003FFFC
3FFFC003FFFE
3FFFC001FFFE
7FFF8001FFFE
7FFF0000FFFE
7FFF0000FFFE
7FFF0000FFFE
FFFE0000FFFE
FFFE0000FFFE
FFFE0000FFFE
FFFE0000FFFE
FFFE0000FFFE
FFFE0000FFFE
FFFE0000FFFE
FFFE0001FFFE
FFFE0001FFFE
FFFE0001FFFC
FFFE0001FFFC
FFFE0003FFFC
FFFE0003FFFC
FFFE0003FFF8
FFFF0007FFF8
FFFF000FFFF8
FFFF800FFFF0
7FFFC01FFFF0
7FFFE07FFFE0
7FFFFFFFFFE0
3FFFFFFFFFC0
3FFFFFFFFF80
1FFFFFFFFF80
1FFFFFFFFF00
0FFFFFFFFE00
07FFFFFFFC00
03FFFFFFF000
01FFFFFFE000
007FFFFF8000
001FFFFE0000
0003FFE00000
ENDCHAR
STARTCHAR 0070
ENCODING 112
SWIDTH 607 0
DWIDTH 54 0
BBX 48 67 3 -17
BITMAP
0000001FF000
0FF800FFFE00
0FFE03FFFF80
0FFF07FFFFC0
1FFF8FFFFFE0
1FFFDFFFFFF0
1FFFDFFFFFF8
1FFFFFFFFFFC
1FFFFFFFFFFC
1FFFFFFFFFFC
1FFFFFFFFFFE
1FFFFFFFFFFE
1FFFFC0FFFFE
1FFFF007FFFF
1FFFE003FFFF
1FFFE001FFFF
1FFFC001FFFF
3FFFC000FFFF
3FFF8000FFFF
3FFF8000FFFF
3FFF8000FFFF
3FFF8000FFFF
3FFF0000FFFF
3FFF0000FFFF
3FFF0000FFFF
3FFF0000FFFF
3FFF0000FFFF
3FFF0000FFFF
3FFF0000FFFF
3FFF0000FFFF
3FFF0000FFFE
7FFF0001FFFE
7FFF8001FFFE
7FFF8001FFFE
7FFF8003FFFE
7FFFC003FFFC
7FFFC007FFFC
7FFFE00FFFF8
7FFFF03FFFF8
7FFFFFFFFFF0
7FFFFFFFFFF0
7FFFFFFFFFE0
7FFFFFFFFFE0
7FFFFFFFFFC0
FFFFFFFFFF80
FFFE7FFFFF00
FFFE7FFFFE00
FFFE3FFFFC00
FFFE1FFFF800
FFFE07FFE000
FFFE01FF0000
FFFE00000000
FFFE00000000
FFFE00000000
FFFE00000000
FFFE00000000
FFFE00000000
FFFC00000000
FFFC00000000
FFFC00000000
FFFC00000000
FFFC00000000
FFFC00000000
FFFC00000000
7FFC00000000
3FFC00000000
07F800000000
ENDCHAR
STARTCHAR 0071
ENCODING 113
SWIDTH 607 0
DWIDTH 54 0
BBX 47 67 3 -17
BITMAP
00007F800000
0007FFF07FC0
001FFFF87FF0
007FFFFC7FF8
00FFFFFEFFFC
01FFFFFEFFFE
03FFFFFFFFFE
07FFFFFFFFFE
07FFFFFFFFFE
0FFFFFFFFFFE
1FFFFFFFFFFE
1FFFFFFFFFFE
1FFFF80FFFFE
3FFFF007FFFE
3FFFE003FFFE
7FFFC003FFFE
7FFFC001FFFE
7FFF8001FFFE
7FFF8001FFFC
7FFF0001FFFC
FFFF0001FFFC
FFFF0000FFFC
FFFF0000FFFC
FFFF0001FFFC
FFFF0001FFFC
FFFF0001FFFC
FFFF0001FFFC
FFFF0001FFFC
FFFF0001FFFC
FFFF0001FFFC
FFFF0001FFF8
FFFF0003FFF8
FFFF0003FFF8
FFFF0003FFF8
FFFF0007FFF8
FFFF800FFFF8
FFFF800FFFF8
7FFFC01FFFF8
7FFFE07FFFF8
7FFFFFFFFFF8
7FFFFFFFFFF8
3FFFFFFFFFF8
3FFFFFFFFFF8
1FFFFFFFFFF8
1FFFFFFBFFF0
0FFFFFF7FFF0
07FFFFE7FFF0
03FFFFC7FFF0
01FFFF87FFF0
007FFE07FFF0
000FF007FFF0
00000007FFF0
00000007FFF0
00000007FFF0
00000007FFF0
00000007FFF0
00000007FFF0
00000007FFF0
00000007FFF0
00000007FFE0
00000007FFE0
00000007FFE0
00000007FFE0
00000003FFE0
00000003FFE0
00000000FFE0
000000003FE0
ENDCHAR
STARTCHAR 0072
ENCODING 114
SWIDTH 483 0
DWIDTH 43 0
BBX 39 50 4 0
BITMAP
0000007F00
1FF001FFC0
1FFC07FFF0
3FFE0FFFF0
3FFF1FFFF8
3FFF3FFFFC
3FFFBFFFFC
3FFFFFFFFC
3FFFFFFFFE
3FFFFFFFFE
3FFFFFFFFE
3FFFFFFFFE
3FFFF9FFFC
3FFFE0FFFC
3FFFC0FFFC
3FFFC0FFFC
7FFF807FF8
7FFF807FF8
7FFF80FFF0
7FFF00FFE0
7FFF00FFC0
7FFF007F00
7FFF000000
7FFF000000
7FFF000000
7FFF000000
7FFF000000
7FFF000000
7FFE000000
FFFE000000
FFFE000000
FFFE000000
FFFE000000
FFFE000000
FFFE000000
FFFE000000
FFFE000000
FFFE000000
FFFE000000
FFFE000000
FFFC000000
FFFC000000
FFFC000000
FFFC000000
FFFC000000
FFFC000000
7FFC000000
7FFC000000
3FFC000000
07F8000000
ENDCHAR
STARTCHAR 0073
ENCODING 115
SWIDTH 472 0
DWIDTH 42 0
BBX 38 51 1 -1
BITMAP
00003FF800
0003FFFF00
000FFFFFC0
003FFFFFE0
00FFFFFFF0
01FFFFFFF8
03FFFFFFF8
03FFFFFFFC
07FFFFFFFC
0FFFFFFFFC
0FFFFFFFFC
0FFFFFFFFC
1FFFC0FFFC
1FFF807FFC
1FFF003FF8
1FFF003FF8
1FFF003FF0
1FFF003FE0
1FFF801F80
1FFFC00000
1FFFF00000
0FFFFC0000
0FFFFF8000
0FFFFFE000
07FFFFF800
03FFFFFE00
01FFFFFF00
00FFFFFF80
007FFFFFC0
001FFFFFE0
0007FFFFF0
0001FFFFF0
00003FFFF0
00000FFFF8
000007FFF8
000003FFF8
000003FFF8
1E0003FFF8
3F8003FFF8
7FF007FFF8
7FFFFFFFF0
FFFFFFFFF0
FFFFFFFFF0
FFFFFFFFE0
FFFFFFFFE0
FFFFFFFFC0
7FFFFFFF80
3FFFFFFF00
0FFFFFFC00
01FFFFF000
000FFF0000
ENDCHAR
STARTCHAR 0074
ENCODING 116
SWIDTH 405 0
DWIDTH 36 0
BBX 33 63 2 -1
BITMAP
000FC00000
000FF00000
001FF80000
001FF80000
003FFC0000
003FFC0000
007FFC0000
007FFC0000
007FFC0000
00FFFC0000
00FFFC0000
00FFFC0000
01FFFC0000
0FFFFFFF00
3FFFFFFF80
7FFFFFFF80
7FFFFFFF00
7FFFFFFF00
7FFFFFFF00
7FFFFFFF00
FFFFFFFF00
FFFFFFFF00
FFFFFFFE00
FFFFFFFE00
FFFFFFF800
03FFF80000
03FFF80000
03FFF80000
03FFF80000
03FFF00000
03FFF00000
07FFF00000
07FFF00000
07FFF00000
07FFF00000
07FFF00000
07FFF00000
07FFF00000
07FFF00000
07FFF00000
07FFE00000
07FFE00000
07FFE00000
0FFFE00000
0FFFE00000
0FFFE00000
0FFFE00000
0FFFE00000
0FFFE00000
0FFFE07000
0FFFF0F000
0FFFFFF000
0FFFFFF000
0FFFFFF000
0FFFFFF000
0FFFFFF000
07FFFFF000
07FFFFE000
03FFFFE000
01FFFFC000
00FFFF8000
007FFF0000
000FF80000
ENDCHAR
STARTCHAR 0075
ENCODING 117
SWIDTH 596 0
DWIDTH 53 0
BBX 45 50 4 -1
BITMAP
1FF00000FF00
3FFC0001FFE0
3FFE0001FFF0
3FFF0001FFF0
3FFF0001FFF8
3FFF0001FFF8
3FFF8001FFF8
3FFF8001FFF8
3FFF8003FFF8
3FFF8003FFF8
7FFF8003FFF8
7FFF0003FFF8
7FFF0003FFF8
7FFF0003FFF8
7FFF0003FFF8
7FFF0003FFF8
7FFF0003FFF8
7FFF0003FFF8
7FFF0003FFF8
7FFF0003FFF8
7FFF0007FFF0
7FFF0007FFF0
7FFF0007FFF0
7FFE0007FFF0
7FFE0007FFF0
FFFE0007FFF0
FFFE0007FFF0
FFFE000FFFF0
FFFE000FFFF0
FFFE000FFFF0
FFFE000FFFF0
FFFE001FFFF0
FFFE001FFFF0
FFFE003FFFF0
FFFE003FFFE0
FFFF007FFFE0
FFFF80FFFFE0
FFFFC1FFFFE0
FFFFFFFFFFE0
FFFFFFFFFFE0
7FFFFFFFFFE0
7FFFFFFFFFE0
7FFFFFFFFFE0
3FFFFFEFFFE0
1FFFFFCFFFE0
1FFFFF87FFE0
0FFFFF03FFE0
03FFFE01FFC0
01FFF8007FC0
003FC0000000
ENDCHAR
STARTCHAR 0076
ENCODING 118
SWIDTH 562 0
DWIDTH 50 0
BBX 48 49 1 0
BITMAP
7FE00000FFC0
FFFE0000FFF8
FFFF0001FFFE
FFFF8001FFFF
7FFFC001FFFF
7FFFC001FFFF
7FFFE003FFFF
3FFFE003FFFE
3FFFE003FFFE
3FFFE003FFFE
3FFFE003FFFE
1FFFE007FFFC
1FFFF007FFFC
1FFFF007FFFC
0FFFF007FFF8
0FFFF00FFFF8
0FFFF00FFFF8
07FFF00FFFF0
07FFF00FFFF0
07FFF80FFFE0
03FFF81FFFE0
03FFF81FFFE0
03FFF81FFFC0
03FFF81FFFC0
01FFF83FFF80
01FFF83FFF80
01FFF83FFF00
00FFFC3FFF00
00FFFC7FFF00
00FFFC7FFE00
007FFC7FFE00
007FFC7FFC00
007FFCFFFC00
007FFCFFF800
003FFEFFF800
003FFEFFF000
003FFFFFF000
001FFFFFE000
001FFFFFE000
001FFFFFC000
000FFFFFC000
000FFFFF8000
000FFFFF8000
000FFFFF0000
0007FFFF0000
0007FFFE0000
0003FFFE0000
0001FFFC0000
0000FFF80000
ENDCHAR
STARTCHAR 0077
ENCODING 119
SWIDTH 843 0
DWIDTH 75 0
BBX 73 49 1 0
BITMAP
7FE00007FF00003FF000
7FFE000FFFE0007FFC00
FFFF000FFFF000FFFF00
7FFF801FFFF800FFFF00
7FFFC01FFFFC00FFFF80
7FFFC01FFFFE00FFFF80
7FFFC01FFFFE00FFFF80
3FFFC01FFFFE00FFFF00
3FFFE03FFFFE00FFFF00
3FFFE03FFFFE01FFFF00
3FFFE03FFFFF01FFFF00
1FFFE03FFFFF01FFFE00
1FFFE03FFFFF01FFFE00
1FFFE03FF7FF01FFFE00
1FFFE07FF7FF01FFFC00
0FFFE07FE7FF03FFFC00
0FFFE07FE7FF03FFFC00
0FFFE07FE7FF03FFF800
0FFFE07FE7FF03FFF800
07FFE07FE7FF83FFF800
07FFE0FFE7FF83FFF000
07FFE0FFC7FF87FFF000
07FFF0FFC7FF87FFF000
03FFF0FFC7FF87FFE000
03FFF0FFC3FF87FFE000
03FFF1FFC3FF87FFC000
03FFF1FFC3FF87FFC000
01FFF1FF83FF8FFFC000
01FFF1FF83FF8FFF8000
01FFF1FF83FF8FFF8000
01FFF3FF83FF8FFF0000
00FFF3FF83FFCFFF0000
00FFF3FF01FFCFFF0000
00FFF3FF01FFDFFE0000
00FFF3FF01FFDFFE0000
007FF7FF01FFDFFC0000
007FF7FF01FFDFFC0000
007FF7FF01FFDFFC0000
007FFFFE00FFFFF80000
003FFFFE00FFFFF80000
003FFFFE00FFFFF00000
003FFFFE00FFFFF00000
001FFFFE00FFFFF00000
001FFFFC007FFFE00000
001FFFFC007FFFE00000
000FFFFC007FFFC00000
0007FFFC003FFFC00000
0003FFF8001FFF800000
00007FF80007FF800000
ENDCHAR
STARTCHAR 0078
ENCODING 120
SWIDTH 551 0
DWIDTH 49 0
BBX 46 51 1 -1
BITMAP
000000000600
0FF800000F80
3FFF00000FC0
3FFFC0001FC0
1FFFE0003FE0
1FFFF0003FF0
0FFFF8007FF0
07FFF8007FF8
07FFFC00FFF8
03FFFC01FFF8
03FFFE01FFF8
01FFFE03FFF8
00FFFF03FFF8
00FFFF07FFF8
007FFF87FFF8
007FFF8FFFF0
003FFFDFFFE0
001FFFFFFFE0
001FFFFFFFC0
000FFFFFFF00
000FFFFFFE00
0007FFFFFC00
0003FFFFF800
0003FFFFF000
0001FFFFC000
0001FFFF8000
0001FFFF0000
0007FFFF0000
000FFFFF8000
003FFFFFC000
007FFFFFC000
01FFFFFFE000
03FFFFFFF000
07FFFFFFF000
1FFFFFFFF800
1FFFF3FFFC00
3FFFE3FFFE00
7FFFC1FFFE00
7FFFC1FFFF00
FFFF80FFFF80
FFFF00FFFF80
FFFE007FFFC0
FFFE007FFFE0
FFFC003FFFE0
FFF8003FFFF0
7FF8001FFFF8
7FF0000FFFF8
3FE00007FFFC
1FE00001FFFC
0FC000007FF8
038000000000
ENDCHAR
STARTCHAR 0079
ENCODING 121
SWIDTH 607 0
DWIDTH 54 0
BBX 47 67 3 -17
BITMAP
038000001C00
0FFC00007FF0
1FFF00007FF8
1FFF80007FFC
1FFF80007FFC
1FFF80007FFE
1FFF8000FFFE
1FFFC000FFFE
1FFFC000FFFE
1FFFC000FFFE
1FFFC000FFFE
3FFFC000FFFE
3FFF8000FFFE
3FFF8000FFFE
3FFF8000FFFE
3FFF8000FFFE
3FFF8000FFFE
3FFF8000FFFE
3FFF8001FFFE
3FFF8001FFFC
3FFF8001FFFC
3FFF8001FFFC
3FFF0001FFFC
3FFF0001FFFC
7FFF0001FFFC
7FFF0003FFFC
7FFF0003FFFC
7FFF0003FFFC
7FFF0007FFFC
7FFF0007FFFC
7FFF000FFFFC
7FFF000FFFFC
7FFF801FFFF8
7FFFC03FFFF8
3FFFE0FFFFF8
3FFFFFFFFFF8
3FFFFFFFFFF8
3FFFFFFFFFF8
3FFFFFFFFFF8
1FFFFFFFFFF8
1FFFFFFBFFF8
0FFFFFFBFFF8
07FFFFF3FFF8
03FFFFE3FFF8
01FFFF83FFF8
00FFFF03FFF8
001FF807FFF0
00000007FFF0
00000007FFF0
00000007FFF0
07C0000FFFF0
1FC0000FFFF0
3FE0001FFFF0
7FF0003FFFE0
FFF8007FFFE0
FFFE01FFFFC0
FFFFFFFFFFC0
FFFFFFFFFF80
FFFFFFFFFF80
7FFFFFFFFF00
7FFFFFFFFE00
3FFFFFFFFC00
1FFFFFFFF800
07FFFFFFE000
01FFFFFFC000
007FFFFE0000
0003FFE00000
ENDCHAR
STARTCHAR 007A
ENCODING 122
SWIDTH 517 0
DWIDTH 46 0
BBX 44 49 0 0
BITMAP
007FFFFFFFF0
01FFFFFFFFF0
01FFFFFFFFF0
03FFFFFFFFF0
03FFFFFFFFF0
03FFFFFFFFF0
03FFFFFFFFF0
03FFFFFFFFF0
03FFFFFFFFE0
03FFFFFFFFE0
03FFFFFFFFC0
03FFFFFFFF80
000001FFFF80
000003FFFF00
000007FFFE00
000007FFFC00
00000FFFF800
00001FFFF000
00001FFFF000
00003FFFE000
00007FFFC000
0000FFFF8000
0001FFFF0000
0001FFFF0000
0003FFFE0000
0007FFFC0000
000FFFF80000
001FFFF00000
003FFFF00000
003FFFE00000
007FFFC00000
00FFFF800000
01FFFF000000
03FFFF000000
07FFFE000000
07FFFC000000
0FFFF8000000
1FFFFFFFFF80
3FFFFFFFFF80
3FFFFFFFFF80
7FFFFFFFFF80
7FFFFFFFFF80
FFFFFFFFFF80
FFFFFFFFFF80
FFFFFFFFFF80
FFFFFFFFFF80
FFFFFFFFFF00
FFFFFFFFFE00
FFFFFFFFFC00
ENDCHAR
STARTCHAR 007B
ENCODING 123
SWIDTH 450 0
DWIDTH 40 0
BBX 41 82 0 -16
BITMAP
0000007FFF00
000007FFFF00
00001FFFFF80
00003FFFFF80
00007FFFFF00
0000FFFFFF00
0001FFFFFF00
0003FFFFFF00
0003FFFFFF00
0007FFFFFF00
0007FFFFFE00
0007FFFFF800
000FFFFC0000
000FFFF00000
000FFFE00000
000FFFC00000
000FFFC00000
000FFFC00000
000FFF800000
001FFF800000
001FFF800000
001FFF800000
001FFF800000
001FFF800000
001FFF000000
001FFF000000
003FFF000000
003FFF000000
003FFF000000
007FFF000000
007FFE000000
00FFFE000000
01FFFC000000
07FFFC000000
7FFFF8000000
7FFFF8000000
7FFFF0000000
7FFFE0000000
7FFFC0000000
7FFF00000000
FFFFC0000000
FFFFE0000000
FFFFF0000000
FFFFF8000000
FFFFF8000000
FFFFFC000000
FFFFFC000000
07FFFC000000
03FFFC000000
01FFFC000000
00FFFE000000
00FFFE000000
007FFE000000
007FFE000000
007FFE000000
007FFE000000
007FFE000000
007FFE000000
007FFE000000
007FFE000000
007FFE000000
007FFE000000
007FFE000000
007FFE000000
007FFE000000
007FFF000000
007FFF000000
007FFF800000
007FFFE00000
007FFFFFE000
007FFFFFE000
007FFFFFE000
003FFFFFE000
003FFFFFE000
003FFFFFE000
001FFFFFE000
001FFFFFE000
000FFFFFE000
0007FFFFE000
0003FFFFC000
0001FFFFC000
00003FFF0000
ENDCHAR
STARTCHAR 007C
ENCODING 124
SWIDTH 270 0
DWIDTH 24 0
BBX 18 80 3 -17
BITMAP
07F800
07FE00
07FF00
07FF80
07FF80
07FFC0
07FFC0
07FFC0
0FFFC0
0FFFC0
0FFFC0
0FFFC0
0FFFC0
0FFFC0
0FFFC0
0FFFC0
0FFF80
0FFF80
0FFF80
0FFF80
0FFF80
1FFF80
1FFF80
1FFF80
1FFF80
1FFF80
1FFF80
1FFF80
1FFF80
1FFF80
1FFF00
1FFF00
1FFF00
1FFF00
1FFF00
3FFF00
3FFF00
3FFF00
3FFF00
3FFF00
3FFF00
3FFF00
3FFF00
3FFE00
3FFE00
3FFE00
3FFE00
3FFE00
7FFE00
7FFE00
7FFE00
7FFE00
7FFE00
7FFE00
7FFE00
7FFE00
7FFC00
7FFC00
7FFC00
7FFC00
7FFC00
FFFC00
FFFC00
FFFC00
FFFC00
FFFC00
FFFC00
FFFC00
FFFC00
FFF800
FFF800
FFF800
FFF800
FFF800
FFF800
FFF800
7FF800
7FF800
1FF800
07F000
ENDCHAR
STARTCHAR 007D
ENCODING 125
SWIDTH 450 0
DWIDTH 40 0
BBX 40 83 -1 -17
BITMAP
007FFC0000
01FFFF8000
03FFFFE000
03FFFFF000
03FFFFF800
07FFFFF800
07FFFFFC00
07FFFFFC00
07FFFFFE00
07FFFFFE00
07FFFFFE00
07FFFFFE00
07FFFFFE00
0003FFFE00
0001FFFE00
0000FFFF00
00007FFF00
00007FFF00
00007FFF00
00003FFE00
00003FFE00
00003FFE00
00003FFE00
00003FFE00
00003FFE00
00003FFE00
00003FFE00
00003FFE00
00003FFF00
00003FFF00
00003FFF00
00003FFF00
00003FFF80
00003FFFC0
00003FFFF0
00001FFFFF
00001FFFFF
00001FFFFF
00000FFFFF
000007FFFF
000007FFFF
000001FFFF
0000007FFF
000001FFFF
000003FFFF
000007FFFF
00000FFFFF
00001FFFFE
00001FFFE0
00003FFFC0
00003FFF80
00007FFF00
00007FFE00
00007FFE00
00007FFE00
0000FFFC00
0000FFFC00
0000FFFC00
0000FFFC00
0000FFF800
0000FFF800
0000FFF800
0001FFF800
0001FFF800
0001FFF800
0001FFF800
0003FFF800
0003FFF000
0007FFF000
000FFFF000
003FFFF000
1FFFFFF000
3FFFFFF000
7FFFFFE000
FFFFFFE000
FFFFFFC000
FFFFFF8000
FFFFFF8000
FFFFFF0000
FFFFFC0000
FFFFF80000
FFFFE00000
7FFE000000
ENDCHAR
STARTCHAR 007E
ENCODING 126
SWIDTH 607 0
DWIDTH 54 0
BBX 45 17 4 17
BITMAP
007FC0000038
03FFF8000078
07FFFE0000F8
0FFFFFC001F8
1FFFFFF003F8
3FFFFFFE07F8
7FFFFFFFFFF8
7FFFFFFFFFF8
7FFFFFFFFFF8
FFFFFFFFFFF0
FFFFFFFFFFF0
FF03FFFFFFE0
FE00FFFFFFE0
FC001FFFFFC0
F80007FFFF00
F00001FFFE00
6000003FF000
ENDCHAR
STARTCHAR 00A0
ENCODING 160
SWIDTH 213 0
DWIDTH 19 0
BBX 0 0 0 0
BITMAP
ENDCHAR
STARTCHAR 00A1
ENCODING 161
SWIDTH 281 0
DWIDTH 25 0
BBX 22 67 1 -17
BITMAP
000FC0
003FF0
00FFF0
00FFF8
01FFF8
01FFFC
03FFFC
03FFFC
03FFFC
03FFFC
03FFF8
03FFF8
03FFF8
01FFF0
01FFE0
00FFC0
003F00
000000
000000
000000
000000
000000
000000
03FC00
03FF00
03FF80
07FFC0
07FFC0
07FFC0
07FFC0
07FFC0
0FFFC0
0FFFC0
0FFFC0
0FFFC0
0FFFC0
0FFFC0
1FFFC0
1FFFC0
1FFFC0
1FFFC0
1FFFC0
3FFFC0
3FFFC0
3FFF80
3FFF80
3FFF80
7FFF80
7FFF80
7FFF80
7FFF80
7FFF80
7FFF80
FFFF80
FFFF80
FFFF80
FFFF80
FFFF00
FFFF00
FFFF00
FFFF00
FFFF00
FFFF00
7FFF00
7FFF00
3FFF00
07FF00
ENDCHAR
STARTCHAR 00A2
ENCODING 162
SWIDTH 506 0
DWIDTH 45 0
BBX 42 68 2 -9
BITMAP
000007C00000
000007F00000
00000FF80000
00000FF80000
00000FF80000
00000FFC0000
00000FFC0000
00000FFC0000
00000FFC0000
00003FFE0000
0001FFFFC000
000FFFFFF000
001FFFFFF800
003FFFFFFC00
00FFFFFFFE00
01FFFFFFFF00
01FFFFFFFF00
03FFFFFFFF80
07FFFFFFFF80
07FFFFFFFF80
0FFFFFFFFF80
1FFFF83FFFC0
1FFFE01FFFC0
1FFFE01FFF80
3FFFC01FFF80
3FFF801FFF80
3FFF800FFF80
7FFF800FFF00
7FFF000FFE00
7FFF000FFC00
7FFF000FF000
7FFF00000000
FFFF00000000
FFFE00000000
FFFE00000000
FFFE00000000
FFFE00000000
FFFE00000000
FFFE00000000
FFFE00000000
FFFF00000000
FFFF00000000
7FFF00000000
7FFF00001800
7FFF80007C00
7FFF8000FC00
7FFFC003FC00
3FFFF00FFC00
3FFFFFFFF800
1FFFFFFFF800
1FFFFFFFF800
0FFFFFFFF000
07FFFFFFF000
07FFFFFFE000
03FFFFFFC000
01FFFFFF8000
007FFFFF0000
001FFFFC0000
0007FFE00000
0001FF800000
0001FF800000
0001FF800000
0000FF800000
0000FF800000
0000FF800000
00007F800000
00007F800000
00001F000000
ENDCHAR
STARTCHAR 00A3
ENCODING 163
SWIDTH 551 0
DWIDTH 49 0
BBX 47 64 1 0
BITMAP
0000007FF800
000007FFFF80
00001FFFFFE0
00007FFFFFF0
0000FFFFFFF8
0001FFFFFFFC
0003FFFFFFFC
0007FFFFFFFE
0007FFFFFFFE
000FFFFFFFFE
000FFFFFFFFE
001FFFFFFFFE
001FFFF07FFE
001FFFE03FFE
001FFFC03FFE
003FFFC03FFC
003FFF803FF8
003FFF803FF0
003FFF803FC0
003FFF800000
003FFF000000
003FFF000000
003FFF000000
003FFF000000
003FFF000000
003FFF000000
03FFFFFFFC00
07FFFFFFFC00
0FFFFFFFFC00
1FFFFFFFFC00
1FFFFFFFFC00
1FFFFFFFFC00
1FFFFFFFF800
1FFFFFFFF800
1FFFFFFFF800
1FFFFFFFF800
1FFFFFFFF000
1FFFFFFFC000
00FFFE000000
00FFFE000000
00FFFE000000
00FFFE000000
00FFFE000000
00FFFE000000
00FFFC000000
00FFFC000000
00FFFC000000
00FFFC000000
01FFF8000000
01FFF0000000
03FFE0000000
07FFC0000000
0FFFFFFFFFE0
3FFFFFFFFFE0
7FFFFFFFFFE0
7FFFFFFFFFE0
7FFFFFFFFFE0
7FFFFFFFFFE0
7FFFFFFFFFC0
7FFFFFFFFFC0
FFFFFFFFFFC0
FFFFFFFFFFC0
FFFFFFFFFF80
FFFFFFFFFE00
ENDCHAR
STARTCHAR 00A4
ENCODING 164
SWIDTH 675 0
DWIDTH 60 0
BBX 55 52 3 0
BITMAP
03C00000000000
0FF00000000010
1FF803FFE00078
3FFC3FFFFE01F8
3FFFFFFFFF83FC
1FFFFFFFFFE7FC
0FFFFFFFFFFFFE
07FFFFFFFFFFFE
07FFFFFFFFFFFE
03FFFFFFFFFFFC
01FFFFFFFFFFFC
03FFFFFFFFFFF8
03FFFFFFFFFFF0
07FFFFFFFFFFC0
07FFFE01FFFF80
0FFFF800FFFF80
0FFFF0007FFF80
1FFFE0003FFF80
1FFFE0003FFF80
1FFFC0003FFFC0
1FFFC0003FFFC0
3FFFC0003FFFC0
3FFF80003FFFC0
3FFF80003FFF80
3FFF80003FFF80
3FFF80003FFF80
3FFF80003FFF80
3FFF80007FFF80
3FFF80007FFF80
3FFFC000FFFF00
3FFFC000FFFF00
3FFFC001FFFF00
3FFFE003FFFE00
1FFFF80FFFFE00
1FFFFFFFFFFC00
1FFFFFFFFFFC00
0FFFFFFFFFF800
0FFFFFFFFFF000
07FFFFFFFFF000
07FFFFFFFFF800
1FFFFFFFFFFC00
1FFFFFFFFFFE00
3FFFFFFFFFFF00
7FFFFFFFFFFF00
FFFFFFFFCFFF80
FFF8FFFC07FFC0
FFF0000003FFC0
7FE0000001FFC0
7F80000000FF00
7F000000007E00
3E000000000000
1C000000000000
ENDCHAR
STARTCHAR 00A5
ENCODING 165
SWIDTH 663 0
DWIDTH 59 0
BBX 53 64 5 0
BITMAP
7FE0000003FE00
FFF8000003FF80
FFFE000007FFE0
FFFF000007FFF0
FFFF800007FFF0
7FFF80000FFFF8
7FFFC0000FFFF0
7FFFC0000FFFF0
3FFFC0001FFFF0
3FFFE0001FFFF0
1FFFE0001FFFE0
1FFFE0003FFFE0
0FFFF0003FFFC0
0FFFF0003FFFC0
0FFFF0007FFFC0
07FFF8007FFF80
07FFF800FFFF80
03FFF800FFFF00
03FFF800FFFF00
01FFFC01FFFE00
01FFFC01FFFE00
01FFFC03FFFC00
00FFFE03FFFC00
00FFFE07FFF800
007FFE07FFF000
007FFF07FFF000
007FFF0FFFFE00
03FFFF0FFFFF00
07FFFF9FFFFF00
07FFFF9FFFFF00
0FFFFFBFFFFF00
0FFFFFFFFFFE00
0FFFFFFFFFFE00
0FFFFFFFFFFE00
0FFFFFFFFFFE00
0FFFFFFFFFFE00
0FFFFFFFFFFC00
0FFFFFFFFFF000
0001FFFFE00000
0000FFFFE00000
0000FFFFC00000
0000FFFF800000
0000FFFF800000
0000FFFF000000
07FFFFFFFFF800
1FFFFFFFFFF800
1FFFFFFFFFF800
3FFFFFFFFFF800
3FFFFFFFFFF800
3FFFFFFFFFF800
3FFFFFFFFFF800
3FFFFFFFFFF800
3FFFFFFFFFF800
3FFFFFFFFFF000
3FFFFFFFFFE000
3FFFFFFFFF8000
0001FFFE000000
0001FFFE000000
0001FFFE000000
0000FFFE000000
0000FFFE000000
00007FFE000000
00003FFE000000
00000FFC000000
ENDCHAR
STARTCHAR 00A6
ENCODING 166
SWIDTH 270 0
DWIDTH 24 0
BBX 18 80 3 -17
BITMAP
07F800
07FE00
07FF00
07FF80
07FF80
07FFC0
0FFFC0
0FFFC0
0FFFC0
0FFFC0
0FFFC0
0FFFC0
0FFFC0
0FFFC0
0FFFC0
0FFF80
0FFF80
0FFF80
0FFF80
1FFF80
1FFF80
1FFF80
1FFF80
1FFF80
1FFF80
1FFF80
1FFF80
1FFF80
1FFF80
1FFF00
1FFF00
0FFF00
07FF00
03FF00
00FE00
000000
000000
000000
000000
000000
000000
000000
000000
000000
000000
3FC000
3FF000
3FF800
3FFC00
7FFC00
7FFC00
7FFE00
7FFE00
7FFE00
7FFE00
7FFC00
7FFC00
7FFC00
7FFC00
7FFC00
7FFC00
7FFC00
FFFC00
FFFC00
FFFC00
FFFC00
FFFC00
FFFC00
FFFC00
FFFC00
FFFC00
FFF800
FFF800
FFF800
FFF800
FFF800
7FF800
7FF800
1FF800
07F000
ENDCHAR
STARTCHAR 00A7
ENCODING 167
SWIDTH 517 0
DWIDTH 46 0
BBX 43 75 1 -11
BITMAP
000001FF8000
00001FFFF800
0000FFFFFC00
0003FFFFFE00
0007FFFFFF00
000FFFFFFF80
001FFFFFFFC0
003FFFFFFFC0
007FFFFFFFC0
007FFFFFFFE0
00FFFFFFFFE0
00FFFFFFFFE0
01FFFE07FFE0
01FFF803FFC0
01FFF003FFC0
01FFF001FF80
01FFE001FF80
01FFE001FF00
01FFF001FC00
01FFF0000000
01FFF8000000
01FFFE000000
01FFFFC00000
00FFFFF00000
00FFFFFF0000
007FFFFFC000
003FFFFFF000
003FFFFFF800
007FFFFFFC00
00FFFFFFFE00
01FFFFFFFF00
03FFBFFFFF00
07FF07FFFF80
0FFE01FFFF80
0FFE007FFF80
1FFE003FFF80
1FFC001FFF80
1FFC000FFF80
1FFC0007FF80
1FFC0007FF80
1FFE0007FF80
1FFE0007FF80
1FFF0007FF00
1FFF800FFF00
1FFFE00FFF00
1FFFF81FFE00
0FFFFE3FFC00
0FFFFFFFF800
07FFFFFFF000
07FFFFFFC000
03FFFFFF0000
01FFFFFFC000
007FFFFFE000
001FFFFFE000
0007FFFFF000
0000FFFFF800
00001FFFF800
000007FFF800
000003FFF800
000001FFF800
000001FFF800
7C0001FFF800
7F8003FFF800
7FF007FFF800
7FFFFFFFF800
FFFFFFFFF800
FFFFFFFFF000
FFFFFFFFF000
FFFFFFFFE000
7FFFFFFFC000
3FFFFFFF8000
1FFFFFFF0000
07FFFFFC0000
00FFFFF00000
0007FF800000
ENDCHAR
STARTCHAR 00A8
ENCODING 168
SWIDTH 382 0
DWIDTH 34 0
BBX 34 12 0 55
BITMAP
07E0003E00
1FF801FF80
3FF803FFC0
7FFC07FFC0
FFFC07FFC0
FFFC0FFFC0
FFFC0FFFC0
FFFC0FFFC0
FFF80FFFC0
7FF807FF80
7FF003FF00
1FC001FC00
ENDCHAR
STARTCHAR 00A9
ENCODING 169
SWIDTH 798 0
DWIDTH 71 0
BBX 65 65 3 -1
BITMAP
00000003FFE0000000
0000007FFFFF000000
000003FFFFFFE00000
00001FFFFFFFF80000
00007FFFFFFFFC0000
0000FFFFFFFFFF0000
0003FFFFFFFFFF8000
0007FFFFFFFFFFC000
000FFFFC007FFFE000
001FFFC00007FFF000
003FFE000001FFF800
007FF80000007FF800
00FFF00000003FFC00
01FFC00000000FFC00
03FF800000000FFE00
03FF0001FF0007FE00
07FE000FFFE003FF00
07FE003FFFF003FF00
0FFC007FFFF801FF00
0FF800FFFFFC01FF00
1FF801FFFFFE01FF80
1FF003FFFFFE00FF80
3FF007FFFFFE00FF80
3FE007FF8FFE00FF80
3FE00FFF07FE00FF80
3FE00FFE07FE00FF80
7FC00FFC07FE00FF80
7FC01FFC07FC00FF80
7FC01FFC07F800FF80
7FC01FFC03F000FF80
7FC01FF8000000FF80
7FC01FF8000000FF80
FF801FF8000000FF80
FF801FF8000000FF80
FF801FF8000000FF80
FF801FF8000000FF80
FF801FF8000000FF80
FF801FF8000001FF80
FFC01FFC000001FF00
FFC01FFC003801FF00
7FC01FFE00F801FF00
7FC00FFF03F803FF00
7FC00FFFFFF803FE00
7FC00FFFFFF007FE00
7FE007FFFFF007FE00
7FE003FFFFE00FFC00
3FF001FFFFC01FFC00
3FF000FFFF801FF800
3FF8007FFE003FF800
1FFC000FF0007FF000
1FFC00000000FFF000
0FFF00000003FFE000
0FFF80000007FFC000
07FFE000001FFF8000
07FFF800007FFF0000
03FFFF8007FFFE0000
01FFFFFFFFFFFC0000
00FFFFFFFFFFF80000
007FFFFFFFFFF00000
003FFFFFFFFFC00000
000FFFFFFFFF800000
0007FFFFFFFE000000
0000FFFFFFF0000000
00003FFFFF80000000
000001FFF800000000
ENDCHAR
STARTCHAR 00AA
ENCODING 170
SWIDTH 393 0
DWIDTH 35 0
BBX 29 29 4 35
BITMAP
003FF000
01FFFE00
07FFFF00
0FFFFF80
1FFFFFC0
1FFFFFE0
1FFFFFE0
1FF87FE0
1FF07FE0
0FE03FE0
00003FE0
001FFFE0
01FFFFE0
07FFFFE0
0FFFFFE0
1FFFFFE0
3FF87FE0
7FE07FE0
7FE0FFE0
FFC0FFE0
FFC1FFE0
FFE3FFF0
FFFFFFF8
FFFFFFF8
FFFFFFF8
7FFFFFF8
7FFF7FF0
1FFC3FE0
07F00F80
ENDCHAR
STARTCHAR 00AB
ENCODING 171
SWIDTH 663 0
DWIDTH 59 0
BBX 52 41 3 4
BITMAP
000001C0000070
00000FC00001F0
00001FC00007F0
00007FC0001FF0
0001FFC0003FF0
0007FFC000FFF0
000FFF8003FFF0
003FFF8007FFF0
007FFF801FFFF0
01FFFF803FFFF0
03FFFF80FFFFE0
0FFFFF01FFFFE0
1FFFFF03FFFFC0
3FFFFE0FFFFFC0
7FFFFC0FFFFF80
7FFFF81FFFFE00
7FFFE01FFFF800
FFFF001FFFE000
FFFC001FFF8000
FFE0001FFC0000
FE00001FC00000
FF80001FF00000
FFE0001FFC0000
FFF8001FFF0000
FFFE001FFFC000
FFFFC01FFFF000
FFFFF01FFFFE00
7FFFFC1FFFFF80
7FFFFF0FFFFFC0
3FFFFF07FFFFC0
1FFFFF03FFFFC0
0FFFFF01FFFFC0
03FFFE00FFFFC0
01FFFE007FFFC0
00FFFE001FFFC0
007FFE000FFFC0
003FFE0007FF80
000FFC0003FF80
0007FC0000FF80
0001F800003F00
00007000001E00
ENDCHAR
STARTCHAR 00AC
ENCODING 172
SWIDTH 618 0
DWIDTH 55 0
BBX 46 26 3 5
BITMAP
0FFFFFFFFFFC
3FFFFFFFFFFC
7FFFFFFFFFFC
7FFFFFFFFFFC
7FFFFFFFFFFC
7FFFFFFFFFFC
FFFFFFFFFFFC
FFFFFFFFFFFC
FFFFFFFFFFFC
FFFFFFFFFFFC
FFFFFFFFFFFC
FFFFFFFFFFFC
000000003FF8
000000003FF8
000000003FF8
000000003FF8
000000003FF8
000000003FF8
000000003FF8
000000003FF8
000000003FF8
000000003FF8
000000003FF8
000000001FF8
000000001FF8
0000000007F0
ENDCHAR
STARTCHAR 00AD
ENCODING 173
SWIDTH 461 0
DWIDTH 41 0
BBX 33 12 4 19
BITMAP
0FFFFFFF00
3FFFFFFF80
7FFFFFFF80
7FFFFFFF00
7FFFFFFF00
7FFFFFFF00
7FFFFFFF00
FFFFFFFF00
FFFFFFFF00
FFFFFFFE00
FFFFFFFE00
FFFFFFF800
ENDCHAR
STARTCHAR 00AE
ENCODING 174
SWIDTH 798 0
DWIDTH 71 0
BBX 65 65 3 -1
BITMAP
00000003FFE0000000
0000007FFFFF000000
000003FFFFFFE00000
00001FFFFFFFF80000
00007FFFFFFFFC0000
0000FFFFFFFFFF0000
0003FFFFFFFFFF8000
0007FFFFFFFFFFC000
000FFFFC007FFFE000
001FFFC00007FFF000
003FFE000001FFF800
007FF80000007FF800
00FFF00000003FFC00
01FFC00000000FFC00
03FF800000000FFE00
03FF0007FE0007FE00
07FE01FFFF8003FF00
07FE01FFFFE003FF00
0FFC03FFFFF001FF00
0FF803FFFFF001FF00
1FF803FFFFF801FF80
1FF003FFFFF800FF80
3FF003FC0FFC00FF80
3FE003FC07FC00FF80
3FE003FC07FC00FF80
3FE007FC07FC00FF80
7FC007FC07FC00FF80
7FC007FC07FC00FF80
7FC007FC07FC00FF80
7FC007FC07FC00FF80
7FC007FC0FFC00FF80
7FC007FC1FF800FF80
FF8007FFFFF800FF80
FF8007FFFFF000FF80
FF8007FFFFF000FF80
FF8007FFFFE000FF80
FF8007FFFFC000FF80
FF800FFFFF0001FF80
FFC00FFFFF8001FF00
FFC00FF8FF8001FF00
7FC00FF87FC001FF00
7FC00FF87FE003FF00
7FC00FF87FF003FE00
7FC00FF87FF007FE00
7FE00FF83FF807FE00
7FE00FF83FFC0FFC00
3FF00FF81FFC1FFC00
3FF00FF81FFC1FF800
3FF807F80FF83FF800
1FFC01F007E07FF000
1FFC00000000FFF000
0FFF00000003FFE000
0FFF80000007FFC000
07FFE000001FFF8000
07FFF800007FFF0000
03FFFF8007FFFE0000
01FFFFFFFFFFFC0000
00FFFFFFFFFFF80000
007FFFFFFFFFF00000
003FFFFFFFFFC00000
000FFFFFFFFF800000
0007FFFFFFFE000000
0000FFFFFFF0000000
00003FFFFF80000000
000001FFF800000000
ENDCHAR
STARTCHAR 00AF
ENCODING 175
SWIDTH 382 0
DWIDTH 34 0
BBX 32 10 1 54
BITMAP
1FFFFFFF
3FFFFFFF
7FFFFFFF
FFFFFFFF
FFFFFFFF
FFFFFFFF
FFFFFFFE
FFFFFFFE
FFFFFFFC
FFFFFFF0
ENDCHAR
STARTCHAR 00B0
ENCODING 176
SWIDTH 382 0
DWIDTH 34 0
BBX 29 25 4 39
BITMAP
001FF800
00FFFF00
03FFFF80
07FFFFC0
0FFFFFE0
1FFFFFF0
3FFFFFF0
3FFFFFF0
7FF87FF0
7FF03FF8
7FE01FF8
7FC01FF8
7FC01FF0
FFC01FF0
FFC03FF0
FFE03FF0
7FF0FFF0
7FFFFFE0
7FFFFFE0
7FFFFFC0
3FFFFF80
1FFFFF00
0FFFFE00
07FFF800
00FFC000
ENDCHAR
STARTCHAR 00B1
ENCODING 177
SWIDTH 517 0
DWIDTH 46 0
BBX 42 57 1 0
BITMAP
000008000000
00003FC00000
00003FE00000
00003FF00000
00003FF80000
00003FF80000
00003FF80000
00003FF80000
00003FF80000
00003FF80000
00003FF80000
00007FF80000
00007FF80000
00007FF80000
00007FF80000
00007FF80000
01FFFFFFFFC0
07FFFFFFFFC0
0FFFFFFFFFC0
0FFFFFFFFFC0
0FFFFFFFFFC0
0FFFFFFFFFC0
0FFFFFFFFF80
0FFFFFFFFF80
1FFFFFFFFF80
1FFFFFFFFF00
0FFFFFFFFE00
0000FFF00000
0000FFF00000
0000FFF00000
0000FFF00000
0000FFE00000
0000FFE00000
0000FFE00000
0000FFE00000
0000FFE00000
0000FFE00000
0000FFE00000
00007FE00000
00007FE00000
00003FE00000
00000FE00000
000000000000
000000000000
000000000000
000000000000
0FFFFFFFFC00
3FFFFFFFFE00
7FFFFFFFFE00
7FFFFFFFFE00
7FFFFFFFFE00
7FFFFFFFFC00
FFFFFFFFFC00
FFFFFFFFFC00
FFFFFFFFFC00
FFFFFFFFF800
FFFFFFFFE000
ENDCHAR
STARTCHAR 00B2
ENCODING 178
SWIDTH 315 0
DWIDTH 28 0
BBX 25 29 3 35
BITMAP
007FC000
03FFF800
0FFFFC00
1FFFFE00
3FFFFF00
3FFFFF00
3FFFFF80
3FE1FF80
3FC1FF80
3FC1FF00
1F81FF00
0781FF00
0003FE00
000FFC00
001FF800
003FF000
00FFE000
03FFC000
07FF8000
1FFE0000
7FFC0000
FFF00000
FFFFFF00
FFFFFF00
FFFFFF00
FFFFFF00
FFFFFF00
FFFFFE00
7FFFFC00
ENDCHAR
STARTCHAR 00B3
ENCODING 179
SWIDTH 292 0
DWIDTH 26 0
BBX 24 29 2 35
BITMAP
00FFC0
03FFF0
0FFFFC
1FFFFE
1FFFFE
1FFFFE
0FE3FF
07C1FF
0001FE
0001FE
0003FC
03FFF8
07FFF0
07FFF8
07FFFC
0FFFFE
0007FE
0003FE
0001FE
0C01FE
3C03FE
7E07FE
7FFFFC
FFFFFC
FFFFF8
7FFFF0
7FFFE0
3FFF80
0FFC00
ENDCHAR
STARTCHAR 00B4
ENCODING 180
SWIDTH 258 0
DWIDTH 23 0
BBX 21 19 1 55
BITMAP
003C00
007F00
00FFC0
01FFF0
01FFF8
03FFF8
07FFF0
07FFF0
0FFFE0
1FFFC0
1FFF80
3FFF00
7FFC00
7FF800
FFF000
FFE000
7F8000
3F0000
1C0000
ENDCHAR
STARTCHAR 00B5
ENCODING 181
SWIDTH 596 0
DWIDTH 53 0
BBX 47 66 3 -17
BITMAP
0FFC00007FC0
0FFF00007FF0
0FFF80007FF8
0FFFC0007FFC
0FFFC000FFFC
0FFFC000FFFE
1FFFC000FFFE
1FFFC000FFFE
1FFFC000FFFE
1FFFC000FFFE
1FFFC000FFFE
1FFFC000FFFE
1FFFC000FFFE
1FFFC000FFFE
1FFFC000FFFE
1FFFC000FFFE
1FFFC001FFFC
1FFFC001FFFC
1FFFC001FFFC
1FFF8001FFFC
3FFF8001FFFC
3FFF8001FFFC
3FFF8001FFFC
3FFF8001FFFC
3FFF8001FFFC
3FFF8001FFFC
3FFF8001FFFC
3FFF8003FFFC
3FFF8003FFFC
3FFF8003FFF8
3FFF8003FFF8
3FFF0007FFF8
3FFF8007FFF8
3FFF8007FFF8
3FFF800FFFF8
7FFF801FFFF8
7FFFC03FFFF8
7FFFE07FFFF8
7FFFFFFFFFF8
7FFFFFFFFFF8
7FFFFFFFFFF8
7FFFFFFFFFF8
7FFFFFFBFFF8
7FFFFFFBFFF0
7FFFFFF3FFF0
7FFFFFF1FFF0
7FFFFFE1FFF0
7FFFFFC0FFF0
7FFDFF001FF0
FFFC7C000000
FFFC00000000
FFFC00000000
FFFC00000000
FFFC00000000
FFFC00000000
FFFC00000000
FFFC00000000
FFFC00000000
FFFC00000000
FFFC00000000
FFFC00000000
FFFC00000000
7FFC00000000
7FFC00000000
3FFC00000000
07FC00000000
ENDCHAR
STARTCHAR 00B6
ENCODING 182
SWIDTH 585 0
DWIDTH 52 0
BBX 44 64 4 0
BITMAP
0003FFFFFFF0
001FFFFFFFF0
00FFFFFFFFF0
01FFFFFFFFF0
03FFFFFFFFF0
07FFFFFFFFF0
0FFFFFFFFFF0
1FFFFFFF1FF0
3FFFFFFE1FF0
3FFFFFFE1FF0
7FFFFFFE1FF0
7FFFFFFE1FF0
7FFFFFFE3FF0
FFFFFFFE3FE0
FFFFFFFE3FE0
FFFFFFFE3FE0
FFFFFFFE3FE0
FFFFFFFE3FE0
FFFFFFFE3FE0
FFFFFFFE3FE0
FFFFFFFC3FE0
FFFFFFFC3FE0
FFFFFFFC3FE0
FFFFFFFC3FE0
FFFFFFFC3FE0
FFFFFFFC7FC0
FFFFFFFC7FC0
7FFFFFFC7FC0
7FFFFFFC7FC0
3FFFFFFC7FC0
3FFFFFFC7FC0
1FFFFFFC7FC0
0FFFFFF87FC0
07FFFFF87FC0
03FFFFF87FC0
00FFFFF87FC0
000FFFF87FC0
00000FF87FC0
00000FF87FC0
00000FF8FF80
00000FF8FF80
00000FF8FF80
00000FF8FF80
00000FF8FF80
00000FF8FF80
00000FF8FF80
00001FF0FF80
00001FF0FF80
00001FF0FF80
00001FF0FF80
00001FF0FF80
00001FF0FF80
00001FF0FF80
00001FF1FF00
00001FF1FF00
00001FF1FF00
00001FF1FF00
00001FF1FF00
00001FF0FF00
00001FF0FF00
00000FE0FF00
00000FE07F00
000007E07F00
000003E01E00
ENDCHAR
STARTCHAR 00B7
ENCODING 183
SWIDTH 258 0
DWIDTH 23 0
BBX 16 17 3 16
BITMAP
03F8
0FFC
1FFE
3FFF
7FFF
7FFF
7FFF
7FFF
FFFF
FFFF
FFFF
7FFE
7FFE
7FFC
3FFC
3FF8
0FE0
ENDCHAR
STARTCHAR 00B8
ENCODING 184
SWIDTH 225 0
DWIDTH 20 0
BBX 19 20 1 -17
BITMAP
07E000
07E000
07E000
0FC000
0FC000
0FC000
1FFC00
1FFF80
1FFFC0
07FFC0
00FFC0
007FE0
403FE0
F07FC0
FFFFC0
FFFFC0
FFFF80
FFFF00
7FFC00
0FF000
ENDCHAR
STARTCHAR 00B9
ENCODING 185
SWIDTH 213 0
DWIDTH 19 0
BBX 14 29 3 35
BITMAP
07F8
0FFC
3FFC
7FFC
FFFC
FFFC
FFFC
7FFC
7FFC
07FC
07FC
07FC
07FC
07FC
07FC
07FC
0FF8
0FF8
0FF8
0FF8
0FF8
0FF8
0FF8
0FF8
0FF8
0FF8
0FF8
0FF8
07F8
ENDCHAR
STARTCHAR 00BA
ENCODING 186
SWIDTH 393 0
DWIDTH 35 0
BBX 30 30 4 34
BITMAP
000FFC00
007FFF00
01FFFFC0
03FFFFE0
07FFFFF0
0FFFFFF0
1FFFFFF8
3FFFFFF8
3FFC3FF8
7FF01FFC
7FF01FFC
7FE01FFC
7FE01FFC
7FE01FFC
FFE01FFC
FFE01FFC
FFE01FF8
FFE01FF8
FFE01FF8
7FE03FF8
7FF07FF0
7FF8FFF0
7FFFFFE0
7FFFFFE0
3FFFFFC0
1FFFFF80
1FFFFF00
0FFFFE00
03FFF800
007FC000
ENDCHAR
STARTCHAR 00BB
ENCODING 187
SWIDTH 663 0
DWIDTH 59 0
BBX 53 41 3 4
BITMAP
07800000700000
0FE00000FC0000
0FF00001FF0000
1FFC0001FF8000
1FFE0003FFC000
1FFF0003FFF000
3FFFC003FFF800
3FFFE003FFFC00
3FFFF007FFFE00
3FFFF807FFFF00
3FFFFC07FFFF80
3FFFFE07FFFFC0
3FFFFF07FFFFE0
3FFFFF87FFFFF0
1FFFFF81FFFFF8
03FFFFC07FFFF8
007FFFC00FFFF8
001FFF8003FFF8
0003FF80007FF8
0000FF80001FF8
00003F800003F8
0000FF80001FF0
0007FF8000FFF0
001FFF8003FFF0
00FFFF800FFFF0
03FFFF803FFFF0
07FFFF80FFFFF0
1FFFFF01FFFFE0
3FFFFE03FFFFC0
3FFFF807FFFF80
7FFFF007FFFE00
7FFFC00FFFFC00
FFFF800FFFF000
FFFE000FFFE000
FFFC001FFF8000
FFF0001FFF0000
FFE0001FFC0000
FF80001FF00000
FE00001FC00000
F800001F000000
E000001C000000
ENDCHAR
STARTCHAR 00BC
ENCODING 188
SWIDTH 697 0
DWIDTH 62 0
BBX 55 65 4 -1
BITMAP
07F8000001F800
0FFC000003F800
1FFC000007F800
7FFE00000FF800
FFFE00000FF800
FFFC00001FF800
7FFC00001FF800
7FFC00003FF000
3FFC00007FF000
07FC00007FE000
07FC0000FFC000
07FC0001FFC000
07FC0001FF8000
07FC0003FF8000
07FC0003FF0000
07FC0007FE0000
07FC000FFE0000
07FC000FFC0000
07FC001FF80000
0FFC003FF80000
0FF8003FF00000
0FF8007FF00000
0FF8007FE00000
0FF800FFC00000
0FF801FFC00000
0FF801FF800000
0FF803FF800000
07F807FF000000
03F807FE000000
00000FFE000000
00000FFC000000
00001FF8000000
00003FF8000000
00003FF0000000
00007FF0000000
00007FE03F83F8
0000FFC03FC3FC
0001FFC03FC3FE
0001FF803FC3FE
0003FF007FC3FE
0007FF007FC3FE
0007FE007FC3FE
000FFE007FC3FE
000FFC00FF83FE
001FF800FF87FC
003FF800FF87FC
003FF000FF87FC
007FE001FF07FC
007FE001FF07FC
00FFC001FF07FC
01FFC001FFFFFC
01FF8003FFFFFC
03FF0003FFFFFC
03FF0003FFFFFC
07FE0003FFFFFC
0FFE0001FFFFFC
0FFC00000007FC
1FF80000000FFC
1FF80000000FF8
3FF00000000FF8
3FE00000000FF8
3FE00000000FF8
3FC000000007F8
3F8000000003F8
1F000000000000
ENDCHAR
STARTCHAR 00BD
ENCODING 189
SWIDTH 697 0
DWIDTH 62 0
BBX 54 65 4 -1
BITMAP
07F8000001F800
0FFC000003F800
1FFC000007F800
7FFE00000FF800
FFFE00000FF800
FFFC00001FF800
7FFC00001FF800
7FFC00003FF000
3FFC00007FF000
07FC00007FE000
07FC0000FFC000
07FC0001FFC000
07FC0001FF8000
07FC0003FF8000
07FC0003FF0000
07FC0007FE0000
07FC000FFE0000
07FC000FFC0000
07FC001FF80000
0FFC003FF80000
0FF8003FF00000
0FF8007FF00000
0FF8007FE00000
0FF800FFC00000
0FF801FFC00000
0FF801FF800000
0FF803FF800000
07F807FF000000
03F807FE000000
00000FFE000000
00000FFC000000
00001FF8000000
00003FF8000000
00003FF0000000
00007FF0000000
00007FE001FF00
0000FFC00FFFC0
0001FFC03FFFF0
0001FF807FFFF8
0003FF00FFFFF8
0007FF00FFFFFC
0007FE01FFFFFC
000FFE01FF0FFC
000FFC01FF07FC
001FF800FE07FC
003FF800FE07FC
003FF0003C0FF8
007FE000001FF8
007FE000003FF0
00FFC000007FE0
01FFC00001FFC0
01FF800003FF80
03FF00000FFF00
03FF00003FFC00
07FE0000FFF800
0FFE0001FFE000
0FFC0003FF8000
1FF80003FFFFF8
1FF80003FFFFF8
3FF00003FFFFF8
3FE00003FFFFF8
3FE00003FFFFF8
3FC00003FFFFF8
3F800001FFFFF0
1F000000000000
ENDCHAR
STARTCHAR 00BE
ENCODING 190
SWIDTH 731 0
DWIDTH 65 0
BBX 59 65 3 -1
BITMAP
00FFC00000000000
03FFF000001F8000
0FFFFC00003F8000
1FFFFE00007F8000
1FFFFE0000FF8000
1FFFFE0000FF8000
1FC3FE0001FF8000
0FC1FE0003FF0000
0001FE0003FF0000
0001FE0007FE0000
0003FC000FFE0000
07FFF8000FFC0000
07FFF0001FFC0000
07FFF0001FF80000
0FFFFC003FF00000
0FFFFE007FF00000
0007FE007FE00000
0003FE00FFC00000
0001FE01FFC00000
0C03FE01FF800000
3C03FE03FF800000
7E07FE07FF000000
FFFFFC07FE000000
FFFFFC0FFE000000
FFFFF80FFC000000
7FFFF01FF8000000
7FFFC03FF8000000
3FFF803FF0000000
0FFC007FF0000000
000000FFE0000000
000000FFC0000000
000001FFC0000000
000001FF80000000
000003FF00000000
000007FF00000000
000007FE03F83F80
00000FFC03FC3FC0
00001FFC03FC3FE0
00001FF803FC3FE0
00003FF807FC3FE0
00003FF007FC3FE0
00007FE007FC3FE0
0000FFE007FC3FC0
0000FFC00FF83FC0
0001FF800FF87FC0
0003FF800FF87FC0
0003FF000FF87FC0
0007FF001FF07FC0
0007FE001FF07FC0
000FFC001FF07FC0
001FFC001FFFFFC0
001FF8003FFFFFC0
003FF0003FFFFFC0
003FF0003FFFFFC0
007FE0003FFFFFC0
00FFC0001FFFFFC0
00FFC0000000FFC0
01FF80000000FFC0
01FF80000000FF80
03FF00000000FF80
03FE00000000FF80
03FE00000000FF80
03FC000000007F80
03F8000000003F80
01F0000000000000
ENDCHAR
STARTCHAR 00BF
ENCODING 191
SWIDTH 528 0
DWIDTH 47 0
BBX 42 67 0 -17
BITMAP
000000FE0000
000003FF0000
000007FF8000
00000FFF8000
00000FFFC000
00001FFFC000
00001FFFC000
00001FFFC000
00001FFFC000
00001FFFC000
00001FFFC000
00001FFFC000
00001FFF8000
00001FFF8000
00000FFF0000
00000FFE0000
000003F80000
000000000000
000000000000
000000000000
000000000000
000000000000
000000000000
00000FE00000
00001FF80000
00003FFC0000
00003FFC0000
00007FFE0000
0000FFFE0000
0001FFFE0000
0003FFFC0000
0007FFFC0000
000FFFF80000
001FFFF00000
003FFFF00000
007FFFE00000
00FFFFC00000
01FFFF800000
03FFFF000000
07FFFC000000
07FFF8000000
0FFFF0000000
1FFFE0000000
3FFFC0018000
3FFFC003FE00
7FFF8003FF00
7FFF0003FF80
7FFF0007FFC0
FFFF0007FFC0
FFFF0007FFC0
FFFF000FFFC0
FFFF000FFFC0
FFFF001FFFC0
FFFF803FFFC0
FFFFC07FFFC0
7FFFFFFFFFC0
7FFFFFFFFFC0
7FFFFFFFFF80
3FFFFFFFFF80
3FFFFFFFFF00
1FFFFFFFFE00
1FFFFFFFFC00
0FFFFFFFF800
03FFFFFFE000
01FFFFFF8000
007FFFFE0000
0007FFC00000
ENDCHAR
STARTCHAR 00C0
ENCODING 192
SWIDTH 618 0
DWIDTH 55 0
BBX 52 86 1 0
BITMAP
00001000000000
00007800000000
0000FE00000000
0001FF00000000
0003FF80000000
0003FFC0000000
0007FFF0000000
0007FFF8000000
000FFFFC000000
000FFFFE000000
000FFFFF000000
0003FFFF000000
0001FFFE000000
00007FFE000000
00000FFE000000
000001FC000000
00000018000000
00000000000000
00000000000000
00000000000000
00000000000000
00000000000000
000001FF000000
00000FFFE00000
00001FFFF80000
00001FFFFC0000
00003FFFFC0000
00003FFFFE0000
00003FFFFE0000
00007FFFFF0000
00007FFFFF0000
0000FFFFFF0000
0000FFFFFF0000
0001FFFFFF8000
0001FFFFFF8000
0001FFFFFF8000
0003FFEFFF8000
0003FFEFFFC000
0007FFEFFFC000
0007FFCFFFC000
0007FFCFFFC000
000FFFCFFFE000
000FFFCFFFE000
001FFF87FFE000
001FFF87FFE000
001FFF87FFF000
003FFF07FFF000
003FFF07FFF000
007FFF07FFF000
007FFF03FFF800
007FFE03FFF800
00FFFE03FFF800
00FFFE03FFF800
01FFFC03FFFC00
01FFFC03FFFC00
01FFFC01FFFC00
03FFFC01FFFC00
03FFF801FFFE00
03FFF801FFFE00
07FFFFFFFFFE00
07FFFFFFFFFE00
07FFFFFFFFFF00
0FFFFFFFFFFF00
0FFFFFFFFFFF00
0FFFFFFFFFFF00
1FFFFFFFFFFF00
1FFFFFFFFFFF80
1FFFFFFFFFFF80
3FFFFFFFFFFF80
3FFFFFFFFFFF80
3FFFFFFFFFFFC0
7FFFFFFFFFFFC0
7FFFC0007FFFC0
7FFF80007FFFC0
7FFF80007FFFE0
FFFF80003FFFE0
FFFF80003FFFE0
FFFF00003FFFE0
FFFF00003FFFE0
FFFF00003FFFF0
FFFF00001FFFF0
FFFE00001FFFF0
FFFE00000FFFF0
7FFE000007FFF0
3FFE000003FFF0
0FFC0000007FF0
ENDCHAR
STARTCHAR 00C1
ENCODING 193
SWIDTH 618 0
DWIDTH 55 0
BBX 52 86 1 0
BITMAP
00000000070000
000000001FC000
000000003FE000
00000000FFF000
00000001FFF800
00000003FFFC00
00000007FFFE00
0000000FFFFF00
0000001FFFFE00
0000003FFFFC00
0000007FFFF000
000000FFFFE000
0000007FFF8000
0000007FFC0000
0000003FF00000
0000003F800000
00000008000000
00000000000000
00000000000000
00000000000000
00000000000000
00000000000000
000001FF000000
00000FFFE00000
00001FFFF80000
00001FFFFC0000
00003FFFFC0000
00003FFFFE0000
00003FFFFE0000
00007FFFFF0000
00007FFFFF0000
0000FFFFFF0000
0000FFFFFF0000
0001FFFFFF8000
0001FFFFFF8000
0001FFFFFF8000
0003FFEFFF8000
0003FFEFFFC000
0007FFEFFFC000
0007FFCFFFC000
0007FFCFFFC000
000FFFCFFFE000
000FFFCFFFE000
001FFF87FFE000
001FFF87FFE000
001FFF87FFF000
003FFF07FFF000
003FFF07FFF000
007FFF07FFF000
007FFF03FFF800
007FFE03FFF800
00FFFE03FFF800
00FFFE03FFF800
01FFFC03FFFC00
01FFFC03FFFC00
01FFFC01FFFC00
03FFFC01FFFC00
03FFF801FFFE00
03FFF801FFFE00
07FFFFFFFFFE00
07FFFFFFFFFE00
07FFFFFFFFFF00
0FFFFFFFFFFF00
0FFFFFFFFFFF00
0FFFFFFFFFFF00
1FFFFFFFFFFF00
1FFFFFFFFFFF80
1FFFFFFFFFFF80
3FFFFFFFFFFF80
3FFFFFFFFFFF80
3FFFFFFFFFFFC0
7FFFFFFFFFFFC0
7FFFC0007FFFC0
7FFF80007FFFC0
7FFF80007FFFE0
FFFF80003FFFE0
FFFF80003FFFE0
FFFF00003FFFE0
FFFF00003FFFE0
FFFF00003FFFF0
FFFF00001FFFF0
FFFE00001FFFF0
FFFE00000FFFF0
7FFE000007FFF0
3FFE000003FFF0
0FFC0000007FF0
ENDCHAR
STARTCHAR 00C2
ENCODING 194
SWIDTH 618 0
DWIDTH 55 0
BBX 52 86 1 0
BITMAP
0000003FC00000
000001FFE00000
000003FFF00000
000007FFF80000
00000FFFFC0000
00001FFFFE0000
00003FFFFE0000
00007FFFFF0000
0000FFFFFF8000
0001FFFBFFC000
0003FFE1FFE000
0007FFC0FFE000
000FFF007FF000
000FFE003FE000
0007F8001FC000
0003E000078000
00008000010000
00000000000000
00000000000000
00000000000000
00000000000000
00000000000000
000001FF000000
00000FFFE00000
00001FFFF80000
00001FFFFC0000
00003FFFFC0000
00003FFFFE0000
00003FFFFE0000
00007FFFFF0000
00007FFFFF0000
0000FFFFFF0000
0000FFFFFF0000
0001FFFFFF8000
0001FFFFFF8000
0001FFFFFF8000
0003FFEFFF8000
0003FFEFFFC000
0007FFEFFFC000
0007FFCFFFC000
0007FFCFFFC000
000FFFCFFFE000
000FFFCFFFE000
001FFF87FFE000
001FFF87FFE000
001FFF87FFF000
003FFF07FFF000
003FFF07FFF000
007FFF07FFF000
007FFF03FFF800
007FFE03FFF800
00FFFE03FFF800
00FFFE03FFF800
01FFFC03FFFC00
01FFFC03FFFC00
01FFFC01FFFC00
03FFFC01FFFC00
03FFF801FFFE00
03FFF801FFFE00
07FFFFFFFFFE00
07FFFFFFFFFE00
07FFFFFFFFFF00
0FFFFFFFFFFF00
0FFFFFFFFFFF00
0FFFFFFFFFFF00
1FFFFFFFFFFF00
1FFFFFFFFFFF80
1FFFFFFFFFFF80
3FFFFFFFFFFF80
3FFFFFFFFFFF80
3FFFFFFFFFFFC0
7FFFFFFFFFFFC0
7FFFC0007FFFC0
7FFF80007FFFC0
7FFF80007FFFE0
FFFF80003FFFE0
FFFF80003FFFE0
FFFF00003FFFE0
FFFF00003FFFE0
FFFF00003FFFF0
FFFF00001FFFF0
FFFE00001FFFF0
FFFE00000FFFF0
7FFE000007FFF0
3FFE000003FFF0
0FFC0000007FF0
ENDCHAR
STARTCHAR 00C3
ENCODING 195
SWIDTH 618 0
DWIDTH 55 0
BBX 52 85 1 0
BITMAP
00007F80000C00
0001FFF0001E00
0007FFFC003E00
000FFFFE00FE00
001FFFFF81FE00
001FFFFFFFFE00
003FFFFFFFFE00
003FFFFFFFFC00
007FFFFFFFFC00
007FFFFFFFF800
007F83FFFFF800
007E00FFFFF000
007C003FFFE000
0078000FFF8000
00300003FE0000
00000000000000
00000000000000
00000000000000
00000000000000
00000000000000
00000000000000
000007FFC00000
00000FFFF00000
00001FFFF80000
00001FFFFC0000
00003FFFFC0000
00003FFFFE0000
00007FFFFE0000
00007FFFFF0000
00007FFFFF0000
0000FFFFFF0000
0000FFFFFF0000
0001FFFFFF8000
0001FFFFFF8000
0003FFFFFF8000
0003FFEFFF8000
0003FFEFFFC000
0007FFEFFFC000
0007FFCFFFC000
000FFFCFFFC000
000FFFCFFFE000
000FFF87FFE000
001FFF87FFE000
001FFF87FFE000
003FFF87FFF000
003FFF07FFF000
003FFF07FFF000
007FFF07FFF000
007FFF03FFF800
007FFE03FFF800
00FFFE03FFF800
00FFFE03FFF800
01FFFC03FFFC00
01FFFC03FFFC00
01FFFC01FFFC00
03FFFC01FFFC00
03FFF801FFFE00
03FFF801FFFE00
07FFFFFFFFFE00
07FFFFFFFFFE00
07FFFFFFFFFF00
0FFFFFFFFFFF00
0FFFFFFFFFFF00
0FFFFFFFFFFF00
1FFFFFFFFFFF80
1FFFFFFFFFFF80
1FFFFFFFFFFF80
3FFFFFFFFFFF80
3FFFFFFFFFFF80
3FFFFFFFFFFFC0
7FFFFFFFFFFFC0
7FFFC0007FFFC0
7FFF80007FFFC0
7FFF80007FFFE0
FFFF80003FFFE0
FFFF80003FFFE0
FFFF00003FFFE0
FFFF00003FFFE0
FFFF00003FFFF0
FFFF00001FFFF0
FFFE00001FFFF0
FFFE00000FFFF0
7FFE000007FFF0
3FFE000003FFF0
0FFC0000007FF0
ENDCHAR
STARTCHAR 00C4
ENCODING 196
SWIDTH 618 0
DWIDTH 55 0
BBX 52 82 1 0
BITMAP
0000FC0007C000
0003FE003FF000
000FFF007FF800
000FFF80FFF800
001FFF80FFF800
001FFF81FFF800
001FFF81FFF800
001FFF81FFF800
001FFF01FFF000
001FFE00FFF000
000FFC00FFE000
0003F0003F8000
00000000000000
00000000000000
00000000000000
00000000000000
00000000000000
00000000000000
000007FFC00000
00000FFFF00000
00001FFFF80000
00001FFFFC0000
00003FFFFC0000
00003FFFFE0000
00007FFFFE0000
00007FFFFF0000
00007FFFFF0000
0000FFFFFF0000
0000FFFFFF0000
0001FFFFFF8000
0001FFFFFF8000
0003FFFFFF8000
0003FFEFFF8000
0003FFEFFFC000
0007FFEFFFC000
0007FFCFFFC000
000FFFCFFFC000
000FFFCFFFE000
000FFF87FFE000
001FFF87FFE000
001FFF87FFE000
003FFF87FFF000
003FFF07FFF000
003FFF07FFF000
007FFF07FFF000
007FFF03FFF800
007FFE03FFF800
00FFFE03FFF800
00FFFE03FFF800
01FFFC03FFFC00
01FFFC03FFFC00
01FFFC01FFFC00
03FFFC01FFFC00
03FFF801FFFE00
03FFF801FFFE00
07FFFFFFFFFE00
07FFFFFFFFFE00
07FFFFFFFFFF00
0FFFFFFFFFFF00
0FFFFFFFFFFF00
0FFFFFFFFFFF00
1FFFFFFFFFFF80
1FFFFFFFFFFF80
1FFFFFFFFFFF80
3FFFFFFFFFFF80
3FFFFFFFFFFF80
3FFFFFFFFFFFC0
7FFFFFFFFFFFC0
7FFFC0007FFFC0
7FFF80007FFFC0
7FFF80007FFFE0
FFFF80003FFFE0
FFFF80003FFFE0
FFFF00003FFFE0
FFFF00003FFFE0
FFFF00003FFFF0
FFFF00001FFFF0
FFFE00001FFFF0
FFFE00000FFFF0
7FFE000007FFF0
3FFE000003FFF0
0FFC0000007FF0
ENDCHAR
STARTCHAR 00C5
ENCODING 197
SWIDTH 618 0
DWIDTH 55 0
BBX 52 83 1 0
BITMAP
0000003F800000
000000FFE00000
000003FFF00000
000003FFF00000
000007E3F80000
000007E1F80000
000007E1F80000
000007E1F80000
000007E3F00000
000007FFF00000
000003FFE00000
000001FFC00000
000000FF000000
00000000000000
00000000000000
00000000000000
00000000000000
00000000000000
00000000000000
000007FFC00000
00000FFFF00000
00001FFFF80000
00001FFFFC0000
00003FFFFC0000
00003FFFFE0000
00007FFFFE0000
00007FFFFF0000
00007FFFFF0000
0000FFFFFF0000
0000FFFFFF0000
0001FFFFFF8000
0001FFFFFF8000
0003FFFFFF8000
0003FFEFFF8000
0003FFEFFFC000
0007FFEFFFC000
0007FFCFFFC000
000FFFCFFFC000
000FFFCFFFE000
000FFF87FFE000
001FFF87FFE000
001FFF87FFE000
003FFF87FFF000
003FFF07FFF000
003FFF07FFF000
007FFF07FFF000
007FFF03FFF800
007FFE03FFF800
00FFFE03FFF800
00FFFE03FFF800
01FFFC03FFFC00
01FFFC03FFFC00
01FFFC01FFFC00
03FFFC01FFFC00
03FFF801FFFE00
03FFF801FFFE00
07FFFFFFFFFE00
07FFFFFFFFFE00
07FFFFFFFFFF00
0FFFFFFFFFFF00
0FFFFFFFFFFF00
0FFFFFFFFFFF00
1FFFFFFFFFFF80
1FFFFFFFFFFF80
1FFFFFFFFFFF80
3FFFFFFFFFFF80
3FFFFFFFFFFF80
3FFFFFFFFFFFC0
7FFFFFFFFFFFC0
7FFFC0007FFFC0
7FFF80007FFFC0
7FFF80007FFFE0
FFFF80003FFFE0
FFFF80003FFFE0
FFFF00003FFFE0
FFFF00003FFFE0
FFFF00003FFFF0
FFFF00001FFFF0
FFFE00001FFFF0
FFFE00000FFFF0
7FFE000007FFF0
3FFE000003FFF0
0FFC0000007FF0
ENDCHAR
STARTCHAR 00C6
ENCODING 198
SWIDTH 821 0
DWIDTH 73 0
BBX 73 63 -2 0
BITMAP
00000007FFFFFFFFE000
0000000FFFFFFFFFE000
0000001FFFFFFFFFE000
0000003FFFFFFFFFE000
0000003FFFFFFFFFE000
0000007FFFFFFFFFE000
000000FFFFFFFFFFE000
000000FFFFFFFFFFE000
000001FFFFFFFFFFC000
000001FFFFFFFFFFC000
000003FFFFFFFFFF8000
000003FFFFFFFFFF0000
000007FFFFFE00000000
000007FFBFFF00000000
00000FFFBFFF00000000
00000FFFBFFF00000000
00001FFF3FFF00000000
00001FFF3FFF00000000
00003FFE3FFF00000000
00007FFE3FFF00000000
00007FFE3FFF00000000
0000FFFC3FFF80000000
0000FFFC3FFF80000000
0001FFF83FFF80000000
0001FFF83FFFFFFFE000
0003FFF83FFFFFFFF000
0003FFF03FFFFFFFF000
0007FFF03FFFFFFFF000
0007FFE03FFFFFFFF000
000FFFE03FFFFFFFE000
000FFFE03FFFFFFFE000
001FFFC03FFFFFFFE000
001FFFC03FFFFFFFE000
003FFF803FFFFFFFE000
003FFF803FFFFFFFC000
007FFF803FFFFFFF8000
007FFFFFFFFFFFFF0000
007FFFFFFFFFE0000000
00FFFFFFFFFFE0000000
00FFFFFFFFFFE0000000
01FFFFFFFFFFE0000000
01FFFFFFFFFFE0000000
03FFFFFFFFFFE0000000
03FFFFFFFFFFE0000000
07FFFFFFFFFFE0000000
07FFFFFFFFFFE0000000
0FFFFFFFFFFFF0000000
0FFFFFFFFFFFF0000000
0FFFFFFFFFFFF0000000
1FFFE0001FFFF0000000
1FFFE0001FFFF0000000
3FFFE0001FFFFFFFFF00
3FFFC0001FFFFFFFFF80
3FFFC0001FFFFFFFFF80
7FFFC0001FFFFFFFFF00
7FFF80001FFFFFFFFF00
7FFF80001FFFFFFFFF00
FFFF80000FFFFFFFFF00
7FFF00000FFFFFFFFF00
7FFF00000FFFFFFFFF00
7FFE000007FFFFFFFE00
3FFE000003FFFFFFFE00
07FC0000007FFFFFF800
ENDCHAR
STARTCHAR 00C7
ENCODING 199
SWIDTH 618 0
DWIDTH 55 0
BBX 50 81 4 -17
BITMAP
000001FFF00000
00001FFFFE0000
00007FFFFFC000
0001FFFFFFE000
0007FFFFFFF800
000FFFFFFFFC00
001FFFFFFFFE00
003FFFFFFFFF00
007FFFFFFFFF00
00FFFFFFFFFF80
01FFFFFFFFFF80
03FFFFFFFFFF80
03FFFFFFFFFFC0
07FFFFFFFFFFC0
07FFFF81FFFFC0
0FFFFE007FFFC0
0FFFFC007FFFC0
1FFFF8003FFFC0
1FFFF0003FFFC0
3FFFF0003FFFC0
3FFFE0003FFF80
3FFFE0003FFF80
7FFFC0003FFF00
7FFFC0003FFF00
7FFFC0003FFE00
7FFF80003FF800
FFFF80003FE000
FFFF8000000000
FFFF8000000000
FFFF8000000000
FFFF0000000000
FFFF0000000000
FFFF0000000000
FFFF0000000000
FFFF0000000000
FFFF0000000000
FFFF0000000000
FFFF0000000000
FFFF0000000000
FFFF0000000000
FFFF0000000000
FFFF8000000000
FFFF8000000000
FFFF8000000000
FFFF8000003800
FFFFC000007800
7FFFC00001FC00
7FFFE00003FC00
7FFFF0000FF800
7FFFF8001FF800
3FFFFE00FFF800
3FFFFFFFFFF800
1FFFFFFFFFF800
1FFFFFFFFFF800
0FFFFFFFFFF000
0FFFFFFFFFF000
07FFFFFFFFF000
03FFFFFFFFE000
01FFFFFFFFC000
00FFFFFFFF8000
007FFFFFFF0000
003FFFFFFE0000
000FFFFFF80000
0001FFFFE00000
00003FFE000000
00000FC0000000
00000FC0000000
00001FFC000000
00001FFF800000
00001FFFC00000
00000FFFC00000
000001FFC00000
0000007FE00000
0000403FC00000
0000F07FC00000
0000FFFFC00000
0000FFFF800000
0000FFFF800000
0000FFFF000000
00007FFC000000
00001FF0000000
ENDCHAR
STARTCHAR 00C8
ENCODING 200
SWIDTH 506 0
DWIDTH 45 0
BBX 37 86 5 0
BITMAP
0008000000
003C000000
007F000000
00FF800000
01FFC00000
01FFE00000
03FFF80000
03FFFC0000
07FFFE0000
07FFFF0000
07FFFF8000
01FFFF8000
00FFFF0000
003FFF0000
0007FF0000
0000FE0000
00000C0000
0000000000
0000000000
0000000000
0000000000
0000000000
0000000000
0FFFFFFFF8
1FFFFFFFF8
1FFFFFFFF8
1FFFFFFFF8
1FFFFFFFF8
1FFFFFFFF8
1FFFFFFFF8
1FFFFFFFF8
1FFFFFFFF8
1FFFFFFFF0
1FFFFFFFF0
1FFFFFFFC0
1FFFC00000
1FFFC00000
3FFFC00000
3FFFC00000
3FFFC00000
3FFFC00000
3FFFC00000
3FFFC00000
3FFF800000
3FFF800000
3FFF800000
3FFF800000
3FFFFFFE00
3FFFFFFE00
7FFFFFFE00
7FFFFFFE00
7FFFFFFE00
7FFFFFFE00
7FFFFFFE00
7FFFFFFE00
7FFFFFFE00
7FFFFFFC00
7FFFFFFC00
7FFFFFF800
7FFFFFF000
7FFF000000
7FFF000000
7FFF000000
FFFF000000
FFFF000000
FFFF000000
FFFF000000
FFFF000000
FFFF000000
FFFF000000
FFFF000000
FFFF000000
FFFE000000
FFFE000000
FFFFFFFFF0
FFFFFFFFF0
FFFFFFFFF0
FFFFFFFFF0
FFFFFFFFF0
FFFFFFFFF0
FFFFFFFFF0
FFFFFFFFF0
FFFFFFFFF0
7FFFFFFFE0
3FFFFFFFC0
0FFFFFFF80
ENDCHAR
STARTCHAR 00C9
ENCODING 201
SWIDTH 506 0
DWIDTH 45 0
BBX 40 86 5 0
BITMAP
0000000380
0000000FE0
0000001FF0
0000007FF8
000000FFFC
000001FFFE
000003FFFF
000007FFFF
00000FFFFF
00001FFFFE
00003FFFF8
00007FFFF0
00003FFFC0
00003FFE00
00001FF800
00001FC000
0000040000
0000000000
0000000000
0000000000
0000000000
0000000000
0000000000
0FFFFFFFF8
1FFFFFFFF8
1FFFFFFFF8
1FFFFFFFF8
1FFFFFFFF8
1FFFFFFFF8
1FFFFFFFF8
1FFFFFFFF8
1FFFFFFFF8
1FFFFFFFF0
1FFFFFFFF0
1FFFFFFFC0
1FFFC00000
1FFFC00000
3FFFC00000
3FFFC00000
3FFFC00000
3FFFC00000
3FFFC00000
3FFFC00000
3FFF800000
3FFF800000
3FFF800000
3FFF800000
3FFFFFFE00
3FFFFFFE00
7FFFFFFE00
7FFFFFFE00
7FFFFFFE00
7FFFFFFE00
7FFFFFFE00
7FFFFFFE00
7FFFFFFE00
7FFFFFFC00
7FFFFFFC00
7FFFFFF800
7FFFFFF000
7FFF000000
7FFF000000
7FFF000000
FFFF000000
FFFF000000
FFFF000000
FFFF000000
FFFF000000
FFFF000000
FFFF000000
FFFF000000
FFFF000000
FFFE000000
FFFE000000
FFFFFFFFF0
FFFFFFFFF0
FFFFFFFFF0
FFFFFFFFF0
FFFFFFFFF0
FFFFFFFFF0
FFFFFFFFF0
FFFFFFFFF0
FFFFFFFFF0
7FFFFFFFE0
3FFFFFFFC0
0FFFFFFF80
ENDCHAR
STARTCHAR 00CA
ENCODING 202
SWIDTH 506 0
DWIDTH 45 0
BBX 37 86 5 0
BITMAP
00001FE000
0000FFF000
0001FFF800
0003FFFC00
0007FFFE00
000FFFFF00
001FFFFF00
003FFFFF80
007FFFFFC0
00FFFDFFE0
01FFF1FFF0
03FFE07FF0
07FF803FF8
07FF001FF0
03FC000FE0
01F00007C0
0040000080
0000000000
0000000000
0000000000
0000000000
0000000000
0000000000
0FFFFFFFF8
1FFFFFFFF8
1FFFFFFFF8
1FFFFFFFF8
1FFFFFFFF8
1FFFFFFFF8
1FFFFFFFF8
1FFFFFFFF8
1FFFFFFFF8
1FFFFFFFF0
1FFFFFFFF0
1FFFFFFFC0
1FFFC00000
1FFFC00000
3FFFC00000
3FFFC00000
3FFFC00000
3FFFC00000
3FFFC00000
3FFFC00000
3FFF800000
3FFF800000
3FFF800000
3FFF800000
3FFFFFFE00
3FFFFFFE00
7FFFFFFE00
7FFFFFFE00
7FFFFFFE00
7FFFFFFE00
7FFFFFFE00
7FFFFFFE00
7FFFFFFE00
7FFFFFFC00
7FFFFFFC00
7FFFFFF800
7FFFFFF000
7FFF000000
7FFF000000
7FFF000000
FFFF000000
FFFF000000
FFFF000000
FFFF000000
FFFF000000
FFFF000000
FFFF000000
FFFF000000
FFFF000000
FFFE000000
FFFE000000
FFFFFFFFF0
FFFFFFFFF0
FFFFFFFFF0
FFFFFFFFF0
FFFFFFFFF0
FFFFFFFFF0
FFFFFFFFF0
FFFFFFFFF0
FFFFFFFFF0
7FFFFFFFE0
3FFFFFFFC0
0FFFFFFF80
ENDCHAR
STARTCHAR 00CB
ENCODING 203
SWIDTH 506 0
DWIDTH 45 0
BBX 38 82 5 0
BITMAP
007E0003E0
01FF001FF8
07FF803FFC
07FFC07FFC
0FFFC07FFC
0FFFC0FFFC
0FFFC0FFFC
0FFFC0FFFC
0FFF80FFF8
0FFF007FF8
07FE007FF0
01F8001FC0
0000000000
0000000000
0000000000
0000000000
0000000000
0000000000
0000000000
0FFFFFFFF8
1FFFFFFFF8
1FFFFFFFF8
1FFFFFFFF8
1FFFFFFFF8
1FFFFFFFF8
1FFFFFFFF8
1FFFFFFFF8
1FFFFFFFF8
1FFFFFFFF0
1FFFFFFFF0
1FFFFFFFC0
1FFFC00000
1FFFC00000
3FFFC00000
3FFFC00000
3FFFC00000
3FFFC00000
3FFFC00000
3FFFC00000
3FFF800000
3FFF800000
3FFF800000
3FFF800000
3FFFFFFE00
3FFFFFFE00
7FFFFFFE00
7FFFFFFE00
7FFFFFFE00
7FFFFFFE00
7FFFFFFE00
7FFFFFFE00
7FFFFFFE00
7FFFFFFC00
7FFFFFFC00
7FFFFFF800
7FFFFFF000
7FFF000000
7FFF000000
7FFF000000
FFFF000000
FFFF000000
FFFF000000
FFFF000000
FFFF000000
FFFF000000
FFFF000000
FFFF000000
FFFF000000
FFFE000000
FFFE000000
FFFFFFFFF0
FFFFFFFFF0
FFFFFFFFF0
FFFFFFFFF0
FFFFFFFFF0
FFFFFFFFF0
FFFFFFFFF0
FFFFFFFFF0
FFFFFFFFF0
7FFFFFFFE0
3FFFFFFFC0
0FFFFFFF80
ENDCHAR
STARTCHAR 00CC
ENCODING 204
SWIDTH 315 0
DWIDTH 28 0
BBX 24 86 0 0
BITMAP
010000
078000
0FC000
1FF000
3FF800
3FFC00
7FFE00
7FFF80
FFFFC0
FFFFE0
FFFFE0
7FFFF0
1FFFE0
07FFE0
00FFE0
001FC0
000180
000000
000000
000000
000000
000000
000000
007FE0
00FFF8
00FFFC
00FFFE
00FFFE
00FFFE
00FFFF
00FFFF
00FFFF
00FFFF
00FFFF
00FFFF
00FFFF
00FFFF
01FFFE
01FFFE
01FFFE
01FFFE
01FFFE
01FFFE
01FFFE
01FFFE
01FFFE
01FFFE
01FFFE
01FFFE
03FFFE
03FFFE
03FFFE
03FFFC
03FFFC
03FFFC
03FFFC
03FFFC
03FFFC
03FFFC
03FFFC
03FFFC
03FFFC
03FFFC
07FFFC
07FFFC
07FFFC
07FFF8
07FFF8
07FFF8
07FFF8
07FFF8
07FFF8
07FFF8
07FFF8
07FFF8
07FFF8
07FFF8
07FFF8
07FFF8
07FFF8
07FFF0
07FFF0
07FFF0
03FFF0
01FFF0
007FF0
ENDCHAR
STARTCHAR 00CD
ENCODING 205
SWIDTH 315 0
DWIDTH 28 0
BBX 30 86 5 0
BITMAP
00000E00
00003F80
00007FC0
0001FFE0
0003FFF0
0007FFF8
000FFFFC
001FFFFC
003FFFFC
007FFFF8
00FFFFE0
01FFFFC0
00FFFE00
00FFF800
007FE000
007F0000
00100000
00000000
00000000
00000000
00000000
00000000
00000000
0FFC0000
1FFF0000
1FFF8000
1FFFC000
1FFFC000
1FFFC000
1FFFE000
1FFFE000
1FFFE000
1FFFE000
1FFFE000
1FFFE000
1FFFE000
1FFFE000
3FFFC000
3FFFC000
3FFFC000
3FFFC000
3FFFC000
3FFFC000
3FFFC000
3FFFC000
3FFFC000
3FFFC000
3FFFC000
3FFFC000
7FFFC000
7FFFC000
7FFFC000
7FFF8000
7FFF8000
7FFF8000
7FFF8000
7FFF8000
7FFF8000
7FFF8000
7FFF8000
7FFF8000
7FFF8000
7FFF8000
FFFF8000
FFFF8000
FFFF8000
FFFF0000
FFFF0000
FFFF0000
FFFF0000
FFFF0000
FFFF0000
FFFF0000
FFFF0000
FFFF0000
FFFF0000
FFFF0000
FFFF0000
FFFF0000
FFFF0000
FFFE0000
FFFE0000
FFFE0000
7FFE0000
3FFE0000
0FFE0000
ENDCHAR
STARTCHAR 00CE
ENCODING 206
SWIDTH 315 0
DWIDTH 28 0
BBX 32 86 0 0
BITMAP
0003FC00
001FFE00
003FFF00
007FFF80
00FFFFC0
01FFFFE0
03FFFFE0
07FFFFF0
0FFFFFF8
1FFFFFFC
3FFE3FFC
7FFC1FFE
FFF007FF
FFE003FE
7F8001FC
3E0000F8
08000010
00000000
00000000
00000000
00000000
00000000
00000000
007FE000
00FFF800
00FFFC00
00FFFE00
00FFFE00
00FFFE00
00FFFF00
00FFFF00
00FFFF00
00FFFF00
00FFFF00
00FFFF00
00FFFF00
00FFFF00
01FFFE00
01FFFE00
01FFFE00
01FFFE00
01FFFE00
01FFFE00
01FFFE00
01FFFE00
01FFFE00
01FFFE00
01FFFE00
01FFFE00
03FFFE00
03FFFE00
03FFFE00
03FFFC00
03FFFC00
03FFFC00
03FFFC00
03FFFC00
03FFFC00
03FFFC00
03FFFC00
03FFFC00
03FFFC00
03FFFC00
07FFFC00
07FFFC00
07FFFC00
07FFF800
07FFF800
07FFF800
07FFF800
07FFF800
07FFF800
07FFF800
07FFF800
07FFF800
07FFF800
07FFF800
07FFF800
07FFF800
07FFF800
07FFF000
07FFF000
07FFF000
03FFF000
01FFF000
007FF000
ENDCHAR
STARTCHAR 00CF
ENCODING 207
SWIDTH 315 0
DWIDTH 28 0
BBX 34 82 -1 0
BITMAP
07E0003E00
1FF001FF80
7FF803FF80
7FFC07FFC0
FFFC07FFC0
FFFC0FFFC0
FFFC0FFFC0
FFFC0FFFC0
FFF80FFF80
FFF007FF80
7FE007FF00
1F8001FC00
0000000000
0000000000
0000000000
0000000000
0000000000
0000000000
0000000000
003FF00000
007FFC0000
007FFE0000
007FFF0000
007FFF0000
007FFF0000
007FFF8000
007FFF8000
007FFF8000
007FFF8000
007FFF8000
007FFF8000
007FFF8000
007FFF8000
00FFFF0000
00FFFF0000
00FFFF0000
00FFFF0000
00FFFF0000
00FFFF0000
00FFFF0000
00FFFF0000
00FFFF0000
00FFFF0000
00FFFF0000
00FFFF0000
01FFFF0000
01FFFF0000
01FFFF0000
01FFFE0000
01FFFE0000
01FFFE0000
01FFFE0000
01FFFE0000
01FFFE0000
01FFFE0000
01FFFE0000
01FFFE0000
01FFFE0000
01FFFE0000
03FFFE0000
03FFFE0000
03FFFE0000
03FFFC0000
03FFFC0000
03FFFC0000
03FFFC0000
03FFFC0000
03FFFC0000
03FFFC0000
03FFFC0000
03FFFC0000
03FFFC0000
03FFFC0000
03FFFC0000
03FFFC0000
03FFFC0000
03FFF80000
03FFF80000
03FFF80000
01FFF80000
00FFF80000
003FF80000
ENDCHAR
STARTCHAR 00D0
ENCODING 208
SWIDTH 675 0
DWIDTH 60 0
BBX 56 65 1 -1
BITMAP
00FFFFFFF80000
00FFFFFFFFC000
00FFFFFFFFF000
00FFFFFFFFFC00
00FFFFFFFFFF00
00FFFFFFFFFF80
00FFFFFFFFFFC0
01FFFFFFFFFFE0
01FFFFFFFFFFF0
01FFFFFFFFFFF0
01FFFFFFFFFFF8
01FFFFFFFFFFF8
01FFFFFFFFFFFC
01FFFE007FFFFC
01FFFC001FFFFC
01FFFC000FFFFE
01FFFC0007FFFE
01FFFC0003FFFE
01FFFC0003FFFE
01FFFC0003FFFE
01FFFC0001FFFE
03FFFC0001FFFE
03FFFC0001FFFF
03FFFC0001FFFF
03FFFC0001FFFF
03FFFC0001FFFF
1FFFFFFC01FFFF
3FFFFFFC01FFFF
7FFFFFFC01FFFF
7FFFFFFC01FFFF
FFFFFFFC01FFFF
FFFFFFFC01FFFF
FFFFFFFC01FFFE
FFFFFFFC01FFFE
FFFFFFFC01FFFE
FFFFFFF801FFFE
FFFFFFF001FFFE
FFFFFFC001FFFE
07FFF80003FFFE
07FFF80003FFFC
07FFF80003FFFC
07FFF80003FFFC
07FFF80007FFFC
07FFF80007FFFC
07FFF8000FFFF8
07FFF8001FFFF8
07FFF0001FFFF8
07FFF0003FFFF0
0FFFF0007FFFF0
0FFFF001FFFFE0
0FFFF007FFFFE0
0FFFFFFFFFFFC0
0FFFFFFFFFFFC0
0FFFFFFFFFFF80
0FFFFFFFFFFF00
0FFFFFFFFFFE00
0FFFFFFFFFFC00
0FFFFFFFFFF800
0FFFFFFFFFF000
0FFFFFFFFFE000
07FFFFFFFF8000
03FFFFFFFF0000
01FFFFFFFC0000
00FFFFFFE00000
001FFFFC000000
ENDCHAR
STARTCHAR 00D1
ENCODING 209
SWIDTH 686 0
DWIDTH 61 0
BBX 52 85 5 0
BITMAP
00003FC0000700
0000FFF8000F00
0003FFFE001F00
0007FFFF803F00
000FFFFFC0FF00
000FFFFFFFFF00
001FFFFFFFFF00
001FFFFFFFFF00
001FFFFFFFFE00
003FFFFFFFFE00
003FC1FFFFFC00
003F807FFFF800
003E001FFFF000
003C0007FFC000
00180001FF0000
00000000000000
00000000000000
00000000000000
00000000000000
00000000000000
00000000000000
00000000000000
0FFF000007FE00
1FFFC00007FF80
1FFFF00007FFE0
1FFFF80007FFE0
1FFFF80007FFF0
1FFFFC0007FFF0
1FFFFC0007FFF0
1FFFFE0007FFF0
1FFFFE0007FFF0
1FFFFE0007FFF0
1FFFFF0007FFF0
1FFFFF0007FFF0
1FFFFF8007FFF0
1FFFFF8007FFF0
3FFFFF8007FFF0
3FFFFFC007FFF0
3FFFFFC007FFF0
3FFFFFE007FFF0
3FFFFFE007FFE0
3FFFFFE007FFE0
3FFFFFF007FFE0
3FFFFFF007FFE0
3FFFFFF807FFE0
3FFFFFF807FFE0
3FFDFFF807FFE0
3FFDFFFC07FFE0
3FFEFFFC07FFE0
7FFEFFFE07FFE0
7FFE7FFE07FFE0
7FFE7FFF07FFE0
7FFE3FFF07FFE0
7FFE3FFF07FFE0
7FFE1FFF87FFE0
7FFE1FFF87FFE0
7FFE1FFFC7FFC0
7FFE0FFFC7FFC0
7FFE0FFFE7FFC0
7FFE07FFE7FFC0
7FFE07FFE7FFC0
7FFE03FFF7FFC0
FFFE03FFF7FFC0
FFFE01FFFFFFC0
FFFE01FFFFFFC0
FFFE00FFFFFFC0
FFFE00FFFFFFC0
FFFE007FFFFFC0
FFFE007FFFFFC0
FFFE003FFFFFC0
FFFE003FFFFF80
FFFE001FFFFF80
FFFE001FFFFF80
FFFE000FFFFF80
FFFE000FFFFF80
FFFE0007FFFF80
FFFE0007FFFF80
FFFE0003FFFF80
FFFE0003FFFF80
FFFE0003FFFF80
FFFE0001FFFF80
FFFE0001FFFF80
7FFE0000FFFF00
3FFE00007FFF00
0FFE00001FFF00
ENDCHAR
STARTCHAR 00D2
ENCODING 210
SWIDTH 708 0
DWIDTH 63 0
BBX 56 87 4 -1
BITMAP
00000100000000
000003C0000000
000007E0000000
00000FF0000000
00001FFC000000
00003FFE000000
00003FFF000000
00007FFF800000
00007FFFC00000
0000FFFFE00000
00007FFFF00000
00003FFFF00000
00000FFFF00000
000003FFF00000
000000FFE00000
0000001FC00000
00000000800000
00000000000000
00000000000000
00000000000000
00000000000000
00000000000000
0000007FFC0000
000007FFFFC000
00003FFFFFF800
0000FFFFFFFE00
0003FFFFFFFF00
0007FFFFFFFF80
001FFFFFFFFFC0
003FFFFFFFFFE0
007FFFFFFFFFF0
00FFFFFFFFFFF0
01FFFFFFFFFFF8
01FFFFFFFFFFF8
03FFFFFFFFFFFC
07FFFFFFFFFFFC
07FFFFC07FFFFE
0FFFFF000FFFFE
0FFFFE0007FFFE
1FFFF80007FFFE
1FFFF80003FFFF
3FFFF00003FFFF
3FFFE00001FFFF
3FFFE00001FFFF
7FFFC00001FFFF
7FFFC00001FFFF
7FFFC00000FFFF
7FFF800000FFFF
FFFF800000FFFF
FFFF800000FFFF
FFFF800000FFFF
FFFF800000FFFF
FFFF000000FFFF
FFFF000000FFFF
FFFF000001FFFF
FFFF000001FFFF
FFFF000001FFFF
FFFF000001FFFF
FFFF000001FFFF
FFFF000001FFFE
FFFF000003FFFE
FFFF000003FFFE
FFFF000003FFFE
FFFF800007FFFE
FFFF800007FFFC
FFFF800007FFFC
FFFF80000FFFFC
FFFFC0000FFFF8
FFFFC0001FFFF8
7FFFE0003FFFF0
7FFFF0007FFFF0
7FFFF800FFFFF0
3FFFFE03FFFFE0
3FFFFFFFFFFFE0
3FFFFFFFFFFFC0
1FFFFFFFFFFF80
1FFFFFFFFFFF80
0FFFFFFFFFFF00
07FFFFFFFFFE00
07FFFFFFFFFC00
03FFFFFFFFF800
01FFFFFFFFE000
007FFFFFFFC000
003FFFFFFF0000
000FFFFFFC0000
0003FFFFE00000
00003FFE000000
ENDCHAR
STARTCHAR 00D3
ENCODING 211
SWIDTH 708 0
DWIDTH 63 0
BBX 56 87 4 -1
BITMAP
00000000003800
0000000000FC00
0000000003FF00
0000000007FF80
000000000FFFC0
000000003FFFE0
000000007FFFF0
00000000FFFFF0
00000001FFFFF0
00000003FFFFC0
00000007FFFF80
00000007FFFE00
00000007FFF800
00000003FFE000
00000003FF0000
00000001FC0000
00000000400000
00000000000000
00000000000000
00000000000000
00000000000000
00000000000000
0000007FFC0000
000007FFFFC000
00003FFFFFF800
0000FFFFFFFE00
0003FFFFFFFF00
0007FFFFFFFF80
001FFFFFFFFFC0
003FFFFFFFFFE0
007FFFFFFFFFF0
00FFFFFFFFFFF0
01FFFFFFFFFFF8
01FFFFFFFFFFF8
03FFFFFFFFFFFC
07FFFFFFFFFFFC
07FFFFC07FFFFE
0FFFFF000FFFFE
0FFFFE0007FFFE
1FFFF80007FFFE
1FFFF80003FFFF
3FFFF00003FFFF
3FFFE00001FFFF
3FFFE00001FFFF
7FFFC00001FFFF
7FFFC00001FFFF
7FFFC00000FFFF
7FFF800000FFFF
FFFF800000FFFF
FFFF800000FFFF
FFFF800000FFFF
FFFF800000FFFF
FFFF000000FFFF
FFFF000000FFFF
FFFF000001FFFF
FFFF000001FFFF
FFFF000001FFFF
FFFF000001FFFF
FFFF000001FFFF
FFFF000001FFFE
FFFF000003FFFE
FFFF000003FFFE
FFFF000003FFFE
FFFF800007FFFE
FFFF800007FFFC
FFFF800007FFFC
FFFF80000FFFFC
FFFFC0000FFFF8
FFFFC0001FFFF8
7FFFE0003FFFF0
7FFFF0007FFFF0
7FFFF800FFFFF0
3FFFFE03FFFFE0
3FFFFFFFFFFFE0
3FFFFFFFFFFFC0
1FFFFFFFFFFF80
1FFFFFFFFFFF80
0FFFFFFFFFFF00
07FFFFFFFFFE00
07FFFFFFFFFC00
03FFFFFFFFF800
01FFFFFFFFE000
007FFFFFFFC000
003FFFFFFF0000
000FFFFFFC0000
0003FFFFE00000
00003FFE000000
ENDCHAR
STARTCHAR 00D4
ENCODING 212
SWIDTH 708 0
DWIDTH 63 0
BBX 56 87 4 -1
BITMAP
00000003FC0000
0000000FFF0000
0000001FFF8000
0000003FFF8000
0000007FFFC000
000000FFFFE000
000001FFFFF000
000007FFFFF800
00000FFFFFFC00
00001FFFBFFC00
00003FFF1FFE00
00007FFE0FFF00
0000FFF807FF80
00007FE003FF00
00003FC000FE00
00001F00007C00
00000800001000
00000000000000
00000000000000
00000000000000
00000000000000
00000000000000
0000007FFC0000
000007FFFFC000
00003FFFFFF800
0000FFFFFFFE00
0003FFFFFFFF00
0007FFFFFFFF80
001FFFFFFFFFC0
003FFFFFFFFFE0
007FFFFFFFFFF0
00FFFFFFFFFFF0
01FFFFFFFFFFF8
01FFFFFFFFFFF8
03FFFFFFFFFFFC
07FFFFFFFFFFFC
07FFFFC07FFFFE
0FFFFF000FFFFE
0FFFFE0007FFFE
1FFFF80007FFFE
1FFFF80003FFFF
3FFFF00003FFFF
3FFFE00001FFFF
3FFFE00001FFFF
7FFFC00001FFFF
7FFFC00001FFFF
7FFFC00000FFFF
7FFF800000FFFF
FFFF800000FFFF
FFFF800000FFFF
FFFF800000FFFF
FFFF800000FFFF
FFFF000000FFFF
FFFF000000FFFF
FFFF000001FFFF
FFFF000001FFFF
FFFF000001FFFF
FFFF000001FFFF
FFFF000001FFFF
FFFF000001FFFE
FFFF000003FFFE
FFFF000003FFFE
FFFF000003FFFE
FFFF800007FFFE
FFFF800007FFFC
FFFF800007FFFC
FFFF80000FFFFC
FFFFC0000FFFF8
FFFFC0001FFFF8
7FFFE0003FFFF0
7FFFF0007FFFF0
7FFFF800FFFFF0
3FFFFE03FFFFE0
3FFFFFFFFFFFE0
3FFFFFFFFFFFC0
1FFFFFFFFFFF80
1FFFFFFFFFFF80
0FFFFFFFFFFF00
07FFFFFFFFFE00
07FFFFFFFFFC00
03FFFFFFFFF800
01FFFFFFFFE000
007FFFFFFFC000
003FFFFFFF0000
000FFFFFFC0000
0003FFFFE00000
00003FFE000000
ENDCHAR
STARTCHAR 00D5
ENCODING 213
SWIDTH 708 0
DWIDTH 63 0
BBX 56 86 4 -1
BITMAP
000007FC000060
00001FFF0001F0
00003FFFC003F0
0000FFFFF007F0
0000FFFFFC1FF0
0001FFFFFFFFE0
0003FFFFFFFFE0
0003FFFFFFFFE0
0003FFFFFFFFC0
0003FFFFFFFFC0
0007F81FFFFF80
0007F00FFFFF00
0007E003FFFE00
0003C000FFFC00
000380001FE000
00000000000000
00000000000000
00000000000000
00000000000000
00000000000000
00000000000000
0000007FFC0000
000007FFFFC000
00003FFFFFF800
0000FFFFFFFE00
0003FFFFFFFF00
0007FFFFFFFF80
001FFFFFFFFFC0
003FFFFFFFFFE0
007FFFFFFFFFF0
00FFFFFFFFFFF0
01FFFFFFFFFFF8
01FFFFFFFFFFF8
03FFFFFFFFFFFC
07FFFFFFFFFFFC
07FFFFC07FFFFE
0FFFFF000FFFFE
0FFFFE0007FFFE
1FFFF80007FFFE
1FFFF80003FFFF
3FFFF00003FFFF
3FFFE00001FFFF
3FFFE00001FFFF
7FFFC00001FFFF
7FFFC00001FFFF
7FFFC00000FFFF
7FFF800000FFFF
FFFF800000FFFF
FFFF800000FFFF
FFFF800000FFFF
FFFF800000FFFF
FFFF000000FFFF
FFFF000000FFFF
FFFF000001FFFF
FFFF000001FFFF
FFFF000001FFFF
FFFF000001FFFF
FFFF000001FFFF
FFFF000001FFFE
FFFF000003FFFE
FFFF000003FFFE
FFFF000003FFFE
FFFF800007FFFE
FFFF800007FFFC
FFFF800007FFFC
FFFF80000FFFFC
FFFFC0000FFFF8
FFFFC0001FFFF8
7FFFE0003FFFF0
7FFFF0007FFFF0
7FFFF800FFFFF0
3FFFFE03FFFFE0
3FFFFFFFFFFFE0
3FFFFFFFFFFFC0
1FFFFFFFFFFF80
1FFFFFFFFFFF80
0FFFFFFFFFFF00
07FFFFFFFFFE00
07FFFFFFFFFC00
03FFFFFFFFF800
01FFFFFFFFE000
007FFFFFFFC000
003FFFFFFF0000
000FFFFFFC0000
0003FFFFE00000
00003FFE000000
ENDCHAR
STARTCHAR 00D6
ENCODING 214
SWIDTH 708 0
DWIDTH 63 0
BBX 56 83 4 -1
BITMAP
00000FC0007C00
00003FF003FF00
00007FF807FF80
0000FFF807FF80
0000FFF80FFFC0
0000FFF80FFFC0
0001FFF80FFFC0
0001FFF80FFF80
0000FFF80FFF80
0000FFF00FFF00
00007FE007FE00
00003F8003F800
00000000000000
00000000000000
00000000000000
00000000000000
00000000000000
00000000000000
0000007FFC0000
000007FFFFC000
00003FFFFFF800
0000FFFFFFFE00
0003FFFFFFFF00
0007FFFFFFFF80
001FFFFFFFFFC0
003FFFFFFFFFE0
007FFFFFFFFFF0
00FFFFFFFFFFF0
01FFFFFFFFFFF8
01FFFFFFFFFFF8
03FFFFFFFFFFFC
07FFFFFFFFFFFC
07FFFFC07FFFFE
0FFFFF000FFFFE
0FFFFE0007FFFE
1FFFF80007FFFE
1FFFF80003FFFF
3FFFF00003FFFF
3FFFE00001FFFF
3FFFE00001FFFF
7FFFC00001FFFF
7FFFC00001FFFF
7FFFC00000FFFF
7FFF800000FFFF
FFFF800000FFFF
FFFF800000FFFF
FFFF800000FFFF
FFFF800000FFFF
FFFF000000FFFF
FFFF000000FFFF
FFFF000001FFFF
FFFF000001FFFF
FFFF000001FFFF
FFFF000001FFFF
FFFF000001FFFF
FFFF000001FFFE
FFFF000003FFFE
FFFF000003FFFE
FFFF000003FFFE
FFFF800007FFFE
FFFF800007FFFC
FFFF800007FFFC
FFFF80000FFFFC
FFFFC0000FFFF8
FFFFC0001FFFF8
7FFFE0003FFFF0
7FFFF0007FFFF0
7FFFF800FFFFF0
3FFFFE03FFFFE0
3FFFFFFFFFFFE0
3FFFFFFFFFFFC0
1FFFFFFFFFFF80
1FFFFFFFFFFF80
0FFFFFFFFFFF00
07FFFFFFFFFE00
07FFFFFFFFFC00
03FFFFFFFFF800
01FFFFFFFFE000
007FFFFFFFC000
003FFFFFFF0000
000FFFFFFC0000
0003FFFFE00000
00003FFE000000
ENDCHAR
STARTCHAR 00D7
ENCODING 215
SWIDTH 495 0
DWIDTH 44 0
BBX 40 40 2 9
BITMAP
007C000030
01FE000078
03FF0000FC
07FF0001FE
0FFF8003FE
0FFFC007FF
0FFFC01FFF
07FFE03FFF
07FFE07FFF
03FFF0FFFF
01FFF9FFFF
01FFFBFFFE
00FFFFFFFC
007FFFFFF8
007FFFFFF0
003FFFFFE0
003FFFFFC0
001FFFFF00
000FFFFE00
000FFFFC00
001FFFF800
003FFFF000
007FFFF000
01FFFFF800
03FFFFFC00
07FFFFFC00
0FFFFFFE00
1FFFFFFF00
3FFFFFFF00
7FFFDFFF80
7FFF9FFFC0
7FFF0FFFC0
FFFE07FFE0
7FFC07FFE0
7FF003FFF0
7FE003FFF0
3FC001FFE0
3F8000FFC0
1F00007F00
0E00003C00
ENDCHAR
STARTCHAR 00D8
ENCODING 216
SWIDTH 708 0
DWIDTH 63 0
BBX 56 76 4 -6
BITMAP
00000000000010
000000000000FE
000000000001FE
000000000003FE
000000000007FE
000000000007FE
0000007FFC0FFC
000007FFFFDFFC
00003FFFFFFFF8
0000FFFFFFFFF8
0003FFFFFFFFF0
0007FFFFFFFFF0
001FFFFFFFFFE0
003FFFFFFFFFE0
007FFFFFFFFFF0
00FFFFFFFFFFF0
01FFFFFFFFFFF8
01FFFFFFFFFFF8
03FFFFFFFFFFFC
07FFFFFFFFFFFC
07FFFFC07FFFFE
0FFFFF003FFFFE
0FFFFE007FFFFE
1FFFF800FFFFFE
1FFFF801FFFFFF
3FFFF001FFFFFF
3FFFE003FFFFFF
3FFFE007FFFFFF
7FFFC007FFFFFF
7FFFC00FFFFFFF
7FFFC01FFEFFFF
7FFF803FFCFFFF
FFFF803FFCFFFF
FFFF807FF8FFFF
FFFF80FFF0FFFF
FFFF80FFF0FFFF
FFFF01FFE0FFFF
FFFF03FFC0FFFF
FFFF07FFC1FFFF
FFFF07FF81FFFF
FFFF0FFF01FFFF
FFFF1FFF01FFFF
FFFF1FFE01FFFF
FFFF3FFC01FFFE
FFFF7FF803FFFE
FFFF7FF803FFFE
FFFFFFF003FFFE
FFFFFFE007FFFE
FFFFFFE007FFFC
FFFFFFC007FFFC
FFFFFF800FFFFC
FFFFFF800FFFF8
FFFFFF001FFFF8
7FFFFE003FFFF8
7FFFFE007FFFF0
7FFFFC00FFFFF0
7FFFFE03FFFFE0
3FFFFFFFFFFFE0
3FFFFFFFFFFFC0
1FFFFFFFFFFF80
1FFFFFFFFFFF00
0FFFFFFFFFFF00
07FFFFFFFFFE00
07FFFFFFFFFC00
0FFFFFFFFFF800
1FFFFFFFFFE000
1FFFFFFFFFC000
3FFFFFFFFF0000
3FFFFFFFFC0000
7FF3FFFFE00000
7FE03FFE000000
FFE00000000000
FFC00000000000
FF800000000000
FF000000000000
7E000000000000
ENDCHAR
STARTCHAR 00D9
ENCODING 217
SWIDTH 663 0
DWIDTH 59 0
BBX 50 87 5 -1
BITMAP
00002000000000
00007800000000
0000FC00000000
0001FE00000000
0003FF80000000
0007FFC0000000
0007FFE0000000
000FFFF0000000
000FFFF8000000
001FFFFC000000
000FFFFE000000
0007FFFE000000
0001FFFE000000
00007FFE000000
00001FFC000000
000003F8000000
00000010000000
00000000000000
00000000000000
00000000000000
00000000000000
00000000000000
07C0000007C000
1FFE00001FFE00
1FFF00001FFF80
1FFF80001FFFC0
1FFFC0001FFFC0
1FFFC0001FFFC0
1FFFC0001FFFC0
1FFFC0001FFFC0
1FFFE0001FFFC0
1FFFE0001FFFC0
3FFFE0001FFFC0
3FFFC0001FFFC0
3FFFC0001FFFC0
3FFFC0001FFFC0
3FFFC0003FFFC0
3FFFC0003FFFC0
3FFFC0003FFFC0
3FFFC0003FFFC0
3FFFC0003FFFC0
3FFFC0003FFFC0
3FFFC0003FFFC0
3FFFC0003FFFC0
7FFFC0003FFFC0
7FFFC0003FFFC0
7FFFC0003FFF80
7FFFC0003FFF80
7FFF80003FFF80
7FFF80007FFF80
7FFF80007FFF80
7FFF80007FFF80
7FFF80007FFF80
7FFF80007FFF80
7FFF80007FFF80
7FFF80007FFF80
FFFF80007FFF80
FFFF80007FFF80
FFFF80007FFF80
FFFF8000FFFF00
FFFF8000FFFF00
FFFF8000FFFF00
FFFF8000FFFF00
FFFF8000FFFF00
FFFF8001FFFF00
FFFF8001FFFE00
FFFF8001FFFE00
FFFF8003FFFE00
FFFF8003FFFE00
FFFFC007FFFC00
FFFFC00FFFFC00
7FFFE01FFFF800
7FFFF83FFFF800
7FFFFFFFFFF800
7FFFFFFFFFF000
3FFFFFFFFFF000
3FFFFFFFFFE000
1FFFFFFFFFC000
1FFFFFFFFFC000
0FFFFFFFFF8000
07FFFFFFFF0000
03FFFFFFFE0000
01FFFFFFF80000
00FFFFFFF00000
003FFFFFC00000
000FFFFE000000
0001FFE0000000
ENDCHAR
STARTCHAR 00DA
ENCODING 218
SWIDTH 663 0
DWIDTH 59 0
BBX 50 87 5 -1
BITMAP
00000000070000
000000001F8000
000000007FE000
00000000FFF000
00000001FFF800
00000007FFFC00
0000000FFFFE00
0000001FFFFE00
0000003FFFFE00
0000007FFFF800
000000FFFFF000
000000FFFFC000
000000FFFF0000
0000007FFC0000
0000007FE00000
0000003F800000
00000008000000
00000000000000
00000000000000
00000000000000
00000000000000
00000000000000
07C0000007C000
1FFE00001FFE00
1FFF00001FFF80
1FFF80001FFFC0
1FFFC0001FFFC0
1FFFC0001FFFC0
1FFFC0001FFFC0
1FFFC0001FFFC0
1FFFE0001FFFC0
1FFFE0001FFFC0
3FFFE0001FFFC0
3FFFC0001FFFC0
3FFFC0001FFFC0
3FFFC0001FFFC0
3FFFC0003FFFC0
3FFFC0003FFFC0
3FFFC0003FFFC0
3FFFC0003FFFC0
3FFFC0003FFFC0
3FFFC0003FFFC0
3FFFC0003FFFC0
3FFFC0003FFFC0
7FFFC0003FFFC0
7FFFC0003FFFC0
7FFFC0003FFF80
7FFFC0003FFF80
7FFF80003FFF80
7FFF80007FFF80
7FFF80007FFF80
7FFF80007FFF80
7FFF80007FFF80
7FFF80007FFF80
7FFF80007FFF80
7FFF80007FFF80
FFFF80007FFF80
FFFF80007FFF80
FFFF80007FFF80
FFFF8000FFFF00
FFFF8000FFFF00
FFFF8000FFFF00
FFFF8000FFFF00
FFFF8000FFFF00
FFFF8001FFFF00
FFFF8001FFFE00
FFFF8001FFFE00
FFFF8003FFFE00
FFFF8003FFFE00
FFFFC007FFFC00
FFFFC00FFFFC00
7FFFE01FFFF800
7FFFF83FFFF800
7FFFFFFFFFF800
7FFFFFFFFFF000
3FFFFFFFFFF000
3FFFFFFFFFE000
1FFFFFFFFFC000
1FFFFFFFFFC000
0FFFFFFFFF8000
07FFFFFFFF0000
03FFFFFFFE0000
01FFFFFFF80000
00FFFFFFF00000
003FFFFFC00000
000FFFFE000000
0001FFE0000000
ENDCHAR
STARTCHAR 00DB
ENCODING 219
SWIDTH 663 0
DWIDTH 59 0
BBX 50 87 5 -1
BITMAP
0000007F800000
000001FFE00000
000003FFF00000
000007FFF00000
00000FFFF80000
00001FFFFC0000
00003FFFFE0000
0000FFFFFF0000
0001FFFFFF8000
0003FFF7FF8000
0007FFE3FFC000
000FFFC1FFE000
001FFF00FFF000
000FFC007FE000
0007F8001FC000
0003E0000F8000
00010000020000
00000000000000
00000000000000
00000000000000
00000000000000
00000000000000
07C0000007C000
1FFE00001FFE00
1FFF00001FFF80
1FFF80001FFFC0
1FFFC0001FFFC0
1FFFC0001FFFC0
1FFFC0001FFFC0
1FFFC0001FFFC0
1FFFE0001FFFC0
1FFFE0001FFFC0
3FFFE0001FFFC0
3FFFC0001FFFC0
3FFFC0001FFFC0
3FFFC0001FFFC0
3FFFC0003FFFC0
3FFFC0003FFFC0
3FFFC0003FFFC0
3FFFC0003FFFC0
3FFFC0003FFFC0
3FFFC0003FFFC0
3FFFC0003FFFC0
3FFFC0003FFFC0
7FFFC0003FFFC0
7FFFC0003FFFC0
7FFFC0003FFF80
7FFFC0003FFF80
7FFF80003FFF80
7FFF80007FFF80
7FFF80007FFF80
7FFF80007FFF80
7FFF80007FFF80
7FFF80007FFF80
7FFF80007FFF80
7FFF80007FFF80
FFFF80007FFF80
FFFF80007FFF80
FFFF80007FFF80
FFFF8000FFFF00
FFFF8000FFFF00
FFFF8000FFFF00
FFFF8000FFFF00
FFFF8000FFFF00
FFFF8001FFFF00
FFFF8001FFFE00
FFFF8001FFFE00
FFFF8003FFFE00
FFFF8003FFFE00
FFFFC007FFFC00
FFFFC00FFFFC00
7FFFE01FFFF800
7FFFF83FFFF800
7FFFFFFFFFF800
7FFFFFFFFFF000
3FFFFFFFFFF000
3FFFFFFFFFE000
1FFFFFFFFFC000
1FFFFFFFFFC000
0FFFFFFFFF8000
07FFFFFFFF0000
03FFFFFFFE0000
01FFFFFFF80000
00FFFFFFF00000
003FFFFFC00000
000FFFFE000000
0001FFE0000000
ENDCHAR
STARTCHAR 00DC
ENCODING 220
SWIDTH 663 0
DWIDTH 59 0
BBX 50 83 5 -1
BITMAP
0001F8000F8000
0007FE007FE000
000FFF00FFF000
001FFF00FFF000
001FFF01FFF800
003FFF01FFF800
003FFF01FFF800
003FFF01FFF000
001FFF01FFF000
001FFE01FFE000
000FFC00FFC000
0007F0007F0000
00000000000000
00000000000000
00000000000000
00000000000000
00000000000000
00000000000000
0FF000000FF800
1FFE00001FFF00
1FFF80001FFF80
1FFF80001FFFC0
1FFFC0001FFFC0
1FFFC0001FFFC0
1FFFC0001FFFC0
1FFFC0001FFFC0
1FFFE0001FFFC0
3FFFE0001FFFC0
3FFFE0001FFFC0
3FFFC0001FFFC0
3FFFC0001FFFC0
3FFFC0001FFFC0
3FFFC0003FFFC0
3FFFC0003FFFC0
3FFFC0003FFFC0
3FFFC0003FFFC0
3FFFC0003FFFC0
3FFFC0003FFFC0
3FFFC0003FFFC0
7FFFC0003FFFC0
7FFFC0003FFFC0
7FFFC0003FFFC0
7FFFC0003FFF80
7FFFC0003FFF80
7FFF80003FFF80
7FFF80007FFF80
7FFF80007FFF80
7FFF80007FFF80
7FFF80007FFF80
7FFF80007FFF80
7FFF80007FFF80
7FFF80007FFF80
FFFF80007FFF80
FFFF80007FFF80
FFFF80007FFF00
FFFF8000FFFF00
FFFF8000FFFF00
FFFF8000FFFF00
FFFF8000FFFF00
FFFF8000FFFF00
FFFF8001FFFF00
FFFF8001FFFE00
FFFF8001FFFE00
FFFF8003FFFE00
FFFF8003FFFE00
FFFFC007FFFC00
FFFFC00FFFFC00
7FFFE01FFFF800
7FFFF83FFFF800
7FFFFFFFFFF800
7FFFFFFFFFF000
3FFFFFFFFFF000
3FFFFFFFFFE000
1FFFFFFFFFC000
1FFFFFFFFF8000
0FFFFFFFFF8000
07FFFFFFFF0000
03FFFFFFFE0000
01FFFFFFF80000
00FFFFFFF00000
003FFFFFC00000
000FFFFE000000
0001FFE0000000
ENDCHAR
STARTCHAR 00DD
ENCODING 221
SWIDTH 607 0
DWIDTH 54 0
BBX 53 86 2 0
BITMAP
000000000E0000
000000003F8000
000000007FC000
00000001FFE000
00000003FFF000
00000007FFF800
0000000FFFFC00
0000001FFFFC00
0000003FFFFC00
0000007FFFF800
000000FFFFE000
000001FFFF8000
000000FFFE0000
000000FFF80000
000000FFE00000
0000007F000000
00000010000000
00000000000000
00000000000000
00000000000000
00000000000000
00000000000000
7FE0000003FE00
FFF8000003FF80
FFFE000007FFE0
FFFF000007FFF0
FFFF800007FFF8
7FFF80000FFFF8
7FFFC0000FFFF8
3FFFC0000FFFF0
3FFFC0001FFFF0
3FFFE0001FFFF0
1FFFE0001FFFE0
1FFFE0003FFFE0
0FFFF0003FFFE0
0FFFF0003FFFC0
0FFFF0007FFFC0
07FFF8007FFF80
07FFF8007FFF80
03FFF800FFFF00
03FFF800FFFF00
01FFFC01FFFE00
01FFFC01FFFE00
01FFFC01FFFC00
00FFFE03FFFC00
00FFFE03FFF800
007FFE07FFF800
007FFF07FFF000
003FFF0FFFE000
003FFF0FFFE000
001FFF9FFFC000
001FFF9FFFC000
001FFFBFFF8000
000FFFBFFF0000
000FFFFFFF0000
0007FFFFFE0000
0007FFFFFC0000
0003FFFFFC0000
0003FFFFF80000
0001FFFFF00000
0001FFFFF00000
0000FFFFE00000
0000FFFFC00000
0000FFFF800000
0000FFFF800000
0000FFFF000000
0000FFFF000000
0000FFFF000000
0000FFFF000000
0001FFFF000000
0001FFFF000000
0001FFFF000000
0001FFFF000000
0001FFFF000000
0001FFFE000000
0001FFFE000000
0001FFFE000000
0001FFFE000000
0001FFFE000000
0001FFFE000000
0001FFFE000000
0000FFFE000000
0000FFFE000000
00007FFE000000
00003FFE000000
00000FFC000000
ENDCHAR
STARTCHAR 00DE
ENCODING 222
SWIDTH 596 0
DWIDTH 53 0
BBX 46 66 5 0
BITMAP
0FFC00000000
1FFF00000000
1FFF80000000
1FFF80000000
1FFFC0000000
1FFFC0000000
1FFFC0000000
1FFFC0000000
1FFFC0000000
1FFFC0000000
1FFFFFFE0000
1FFFFFFFE000
1FFFFFFFF800
1FFFFFFFFE00
1FFFFFFFFF00
1FFFFFFFFFC0
1FFFFFFFFFC0
3FFFFFFFFFE0
3FFFFFFFFFF0
3FFFFFFFFFF0
3FFFFFFFFFF8
3FFFFFFFFFF8
3FFFFFFFFFF8
3FFFC01FFFFC
3FFF8007FFFC
3FFF8003FFFC
3FFF8003FFFC
3FFF8001FFFC
3FFF8001FFFC
7FFF8001FFFC
7FFF8001FFFC
7FFF8001FFFC
7FFF8001FFFC
7FFF8001FFFC
7FFF8001FFFC
7FFF0001FFFC
7FFF0003FFFC
7FFF0003FFFC
7FFF0003FFF8
7FFF0007FFF8
7FFF0007FFF8
7FFF000FFFF8
7FFF001FFFF0
FFFF807FFFF0
FFFFFFFFFFE0
FFFFFFFFFFE0
FFFFFFFFFFC0
FFFFFFFFFFC0
FFFFFFFFFF80
FFFFFFFFFF00
FFFFFFFFFE00
FFFFFFFFFC00
FFFFFFFFF800
FFFFFFFFE000
FFFFFFFFC000
FFFFFFFE0000
FFFE7FF00000
FFFE00000000
FFFE00000000
FFFE00000000
FFFE00000000
FFFE00000000
FFFC00000000
7FFC00000000
3FFC00000000
0FFC00000000
ENDCHAR
STARTCHAR 00DF
ENCODING 223
SWIDTH 630 0
DWIDTH 56 0
BBX 51 68 3 -1
BITMAP
000000FFF80000
00001FFFFF8000
00007FFFFFE000
0001FFFFFFF000
0003FFFFFFF800
0007FFFFFFFC00
000FFFFFFFFC00
001FFFFFFFFC00
003FFFFFFFFE00
007FFFFFFFFE00
007FFFFFFFFE00
00FFFFFFFFFE00
00FFFF81FFFE00
01FFFF00FFFC00
01FFFE007FFC00
03FFFC007FFC00
03FFF800FFF800
03FFF800FFF800
07FFF001FFF000
07FFF003FFF000
07FFF003FFE000
0FFFE007FFC000
0FFFE00FFFC000
0FFFE01FFF8000
0FFFC01FFF0000
0FFFC03FFF0000
1FFFC03FFE0000
1FFFC07FFC0000
1FFFC07FFC0000
1FFFC0FFFC0000
1FFF80FFFC0000
1FFF80FFFC0000
3FFF80FFFC0000
3FFF80FFFE0000
3FFF80FFFF0000
3FFF80FFFF8000
3FFF80FFFFE000
3FFF807FFFF000
3FFF807FFFFC00
3FFF003FFFFE00
7FFF001FFFFF00
7FFF000FFFFF80
7FFF0007FFFF80
7FFF0003FFFFC0
7FFF0001FFFFC0
7FFF0000FFFFE0
7FFF00003FFFE0
7FFF00001FFFE0
7FFF00001FFFE0
7FFF00000FFFE0
7FFF00000FFFE0
7FFE000007FFE0
7FFE000007FFE0
7FFE000007FFE0
FFFE07000FFFE0
FFFE0FC01FFFC0
FFFE0FF03FFFC0
FFFE0FFFFFFFC0
FFFE1FFFFFFF80
7FFE1FFFFFFF80
7FFE1FFFFFFF00
7FFE1FFFFFFE00
7FFE0FFFFFFE00
7FFE0FFFFFFC00
3FFE07FFFFF000
3FFE01FFFFE000
0FFC007FFF8000
00000007FC0000
ENDCHAR
STARTCHAR 00E0
ENCODING 224
SWIDTH 562 0
DWIDTH 50 0
BBX 47 75 1 -1
BITMAP
000007800000
00003F800000
0000FFC00000
0001FFC00000
0003FFE00000
0003FFE00000
0003FFE00000
0003FFF00000
0001FFF00000
0000FFF80000
0000FFF80000
00007FFC0000
00003FFC0000
00001FFC0000
00000FFE0000
000007FC0000
000003FC0000
000001F80000
000000E00000
000000000000
000000000000
000000000000
000000000000
000000000000
00001FFE0000
0001FFFFE000
000FFFFFF800
003FFFFFFC00
007FFFFFFF00
00FFFFFFFF00
01FFFFFFFF80
03FFFFFFFFC0
03FFFFFFFFC0
07FFFFFFFFE0
07FFFFFFFFE0
07FFFFFFFFE0
0FFFF03FFFE0
0FFFE01FFFE0
0FFFC00FFFF0
07FF800FFFF0
07FF800FFFF0
07FF8007FFF0
03FF0007FFE0
01FF0007FFE0
002E0007FFE0
0000000FFFE0
00000FFFFFE0
0001FFFFFFE0
001FFFFFFFE0
007FFFFFFFE0
01FFFFFFFFE0
03FFFFFFFFE0
07FFFFFFFFC0
0FFFFC0FFFC0
1FFFE01FFFC0
3FFF801FFFC0
7FFF001FFFC0
7FFF001FFFC0
7FFE003FFFC0
FFFE003FFFC0
FFFE007FFFE0
FFFF00FFFFF0
FFFF83FFFFFE
FFFFFFFFFFFE
FFFFFFFFFFFE
FFFFFFFFFFFE
FFFFFFFFFFFE
7FFFFFFFFFFE
7FFFFFEFFFFC
7FFFFFCFFFFC
3FFFFF8FFFF8
1FFFFF07FFF8
0FFFFC03FFF0
03FFF001FFE0
007F80007F00
ENDCHAR
STARTCHAR 00E1
ENCODING 225
SWIDTH 562 0
DWIDTH 50 0
BBX 47 75 1 -1
BITMAP
00000001E000
00000003F800
00000007FE00
00000007FF80
0000000FFFC0
0000001FFFC0
0000001FFFC0
0000003FFF80
0000007FFF00
000000FFFE00
000000FFFC00
000001FFF800
000003FFF000
000003FFC000
000007FF8000
000007FF0000
000003FC0000
000001F80000
000000E00000
000000000000
000000000000
000000000000
000000000000
000000000000
00001FFE0000
0001FFFFE000
000FFFFFF800
003FFFFFFC00
007FFFFFFF00
00FFFFFFFF00
01FFFFFFFF80
03FFFFFFFFC0
03FFFFFFFFC0
07FFFFFFFFE0
07FFFFFFFFE0
07FFFFFFFFE0
0FFFF03FFFE0
0FFFE01FFFE0
0FFFC00FFFF0
07FF800FFFF0
07FF800FFFF0
07FF8007FFF0
03FF0007FFE0
01FF0007FFE0
002E0007FFE0
0000000FFFE0
00000FFFFFE0
0001FFFFFFE0
001FFFFFFFE0
007FFFFFFFE0
01FFFFFFFFE0
03FFFFFFFFE0
07FFFFFFFFC0
0FFFFC0FFFC0
1FFFE01FFFC0
3FFF801FFFC0
7FFF001FFFC0
7FFF001FFFC0
7FFE003FFFC0
FFFE003FFFC0
FFFE007FFFE0
FFFF00FFFFF0
FFFF83FFFFFE
FFFFFFFFFFFE
FFFFFFFFFFFE
FFFFFFFFFFFE
FFFFFFFFFFFE
7FFFFFFFFFFE
7FFFFFEFFFFC
7FFFFFCFFFFC
3FFFFF8FFFF8
1FFFFF07FFF8
0FFFFC03FFF0
03FFF001FFE0
007F80007F00
ENDCHAR
STARTCHAR 00E2
ENCODING 226
SWIDTH 562 0
DWIDTH 50 0
BBX 47 75 1 -1
BITMAP
0000007F8000
000001FFC000
000003FFC000
000007FFE000
00000FFFF000
00001FFFF000
00001FFFF800
00003FFFF800
00007FFFFC00
0000FFFFFE00
0001FFEFFE00
0003FFC7FF00
0007FF83FF00
000FFF03FF80
000FFE01FFC0
001FFC00FFC0
000FF0007F80
0007E0003F00
000380001C00
000000000000
000000000000
000000000000
000000000000
000000000000
00001FFE0000
0001FFFFE000
000FFFFFF800
003FFFFFFC00
007FFFFFFF00
00FFFFFFFF00
01FFFFFFFF80
03FFFFFFFFC0
03FFFFFFFFC0
07FFFFFFFFE0
07FFFFFFFFE0
07FFFFFFFFE0
0FFFF03FFFE0
0FFFE01FFFE0
0FFFC00FFFF0
07FF800FFFF0
07FF800FFFF0
07FF8007FFF0
03FF0007FFE0
01FF0007FFE0
002E0007FFE0
0000000FFFE0
00000FFFFFE0
0001FFFFFFE0
001FFFFFFFE0
007FFFFFFFE0
01FFFFFFFFE0
03FFFFFFFFE0
07FFFFFFFFC0
0FFFFC0FFFC0
1FFFE01FFFC0
3FFF801FFFC0
7FFF001FFFC0
7FFF001FFFC0
7FFE003FFFC0
FFFE003FFFC0
FFFE007FFFE0
FFFF00FFFFF0
FFFF83FFFFFE
FFFFFFFFFFFE
FFFFFFFFFFFE
FFFFFFFFFFFE
FFFFFFFFFFFE
7FFFFFFFFFFE
7FFFFFEFFFFC
7FFFFFCFFFFC
3FFFFF8FFFF8
1FFFFF07FFF8
0FFFFC03FFF0
03FFF001FFE0
007F80007F00
ENDCHAR
STARTCHAR 00E3
ENCODING 227
SWIDTH 562 0
DWIDTH 50 0
BBX 47 71 1 -1
BITMAP
0001FE000018
0007FF800038
000FFFE0007C
001FFFF800FC
003FFFFC03FC
007FFFFF07F8
007FFFFFFFF8
00FFFFFFFFF8
00FFFFFFFFF8
00FFFFFFFFF0
01FE0FFFFFF0
01FC03FFFFE0
01F801FFFFC0
01F0007FFF80
01E0003FFE00
00C00007F800
000000000000
000000000000
000000000000
000000000000
00001FFE0000
0001FFFFE000
000FFFFFF800
003FFFFFFC00
007FFFFFFF00
00FFFFFFFF00
01FFFFFFFF80
03FFFFFFFFC0
03FFFFFFFFC0
07FFFFFFFFE0
07FFFFFFFFE0
07FFFFFFFFE0
0FFFF03FFFE0
0FFFE01FFFE0
0FFFC00FFFF0
07FF800FFFF0
07FF800FFFF0
07FF8007FFF0
03FF0007FFE0
01FF0007FFE0
002E0007FFE0
0000000FFFE0
00000FFFFFE0
0001FFFFFFE0
001FFFFFFFE0
007FFFFFFFE0
01FFFFFFFFE0
03FFFFFFFFE0
07FFFFFFFFC0
0FFFFC0FFFC0
1FFFE01FFFC0
3FFF801FFFC0
7FFF001FFFC0
7FFF001FFFC0
7FFE003FFFC0
FFFE003FFFC0
FFFE007FFFE0
FFFF00FFFFF0
FFFF83FFFFFE
FFFFFFFFFFFE
FFFFFFFFFFFE
FFFFFFFFFFFE
FFFFFFFFFFFE
7FFFFFFFFFFE
7FFFFFEFFFFC
7FFFFFCFFFFC
3FFFFF8FFFF8
1FFFFF07FFF8
0FFFFC03FFF0
03FFF001FFE0
007F80007F00
ENDCHAR
STARTCHAR 00E4
ENCODING 228
SWIDTH 562 0
DWIDTH 50 0
BBX 47 68 1 -1
BITMAP
0003F8001F80
000FFC007FE0
001FFE01FFE0
003FFF01FFF0
003FFF03FFF0
003FFF03FFF0
003FFF03FFF0
003FFE03FFF0
003FFE03FFE0
003FFC01FFC0
001FF801FF80
0007E0007E00
000000000000
000000000000
000000000000
000000000000
000000000000
00001FFE0000
0001FFFFE000
000FFFFFF800
003FFFFFFC00
007FFFFFFF00
00FFFFFFFF00
01FFFFFFFF80
03FFFFFFFFC0
03FFFFFFFFC0
07FFFFFFFFE0
07FFFFFFFFE0
07FFFFFFFFE0
0FFFF03FFFE0
0FFFE01FFFE0
0FFFC00FFFF0
07FF800FFFF0
07FF800FFFF0
07FF8007FFF0
03FF0007FFE0
01FF0007FFE0
002E0007FFE0
0000000FFFE0
00000FFFFFE0
0001FFFFFFE0
001FFFFFFFE0
007FFFFFFFE0
01FFFFFFFFE0
03FFFFFFFFE0
07FFFFFFFFC0
0FFFFC0FFFC0
1FFFE01FFFC0
3FFF801FFFC0
7FFF001FFFC0
7FFF001FFFC0
7FFE003FFFC0
FFFE003FFFC0
FFFE007FFFE0
FFFF00FFFFF0
FFFF83FFFFFE
FFFFFFFFFFFE
FFFFFFFFFFFE
FFFFFFFFFFFE
FFFFFFFFFFFE
7FFFFFFFFFFE
7FFFFFEFFFFC
7FFFFFCFFFFC
3FFFFF8FFFF8
1FFFFF07FFF8
0FFFFC03FFF0
03FFF001FFE0
007F80007F00
ENDCHAR
STARTCHAR 00E5
ENCODING 229
SWIDTH 562 0
DWIDTH 50 0
BBX 47 68 1 -1
BITMAP
000001FC0000
000007FF0000
00000FFF8000
00001FFFC000
00001F8FC000
00003F0FC000
00003F0FC000
00003F0FC000
00003F8FC000
00001FFF8000
00001FFF8000
00000FFE0000
000003F80000
000000000000
000000000000
000000000000
000000000000
00001FFE0000
0001FFFFE000
000FFFFFF800
003FFFFFFC00
007FFFFFFF00
00FFFFFFFF00
01FFFFFFFF80
03FFFFFFFFC0
03FFFFFFFFC0
07FFFFFFFFE0
07FFFFFFFFE0
07FFFFFFFFE0
0FFFF03FFFE0
0FFFE01FFFE0
0FFFC00FFFF0
07FF800FFFF0
07FF800FFFF0
07FF8007FFF0
03FF0007FFE0
01FF0007FFE0
002E0007FFE0
0000000FFFE0
00000FFFFFE0
0001FFFFFFE0
001FFFFFFFE0
007FFFFFFFE0
01FFFFFFFFE0
03FFFFFFFFE0
07FFFFFFFFC0
0FFFFC0FFFC0
1FFFE01FFFC0
3FFF801FFFC0
7FFF001FFFC0
7FFF001FFFC0
7FFE003FFFC0
FFFE003FFFC0
FFFE007FFFE0
FFFF00FFFFF0
FFFF83FFFFFE
FFFFFFFFFFFE
FFFFFFFFFFFE
FFFFFFFFFFFE
FFFFFFFFFFFE
7FFFFFFFFFFE
7FFFFFEFFFFC
7FFFFFCFFFFC
3FFFFF8FFFF8
1FFFFF07FFF8
0FFFFC03FFF0
03FFF001FFE0
007F80007F00
ENDCHAR
STARTCHAR 00E6
ENCODING 230
SWIDTH 832 0
DWIDTH 74 0
BBX 71 51 1 -1
BITMAP
00003FF800007FF000
0003FFFF0003FFFE00
001FFFFFC01FFFFF80
003FFFFFF03FFFFFE0
00FFFFFFF0FFFFFFF0
01FFFFFFF9FFFFFFF0
03FFFFFFFFFFFFFFF8
03FFFFFFFFFFFFFFFC
07FFFFFFFFFFFFFFFC
07FFFFFFFFFFFFFFFC
07FFFFFFFFFFFFFFFE
0FFFFFFFFFFFFFFFFE
0FFFF03FFFFF83FFFE
07FFE01FFFFE01FFFE
07FFC00FFFFC01FFFE
07FF800FFFFC01FFFE
03FF8007FFF800FFFE
01FF0007FFF800FFFE
003E0007FFF001FFFC
00000007FFF001FFFC
00000007FFF003FFF8
00000007FFF007FFF8
00000FFFFFF00FFFF0
0001FFFFFFE0FFFFE0
001FFFFFFFFFFFFFC0
007FFFFFFFFFFFFF80
01FFFFFFFFFFFFFF00
03FFFFFFFFFFFFFC00
07FFFFFFFFFFFFF000
0FFFFC0FFFFFFF8000
1FFFE00FFFFFF80000
3FFF801FFFE0000000
7FFF001FFFE0000000
7FFF001FFFE0000000
7FFE001FFFF0000000
FFFE003FFFF0001C00
FFFE003FFFF8003F00
FFFF007FFFF8007F80
FFFF81FFFFFE00FFC0
FFFFFFFFFFFF01FFE0
FFFFFFFFFFFFFFFFE0
FFFFFFFFFFFFFFFFE0
FFFFFFFFFFFFFFFFE0
7FFFFFFFFFFFFFFFE0
7FFFFFFEFFFFFFFFC0
7FFFFFFC7FFFFFFFC0
3FFFFFF83FFFFFFF80
1FFFFFE00FFFFFFE00
0FFFFF8007FFFFFC00
03FFFC0000FFFFE000
007FE000000FFE0000
ENDCHAR
STARTCHAR 00E7
ENCODING 231
SWIDTH 506 0
DWIDTH 45 0
BBX 41 67 3 -17
BITMAP
00001FFC0000
0001FFFF8000
0007FFFFE000
001FFFFFF800
007FFFFFFC00
00FFFFFFFE00
01FFFFFFFE00
03FFFFFFFF00
07FFFFFFFF00
07FFFFFFFF80
0FFFFFFFFF80
1FFFFFFFFF80
1FFFF07FFF80
1FFFE03FFF80
3FFFC01FFF80
3FFF801FFF80
7FFF801FFF00
7FFF001FFF00
7FFF001FFE00
7FFF001FFC00
FFFE001FF800
FFFE001FC000
FFFE00000000
FFFE00000000
FFFE00000000
FFFE00000000
FFFE00000000
FFFE00000000
FFFE00000000
FFFE00000000
FFFE00000000
FFFE00000000
FFFE00000000
FFFF00000000
FFFF00003800
FFFF0000F800
7FFF8001F800
7FFFC007F800
7FFFF87FF800
3FFFFFFFF800
3FFFFFFFF000
1FFFFFFFF000
1FFFFFFFF000
0FFFFFFFE000
07FFFFFFC000
03FFFFFF8000
01FFFFFF0000
007FFFFE0000
001FFFF80000
0007FFC00000
0000FE000000
0000FC000000
0000FC000000
0001FFC00000
0001FFF80000
0001FFFC0000
00007FFC0000
00000FFE0000
000003FE0000
000603FE0000
000F03FE0000
000FFFFC0000
000FFFFC0000
000FFFF80000
0007FFF00000
0003FFC00000
0000FF000000
ENDCHAR
STARTCHAR 00E8
ENCODING 232
SWIDTH 528 0
DWIDTH 47 0
BBX 44 75 2 -1
BITMAP
000003C00000
00000FE00000
00003FE00000
0000FFE00000
0001FFF00000
0001FFF00000
0001FFF80000
0000FFF80000
0000FFFC0000
00007FFC0000
00003FFC0000
00003FFE0000
00001FFE0000
00000FFF0000
000007FF0000
000003FF0000
000001FE0000
000000FC0000
000000700000
000000000000
000000000000
000000000000
000000000000
000000000000
000007FF8000
00007FFFF000
0001FFFFFC00
0007FFFFFE00
001FFFFFFF00
003FFFFFFF80
007FFFFFFFC0
00FFFFFFFFC0
01FFFFFFFFE0
03FFFFFFFFE0
03FFFFFFFFE0
07FFFFFFFFF0
07FFF83FFFF0
0FFFF01FFFF0
0FFFE00FFFF0
1FFFE00FFFF0
1FFFC00FFFE0
3FFFC00FFFE0
3FFF800FFFE0
3FFF800FFFE0
3FFF801FFFC0
7FFF003FFFC0
7FFF00FFFF80
7FFF07FFFF00
7FFFFFFFFE00
7FFFFFFFFC00
7FFFFFFFF800
7FFFFFFFE000
FFFFFFFF0000
FFFFFFF80000
FFFFFF800000
FFFF00000000
7FFF00000000
7FFF00000000
7FFF00000000
7FFF8000E000
7FFF8001F800
7FFFC003FC00
3FFFE007FE00
3FFFF81FFE00
1FFFFFFFFF00
1FFFFFFFFF00
0FFFFFFFFF00
0FFFFFFFFE00
07FFFFFFFE00
03FFFFFFFC00
01FFFFFFF800
007FFFFFF000
003FFFFFE000
0007FFFF0000
00007FF00000
ENDCHAR
STARTCHAR 00E9
ENCODING 233
SWIDTH 528 0
DWIDTH 47 0
BBX 44 75 2 -1
BITMAP
000000007800
00000000FF00
00000000FFC0
00000001FFE0
00000003FFF0
00000007FFF0
00000007FFF0
0000000FFFE0
0000001FFFC0
0000001FFF80
0000003FFF00
0000007FFE00
0000007FFC00
000000FFF800
000001FFE000
000001FFC000
000000FF8000
0000007E0000
000000380000
000000000000
000000000000
000000000000
000000000000
000000000000
000007FF8000
00007FFFF000
0001FFFFFC00
0007FFFFFE00
001FFFFFFF00
003FFFFFFF80
007FFFFFFFC0
00FFFFFFFFC0
01FFFFFFFFE0
03FFFFFFFFE0
03FFFFFFFFE0
07FFFFFFFFF0
07FFF83FFFF0
0FFFF01FFFF0
0FFFE00FFFF0
1FFFE00FFFF0
1FFFC00FFFE0
3FFFC00FFFE0
3FFF800FFFE0
3FFF800FFFE0
3FFF801FFFC0
7FFF003FFFC0
7FFF00FFFF80
7FFF07FFFF00
7FFFFFFFFE00
7FFFFFFFFC00
7FFFFFFFF800
7FFFFFFFE000
FFFFFFFF0000
FFFFFFF80000
FFFFFF800000
FFFF00000000
7FFF00000000
7FFF00000000
7FFF00000000
7FFF8000E000
7FFF8001F800
7FFFC003FC00
3FFFE007FE00
3FFFF81FFE00
1FFFFFFFFF00
1FFFFFFFFF00
0FFFFFFFFF00
0FFFFFFFFE00
07FFFFFFFE00
03FFFFFFFC00
01FFFFFFF800
007FFFFFF000
003FFFFFE000
0007FFFF0000
00007FF00000
ENDCHAR
STARTCHAR 00EA
ENCODING 234
SWIDTH 528 0
DWIDTH 47 0
BBX 44 75 2 -1
BITMAP
0000003FC000
000000FFE000
000001FFE000
000003FFF000
000007FFF800
00000FFFF800
00001FFFFC00
00001FFFFC00
00003FFFFE00
00007FFFFF00
0000FFF7FF00
0001FFE3FF80
0003FFC1FF80
0007FF81FFC0
0007FF00FFC0
000FFE007FE0
0007F8003FC0
0003F0001F80
0001C0000E00
000000000000
000000000000
000000000000
000000000000
000000000000
000007FF8000
00007FFFF000
0001FFFFFC00
0007FFFFFE00
001FFFFFFF00
003FFFFFFF80
007FFFFFFFC0
00FFFFFFFFC0
01FFFFFFFFE0
03FFFFFFFFE0
03FFFFFFFFE0
07FFFFFFFFF0
07FFF83FFFF0
0FFFF01FFFF0
0FFFE00FFFF0
1FFFE00FFFF0
1FFFC00FFFE0
3FFFC00FFFE0
3FFF800FFFE0
3FFF800FFFE0
3FFF801FFFC0
7FFF003FFFC0
7FFF00FFFF80
7FFF07FFFF00
7FFFFFFFFE00
7FFFFFFFFC00
7FFFFFFFF800
7FFFFFFFE000
FFFFFFFF0000
FFFFFFF80000
FFFFFF800000
FFFF00000000
7FFF00000000
7FFF00000000
7FFF00000000
7FFF8000E000
7FFF8001F800
7FFFC003FC00
3FFFE007FE00
3FFFF81FFE00
1FFFFFFFFF00
1FFFFFFFFF00
0FFFFFFFFF00
0FFFFFFFFE00
07FFFFFFFE00
03FFFFFFFC00
01FFFFFFF800
007FFFFFF000
003FFFFFE000
0007FFFF0000
00007FF00000
ENDCHAR
STARTCHAR 00EB
ENCODING 235
SWIDTH 528 0
DWIDTH 47 0
BBX 45 68 2 -1
BITMAP
0001FC001FC0
0007FE007FF0
000FFF00FFF0
001FFF00FFF8
001FFF81FFF8
001FFF81FFF8
001FFF01FFF8
001FFF01FFF0
001FFF01FFF0
001FFE01FFE0
000FFC00FFC0
0003E0003F00
000000000000
000000000000
000000000000
000000000000
000000000000
000007FF8000
00007FFFF000
0001FFFFFC00
0007FFFFFE00
001FFFFFFF00
003FFFFFFF80
007FFFFFFFC0
00FFFFFFFFC0
01FFFFFFFFE0
03FFFFFFFFE0
03FFFFFFFFE0
07FFFFFFFFF0
07FFF83FFFF0
0FFFF01FFFF0
0FFFE00FFFF0
1FFFE00FFFF0
1FFFC00FFFE0
3FFFC00FFFE0
3FFF800FFFE0
3FFF800FFFE0
3FFF801FFFC0
7FFF003FFFC0
7FFF00FFFF80
7FFF07FFFF00
7FFFFFFFFE00
7FFFFFFFFC00
7FFFFFFFF800
7FFFFFFFE000
FFFFFFFF0000
FFFFFFF80000
FFFFFF800000
FFFF00000000
7FFF00000000
7FFF00000000
7FFF00000000
7FFF8000E000
7FFF8001F800
7FFFC003FC00
3FFFE007FE00
3FFFF81FFE00
1FFFFFFFFF00
1FFFFFFFFF00
0FFFFFFFFF00
0FFFFFFFFE00
07FFFFFFFE00
03FFFFFFFC00
01FFFFFFF800
007FFFFFF000
003FFFFFE000
0007FFFF0000
00007FF00000
ENDCHAR
STARTCHAR 00EC
ENCODING 236
SWIDTH 281 0
DWIDTH 25 0
BBX 20 74 1 0
BITMAP
01E000
07F000
1FF000
7FF800
FFF800
FFF800
FFFC00
7FFC00
3FFE00
3FFE00
1FFF00
0FFF00
0FFF00
07FF80
03FF80
01FF80
00FF00
007E00
001C00
000000
000000
000000
000000
000000
000000
03FE00
03FF80
07FFC0
07FFE0
07FFE0
07FFF0
07FFF0
07FFF0
07FFF0
07FFF0
07FFF0
07FFF0
07FFF0
07FFF0
07FFE0
0FFFE0
0FFFE0
0FFFE0
0FFFE0
0FFFE0
0FFFE0
0FFFE0
0FFFE0
0FFFE0
0FFFE0
0FFFE0
0FFFE0
0FFFE0
1FFFC0
1FFFC0
1FFFC0
1FFFC0
1FFFC0
1FFFC0
1FFFC0
1FFFC0
1FFFC0
1FFFC0
1FFFC0
1FFFC0
1FFFC0
1FFF80
1FFF80
1FFF80
1FFF80
0FFF80
0FFF80
07FF80
00FF80
ENDCHAR
STARTCHAR 00ED
ENCODING 237
SWIDTH 281 0
DWIDTH 25 0
BBX 26 74 4 0
BITMAP
0003C000
0007F800
0007FE00
000FFF00
001FFF80
001FFFC0
003FFF80
007FFF00
007FFE00
00FFFC00
01FFF800
01FFF000
03FFE000
07FFC000
07FF8000
07FE0000
07FC0000
03F00000
00E00000
00000000
00000000
00000000
00000000
00000000
00000000
1FF00000
1FFC0000
3FFE0000
3FFF0000
3FFF0000
3FFF8000
3FFF8000
3FFF8000
3FFF8000
3FFF8000
3FFF8000
3FFF8000
3FFF8000
3FFF8000
3FFF0000
7FFF0000
7FFF0000
7FFF0000
7FFF0000
7FFF0000
7FFF0000
7FFF0000
7FFF0000
7FFF0000
7FFF0000
7FFF0000
7FFF0000
7FFF0000
FFFE0000
FFFE0000
FFFE0000
FFFE0000
FFFE0000
FFFE0000
FFFE0000
FFFE0000
FFFE0000
FFFE0000
FFFE0000
FFFE0000
FFFE0000
FFFC0000
FFFC0000
FFFC0000
FFFC0000
7FFC0000
7FFC0000
3FFC0000
07FC0000
ENDCHAR
STARTCHAR 00EE
ENCODING 238
SWIDTH 281 0
DWIDTH 25 0
BBX 30 74 -2 0
BITMAP
0007F800
001FFC00
003FFE00
007FFE00
007FFF00
00FFFF80
01FFFF80
03FFFFC0
07FFFFC0
0FFFFFE0
1FFFFFF0
3FFE7FF0
3FFC3FF8
7FF01FF8
FFE00FFC
FFC00FFC
7F8007F8
7E0003F0
1C0000E0
00000000
00000000
00000000
00000000
00000000
00000000
007FC000
007FF000
00FFF800
00FFFC00
00FFFC00
00FFFE00
00FFFE00
00FFFE00
00FFFE00
00FFFE00
00FFFE00
00FFFE00
00FFFE00
00FFFE00
00FFFC00
01FFFC00
01FFFC00
01FFFC00
01FFFC00
01FFFC00
01FFFC00
01FFFC00
01FFFC00
01FFFC00
01FFFC00
01FFFC00
01FFFC00
01FFFC00
03FFF800
03FFF800
03FFF800
03FFF800
03FFF800
03FFF800
03FFF800
03FFF800
03FFF800
03FFF800
03FFF800
03FFF800
03FFF800
03FFF000
03FFF000
03FFF000
03FFF000
01FFF000
01FFF000
00FFF000
001FF000
ENDCHAR
STARTCHAR 00EF
ENCODING 239
SWIDTH 281 0
DWIDTH 25 0
BBX 35 67 -2 0
BITMAP
07E0007F00
1FF801FF80
3FFC03FFC0
7FFC07FFC0
7FFC07FFE0
FFFC07FFE0
FFFC07FFE0
FFFC07FFC0
7FF807FFC0
7FF807FF80
3FF003FF00
0F8000FC00
0000000000
0000000000
0000000000
0000000000
0000000000
0000000000
007FC00000
007FF00000
00FFF80000
00FFFC0000
00FFFC0000
00FFFE0000
00FFFE0000
00FFFE0000
00FFFE0000
00FFFE0000
00FFFE0000
00FFFE0000
00FFFE0000
00FFFE0000
00FFFC0000
01FFFC0000
01FFFC0000
01FFFC0000
01FFFC0000
01FFFC0000
01FFFC0000
01FFFC0000
01FFFC0000
01FFFC0000
01FFFC0000
01FFFC0000
01FFFC0000
01FFFC0000
03FFF80000
03FFF80000
03FFF80000
03FFF80000
03FFF80000
03FFF80000
03FFF80000
03FFF80000
03FFF80000
03FFF80000
03FFF80000
03FFF80000
03FFF80000
03FFF00000
03FFF00000
03FFF00000
03FFF00000
01FFF00000
01FFF00000
00FFF00000
001FF00000
ENDCHAR
STARTCHAR 00F0
ENCODING 240
SWIDTH 607 0
DWIDTH 54 0
BBX 52 68 1 -1
BITMAP
000007FC000000
00001FFF800000
00003FFFE00000
00007FFFF801C0
0000FFFFFC07C0
0000FFFFFE1FE0
0000FFFFFFFFE0
0000FFFFFFFFE0
0000FFFFFFFFE0
0000FFFFFFFFF0
00001FFFFFFFF0
000001FFFFFFE0
0000007FFFFFC0
000003FFFFFF80
000007FFFFFE00
00000FFFFFFC00
00000FFFFFFE00
00000FFFFFFE00
00000FFFFFFE00
00000FFFFFFF00
00000FFFFFFF00
00000FF87FFF00
000007E07FFF80
000007007FFF80
000000007FFF80
000000007FFF80
0000FF807FFF80
000FFFE03FFF80
003FFFF87FFF80
007FFFFC7FFFC0
01FFFFFE7FFFC0
03FFFFFF7FFFC0
07FFFFFFFFFFC0
0FFFFFFFFFFFC0
0FFFFFFFFFFFC0
1FFFFFFFFFFFC0
1FFFFFFFFFFFC0
3FFFF81FFFFF80
3FFFF00FFFFF80
7FFFE007FFFF80
7FFFC003FFFF80
7FFFC003FFFF80
7FFFC001FFFF80
7FFF8001FFFF80
FFFF8001FFFF80
FFFF8001FFFF00
FFFF8001FFFF00
FFFF8001FFFF00
FFFFC001FFFF00
7FFFC003FFFE00
7FFFC003FFFE00
7FFFE007FFFE00
7FFFF007FFFC00
7FFFFC1FFFFC00
3FFFFFFFFFF800
3FFFFFFFFFF800
3FFFFFFFFFF000
1FFFFFFFFFE000
1FFFFFFFFFE000
0FFFFFFFFFC000
07FFFFFFFF8000
03FFFFFFFF0000
01FFFFFFFE0000
00FFFFFFFC0000
007FFFFFF00000
001FFFFFE00000
0007FFFF000000
00007FF8000000
ENDCHAR
STARTCHAR 00F1
ENCODING 241
SWIDTH 618 0
DWIDTH 55 0
BBX 47 70 4 0
BITMAP
00007F80000C
0001FFE0001E
0007FFF8003E
000FFFFC007E
001FFFFF00FE
001FFFFFC3FE
003FFFFFFFFE
003FFFFFFFFE
003FFFFFFFFC
007FFFFFFFFC
007F83FFFFF8
007F00FFFFF8
007E007FFFF0
007C003FFFC0
0078000FFF80
00300003FC00
000000000000
000000000000
000000000000
000000000000
0000001FF800
1FF000FFFF00
3FFC03FFFFC0
3FFE07FFFFE0
3FFF0FFFFFF0
3FFF1FFFFFF8
3FFFBFFFFFF8
3FFFFFFFFFFC
3FFFFFFFFFFC
3FFFFFFFFFFC
3FFFFFFFFFFC
3FFFFFFFFFFE
3FFFFE07FFFE
3FFFF801FFFE
7FFFF001FFFE
7FFFE000FFFE
7FFFE000FFFE
7FFFC000FFFE
7FFFC000FFFE
7FFFC000FFFE
7FFF8000FFFE
7FFF8000FFFE
7FFF8000FFFC
7FFF8000FFFC
7FFF0001FFFC
7FFF0001FFFC
7FFF0001FFFC
7FFF0001FFFC
FFFF0001FFFC
FFFF0001FFFC
FFFF0001FFFC
FFFE0001FFFC
FFFE0001FFFC
FFFE0001FFFC
FFFE0001FFF8
FFFE0003FFF8
FFFE0003FFF8
FFFE0003FFF8
FFFE0003FFF8
FFFE0003FFF8
FFFC0003FFF8
FFFC0003FFF8
FFFC0003FFF8
FFFC0003FFF8
FFFC0003FFF8
FFFC0003FFF8
7FFC0001FFF0
7FFC0001FFF0
3FFC0000FFF0
07FC00001FF0
ENDCHAR
STARTCHAR 00F2
ENCODING 242
SWIDTH 596 0
DWIDTH 53 0
BBX 47 75 3 -1
BITMAP
000001C00000
00000FE00000
00003FE00000
00007FF00000
0000FFF00000
0001FFF80000
0000FFF80000
0000FFF80000
00007FFC0000
00007FFC0000
00003FFE0000
00001FFE0000
00000FFE0000
00000FFF0000
000007FF0000
000003FF0000
000001FE0000
000000FC0000
000000380000
000000000000
000000000000
000000000000
000000000000
000000000000
00000FFF0000
0000FFFFF000
0007FFFFFC00
000FFFFFFF00
003FFFFFFF80
007FFFFFFFC0
01FFFFFFFFE0
03FFFFFFFFF0
03FFFFFFFFF0
07FFFFFFFFF8
0FFFFFFFFFF8
0FFFFFFFFFFC
1FFFF80FFFFC
3FFFF003FFFC
3FFFC003FFFE
3FFFC001FFFE
7FFF8001FFFE
7FFF0000FFFE
7FFF0000FFFE
7FFF0000FFFE
FFFE0000FFFE
FFFE0000FFFE
FFFE0000FFFE
FFFE0000FFFE
FFFE0000FFFE
FFFE0000FFFE
FFFE0000FFFE
FFFE0001FFFE
FFFE0001FFFE
FFFE0001FFFC
FFFE0001FFFC
FFFE0003FFFC
FFFE0003FFFC
FFFE0003FFF8
FFFF0007FFF8
FFFF000FFFF8
FFFF800FFFF0
7FFFC01FFFF0
7FFFE07FFFE0
7FFFFFFFFFE0
3FFFFFFFFFC0
3FFFFFFFFF80
1FFFFFFFFF80
1FFFFFFFFF00
0FFFFFFFFE00
07FFFFFFFC00
03FFFFFFF000
01FFFFFFE000
007FFFFF8000
001FFFFE0000
0003FFE00000
ENDCHAR
STARTCHAR 00F3
ENCODING 243
SWIDTH 596 0
DWIDTH 53 0
BBX 47 75 3 -1
BITMAP
00000000F000
00000000FE00
00000001FF80
00000003FFC0
00000007FFE0
00000007FFF0
0000000FFFE0
0000001FFFC0
0000001FFFC0
0000003FFF80
0000007FFE00
0000007FFC00
000000FFF800
000001FFF000
000001FFE000
000001FF8000
000001FF0000
000000FC0000
000000380000
000000000000
000000000000
000000000000
000000000000
000000000000
00000FFF0000
0000FFFFF000
0007FFFFFC00
000FFFFFFF00
003FFFFFFF80
007FFFFFFFC0
01FFFFFFFFE0
03FFFFFFFFF0
03FFFFFFFFF0
07FFFFFFFFF8
0FFFFFFFFFF8
0FFFFFFFFFFC
1FFFF80FFFFC
3FFFF003FFFC
3FFFC003FFFE
3FFFC001FFFE
7FFF8001FFFE
7FFF0000FFFE
7FFF0000FFFE
7FFF0000FFFE
FFFE0000FFFE
FFFE0000FFFE
FFFE0000FFFE
FFFE0000FFFE
FFFE0000FFFE
FFFE0000FFFE
FFFE0000FFFE
FFFE0001FFFE
FFFE0001FFFE
FFFE0001FFFC
FFFE0001FFFC
FFFE0003FFFC
FFFE0003FFFC
FFFE0003FFF8
FFFF0007FFF8
FFFF000FFFF8
FFFF800FFFF0
7FFFC01FFFF0
7FFFE07FFFE0
7FFFFFFFFFE0
3FFFFFFFFFC0
3FFFFFFFFF80
1FFFFFFFFF80
1FFFFFFFFF00
0FFFFFFFFE00
07FFFFFFFC00
03FFFFFFF000
01FFFFFFE000
007FFFFF8000
001FFFFE0000
0003FFE00000
ENDCHAR
STARTCHAR 00F4
ENCODING 244
SWIDTH 596 0
DWIDTH 53 0
BBX 47 75 3 -1
BITMAP
0000003FC000
000000FFE000
000001FFE000
000003FFF000
000007FFF800
00000FFFF800
00001FFFFC00
00003FFFFC00
00003FFFFE00
00007FFFFF00
0000FFF7FF00
0001FFE3FF80
0003FFC1FF80
0007FF81FFC0
0007FF00FFC0
000FFE007FE0
0007F8003FC0
0003F0001F80
0001C0000E00
000000000000
000000000000
000000000000
000000000000
000000000000
00000FFF0000
0000FFFFF000
0007FFFFFC00
000FFFFFFF00
003FFFFFFF80
007FFFFFFFC0
01FFFFFFFFE0
03FFFFFFFFF0
03FFFFFFFFF0
07FFFFFFFFF8
0FFFFFFFFFF8
0FFFFFFFFFFC
1FFFF80FFFFC
3FFFF003FFFC
3FFFC003FFFE
3FFFC001FFFE
7FFF8001FFFE
7FFF0000FFFE
7FFF0000FFFE
7FFF0000FFFE
FFFE0000FFFE
FFFE0000FFFE
FFFE0000FFFE
FFFE0000FFFE
FFFE0000FFFE
FFFE0000FFFE
FFFE0000FFFE
FFFE0001FFFE
FFFE0001FFFE
FFFE0001FFFC
FFFE0001FFFC
FFFE0003FFFC
FFFE0003FFFC
FFFE0003FFF8
FFFF0007FFF8
FFFF000FFFF8
FFFF800FFFF0
7FFFC01FFFF0
7FFFE07FFFE0
7FFFFFFFFFE0
3FFFFFFFFFC0
3FFFFFFFFF80
1FFFFFFFFF80
1FFFFFFFFF00
0FFFFFFFFE00
07FFFFFFFC00
03FFFFFFF000
01FFFFFFE000
007FFFFF8000
001FFFFE0000
0003FFE00000
ENDCHAR
STARTCHAR 00F5
ENCODING 245
SWIDTH 596 0
DWIDTH 53 0
BBX 47 71 3 -1
BITMAP
00007F80000C
0001FFE0001E
0007FFF8003E
000FFFFC007E
001FFFFF00FE
001FFFFF83FE
003FFFFFFFFE
003FFFFFFFFC
007FFFFFFFFC
007FFFFFFFFC
007F83FFFFF8
007E01FFFFF0
007C007FFFE0
007C003FFFC0
0078000FFF80
00300003FC00
000000000000
000000000000
000000000000
000000000000
00000FFF0000
0000FFFFF000
0007FFFFFC00
000FFFFFFF00
003FFFFFFF80
007FFFFFFFC0
01FFFFFFFFE0
03FFFFFFFFF0
03FFFFFFFFF0
07FFFFFFFFF8
0FFFFFFFFFF8
0FFFFFFFFFFC
1FFFF80FFFFC
3FFFF003FFFC
3FFFC003FFFE
3FFFC001FFFE
7FFF8001FFFE
7FFF0000FFFE
7FFF0000FFFE
7FFF0000FFFE
FFFE0000FFFE
FFFE0000FFFE
FFFE0000FFFE
FFFE0000FFFE
FFFE0000FFFE
FFFE0000FFFE
FFFE0000FFFE
FFFE0001FFFE
FFFE0001FFFE
FFFE0001FFFC
FFFE0001FFFC
FFFE0003FFFC
FFFE0003FFFC
FFFE0003FFF8
FFFF0007FFF8
FFFF000FFFF8
FFFF800FFFF0
7FFFC01FFFF0
7FFFE07FFFE0
7FFFFFFFFFE0
3FFFFFFFFFC0
3FFFFFFFFF80
1FFFFFFFFF80
1FFFFFFFFF00
0FFFFFFFFE00
07FFFFFFFC00
03FFFFFFF000
01FFFFFFE000
007FFFFF8000
001FFFFE0000
0003FFE00000
ENDCHAR
STARTCHAR 00F6
ENCODING 246
SWIDTH 596 0
DWIDTH 53 0
BBX 47 68 3 -1
BITMAP
0001F8001FC0
0007FE007FE0
000FFF00FFF0
001FFF01FFF0
001FFF01FFF8
003FFF01FFF8
003FFF01FFF8
003FFF01FFF0
001FFF01FFF0
001FFE01FFE0
000FFC00FFC0
0003E0003F00
000000000000
000000000000
000000000000
000000000000
000000000000
00000FFF0000
0000FFFFF000
0007FFFFFC00
000FFFFFFF00
003FFFFFFF80
007FFFFFFFC0
01FFFFFFFFE0
03FFFFFFFFF0
03FFFFFFFFF0
07FFFFFFFFF8
0FFFFFFFFFF8
0FFFFFFFFFFC
1FFFF80FFFFC
3FFFF003FFFC
3FFFC003FFFE
3FFFC001FFFE
7FFF8001FFFE
7FFF0000FFFE
7FFF0000FFFE
7FFF0000FFFE
FFFE0000FFFE
FFFE0000FFFE
FFFE0000FFFE
FFFE0000FFFE
FFFE0000FFFE
FFFE0000FFFE
FFFE0000FFFE
FFFE0001FFFE
FFFE0001FFFE
FFFE0001FFFC
FFFE0001FFFC
FFFE0003FFFC
FFFE0003FFFC
FFFE0003FFF8
FFFF0007FFF8
FFFF000FFFF8
FFFF800FFFF0
7FFFC01FFFF0
7FFFE07FFFE0
7FFFFFFFFFE0
3FFFFFFFFFC0
3FFFFFFFFF80
1FFFFFFFFF80
1FFFFFFFFF00
0FFFFFFFFE00
07FFFFFFFC00
03FFFFFFF000
01FFFFFFE000
007FFFFF8000
001FFFFE0000
0003FFE00000
ENDCHAR
STARTCHAR 00F7
ENCODING 247
SWIDTH 483 0
DWIDTH 43 0
BBX 39 50 2 0
BITMAP
00000FE000
00003FF000
0000FFF800
0000FFFC00
0001FFFC00
0001FFFC00
0001FFFC00
0001FFFC00
0001FFFC00
0001FFFC00
0001FFF800
0001FFF800
0000FFF000
0000FFE000
00003F8000
0000000000
0000000000
0000000000
0000000000
1FFFFFFFFC
3FFFFFFFFE
7FFFFFFFFC
7FFFFFFFFC
FFFFFFFFFC
FFFFFFFFFC
FFFFFFFFFC
FFFFFFFFFC
FFFFFFFFF8
FFFFFFFFF8
FFFFFFFFE0
0000000000
0000000000
0000000000
0000000000
0000000000
0001FC0000
0007FF0000
000FFF0000
001FFF8000
003FFF8000
003FFF8000
003FFF8000
003FFF8000
003FFF8000
003FFF8000
003FFF0000
003FFF0000
001FFE0000
000FFC0000
0007F00000
ENDCHAR
STARTCHAR 00F8
ENCODING 248
SWIDTH 596 0
DWIDTH 53 0
BBX 47 63 3 -6
BITMAP
000000000010
0000000001FC
0000000003FE
0000000007FE
0000000007FE
000000000FFC
000000001FFC
00000FFF3FF8
0000FFFFFFF8
0007FFFFFFF0
000FFFFFFFF0
003FFFFFFFE0
007FFFFFFFC0
01FFFFFFFFE0
03FFFFFFFFF0
03FFFFFFFFF0
07FFFFFFFFF8
0FFFFFFFFFF8
1FFFFFFFFFFC
1FFFF83FFFFC
3FFFE07FFFFC
3FFFC07FFFFE
3FFF80FFFFFE
7FFF01FFFFFE
7FFE03FFFFFE
7FFE03FFFFFE
FFFE07FFFFFE
FFFC0FFFFFFE
FFFC0FFF7FFE
FFFC1FFE7FFE
FFFC3FFE7FFE
FFFC7FFC7FFE
FFF87FF87FFE
FFF8FFF07FFE
FFF9FFF07FFE
FFF9FFE07FFE
FFFBFFC0FFFC
FFFFFFC0FFFC
FFFFFF80FFFC
FFFFFF01FFFC
FFFFFE01FFF8
FFFFFE03FFF8
FFFFFC07FFF8
FFFFF80FFFF0
7FFFF81FFFF0
7FFFF03FFFE0
7FFFFFFFFFE0
3FFFFFFFFFC0
3FFFFFFFFF80
1FFFFFFFFF80
1FFFFFFFFF00
0FFFFFFFFE00
0FFFFFFFFC00
1FFFFFFFF000
3FFFFFFFE000
3FFFFFFF8000
7FFFFFFE0000
7FF1FFE00000
7FE000000000
7FC000000000
7FC000000000
7F8000000000
3E0000000000
ENDCHAR
STARTCHAR 00F9
ENCODING 249
SWIDTH 596 0
DWIDTH 53 0
BBX 45 75 4 -1
BITMAP
00001E000000
00007F000000
0001FF000000
0003FF800000
0007FF800000
000FFFC00000
000FFFC00000
0007FFC00000
0003FFE00000
0003FFE00000
0001FFF00000
0000FFF00000
0000FFF00000
00007FF80000
00003FF80000
00001FF80000
00000FF00000
000007E00000
000001C00000
000000000000
000000000000
000000000000
000000000000
000000000000
000000000000
1FF00000FF00
3FFC0001FFE0
3FFE0001FFF0
3FFF0001FFF0
3FFF0001FFF8
3FFF0001FFF8
3FFF8001FFF8
3FFF8001FFF8
3FFF8003FFF8
3FFF8003FFF8
7FFF8003FFF8
7FFF0003FFF8
7FFF0003FFF8
7FFF0003FFF8
7FFF0003FFF8
7FFF0003FFF8
7FFF0003FFF8
7FFF0003FFF8
7FFF0003FFF8
7FFF0003FFF8
7FFF0007FFF0
7FFF0007FFF0
7FFF0007FFF0
7FFE0007FFF0
7FFE0007FFF0
FFFE0007FFF0
FFFE0007FFF0
FFFE000FFFF0
FFFE000FFFF0
FFFE000FFFF0
FFFE000FFFF0
FFFE001FFFF0
FFFE001FFFF0
FFFE003FFFF0
FFFE003FFFE0
FFFF007FFFE0
FFFF80FFFFE0
FFFFC1FFFFE0
FFFFFFFFFFE0
FFFFFFFFFFE0
7FFFFFFFFFE0
7FFFFFFFFFE0
7FFFFFFFFFE0
3FFFFFEFFFE0
1FFFFFCFFFE0
1FFFFF87FFE0
0FFFFF03FFE0
03FFFE01FFC0
01FFF8007FC0
003FC0000000
ENDCHAR
STARTCHAR 00FA
ENCODING 250
SWIDTH 596 0
DWIDTH 53 0
BBX 45 75 4 -1
BITMAP
000000078000
00000007F000
0000000FFC00
0000001FFE00
0000003FFF00
0000003FFF80
0000007FFF00
000000FFFE00
000000FFFE00
000001FFF800
000003FFF000
000003FFE000
000007FFC000
00000FFF8000
00000FFF0000
00000FFC0000
00000FF80000
000007E00000
000001C00000
000000000000
000000000000
000000000000
000000000000
000000000000
000000000000
1FF00000FF00
3FFC0001FFE0
3FFE0001FFF0
3FFF0001FFF0
3FFF0001FFF8
3FFF0001FFF8
3FFF8001FFF8
3FFF8001FFF8
3FFF8003FFF8
3FFF8003FFF8
7FFF8003FFF8
7FFF0003FFF8
7FFF0003FFF8
7FFF0003FFF8
7FFF0003FFF8
7FFF0003FFF8
7FFF0003FFF8
7FFF0003FFF8
7FFF0003FFF8
7FFF0003FFF8
7FFF0007FFF0
7FFF0007FFF0
7FFF0007FFF0
7FFE0007FFF0
7FFE0007FFF0
FFFE0007FFF0
FFFE0007FFF0
FFFE000FFFF0
FFFE000FFFF0
FFFE000FFFF0
FFFE000FFFF0
FFFE001FFFF0
FFFE001FFFF0
FFFE003FFFF0
FFFE003FFFE0
FFFF007FFFE0
FFFF80FFFFE0
FFFFC1FFFFE0
FFFFFFFFFFE0
FFFFFFFFFFE0
7FFFFFFFFFE0
7FFFFFFFFFE0
7FFFFFFFFFE0
3FFFFFEFFFE0
1FFFFFCFFFE0
1FFFFF87FFE0
0FFFFF03FFE0
03FFFE01FFC0
01FFF8007FC0
003FC0000000
ENDCHAR
STARTCHAR 00FB
ENCODING 251
SWIDTH 596 0
DWIDTH 53 0
BBX 45 75 4 -1
BITMAP
000003FC0000
00000FFE0000
00001FFF0000
00001FFF0000
00003FFF8000
00007FFFC000
0000FFFFC000
0001FFFFE000
0003FFFFE000
0007FFFFF000
000FFFFFF800
001FFF3FF800
001FFE1FFC00
003FF80FFC00
007FF007FE00
007FE007FE00
003FC003FC00
001F0001F800
000E00007000
000000000000
000000000000
000000000000
000000000000
000000000000
000000000000
1FF00000FF00
3FFC0001FFE0
3FFE0001FFF0
3FFF0001FFF0
3FFF0001FFF8
3FFF0001FFF8
3FFF8001FFF8
3FFF8001FFF8
3FFF8003FFF8
3FFF8003FFF8
7FFF8003FFF8
7FFF0003FFF8
7FFF0003FFF8
7FFF0003FFF8
7FFF0003FFF8
7FFF0003FFF8
7FFF0003FFF8
7FFF0003FFF8
7FFF0003FFF8
7FFF0003FFF8
7FFF0007FFF0
7FFF0007FFF0
7FFF0007FFF0
7FFE0007FFF0
7FFE0007FFF0
FFFE0007FFF0
FFFE0007FFF0
FFFE000FFFF0
FFFE000FFFF0
FFFE000FFFF0
FFFE000FFFF0
FFFE001FFFF0
FFFE001FFFF0
FFFE003FFFF0
FFFE003FFFE0
FFFF007FFFE0
FFFF80FFFFE0
FFFFC1FFFFE0
FFFFFFFFFFE0
FFFFFFFFFFE0
7FFFFFFFFFE0
7FFFFFFFFFE0
7FFFFFFFFFE0
3FFFFFEFFFE0
1FFFFFCFFFE0
1FFFFF87FFE0
0FFFFF03FFE0
03FFFE01FFC0
01FFF8007FC0
003FC0000000
ENDCHAR
STARTCHAR 00FC
ENCODING 252
SWIDTH 596 0
DWIDTH 53 0
BBX 45 67 4 -1
BITMAP
000FC000FE00
003FF003FF00
007FF807FF80
00FFF80FFFC0
00FFF80FFFC0
01FFF80FFFC0
01FFF80FFFC0
01FFF80FFF80
00FFF80FFF80
00FFF00FFF00
007FE007FE00
001F8001F800
000000000000
000000000000
000000000000
000000000000
000000000000
1FF00000FF00
3FFC0001FFE0
3FFE0001FFF0
3FFF0001FFF0
3FFF0001FFF8
3FFF0001FFF8
3FFF8001FFF8
3FFF8001FFF8
3FFF8003FFF8
3FFF8003FFF8
7FFF8003FFF8
7FFF0003FFF8
7FFF0003FFF8
7FFF0003FFF8
7FFF0003FFF8
7FFF0003FFF8
7FFF0003FFF8
7FFF0003FFF8
7FFF0003FFF8
7FFF0003FFF8
7FFF0007FFF0
7FFF0007FFF0
7FFF0007FFF0
7FFE0007FFF0
7FFE0007FFF0
FFFE0007FFF0
FFFE0007FFF0
FFFE000FFFF0
FFFE000FFFF0
FFFE000FFFF0
FFFE000FFFF0
FFFE001FFFF0
FFFE001FFFF0
FFFE003FFFF0
FFFE003FFFE0
FFFF007FFFE0
FFFF80FFFFE0
FFFFC1FFFFE0
FFFFFFFFFFE0
FFFFFFFFFFE0
7FFFFFFFFFE0
7FFFFFFFFFE0
7FFFFFFFFFE0
3FFFFFEFFFE0
1FFFFFCFFFE0
1FFFFF87FFE0
0FFFFF03FFE0
03FFFE01FFC0
01FFF8007FC0
003FC0000000
ENDCHAR
STARTCHAR 00FD
ENCODING 253
SWIDTH 607 0
DWIDTH 54 0
BBX 47 92 3 -17
BITMAP
000000008000
00000003F000
00000003FC00
00000007FF00
0000000FFF80
0000001FFFC0
0000001FFFC0
0000003FFF80
0000007FFF00
0000007FFE00
000000FFFC00
000001FFF800
000001FFF000
000003FFE000
000007FFC000
000007FF0000
000007FE0000
000003F80000
000001F00000
000000400000
000000000000
000000000000
000000000000
000000000000
000000000000
038000001C00
0FFC00007FF0
1FFF00007FF8
1FFF80007FFC
1FFF80007FFC
1FFF80007FFE
1FFF8000FFFE
1FFFC000FFFE
1FFFC000FFFE
1FFFC000FFFE
1FFFC000FFFE
3FFFC000FFFE
3FFF8000FFFE
3FFF8000FFFE
3FFF8000FFFE
3FFF8000FFFE
3FFF8000FFFE
3FFF8000FFFE
3FFF8001FFFE
3FFF8001FFFC
3FFF8001FFFC
3FFF8001FFFC
3FFF0001FFFC
3FFF0001FFFC
7FFF0001FFFC
7FFF0003FFFC
7FFF0003FFFC
7FFF0003FFFC
7FFF0007FFFC
7FFF0007FFFC
7FFF000FFFFC
7FFF000FFFFC
7FFF801FFFF8
7FFFC03FFFF8
3FFFE0FFFFF8
3FFFFFFFFFF8
3FFFFFFFFFF8
3FFFFFFFFFF8
3FFFFFFFFFF8
1FFFFFFFFFF8
1FFFFFFBFFF8
0FFFFFFBFFF8
07FFFFF3FFF8
03FFFFE3FFF8
01FFFF83FFF8
00FFFF03FFF8
001FF807FFF0
00000007FFF0
00000007FFF0
00000007FFF0
07C0000FFFF0
1FC0000FFFF0
3FE0001FFFF0
7FF0003FFFE0
FFF8007FFFE0
FFFE01FFFFC0
FFFFFFFFFFC0
FFFFFFFFFF80
FFFFFFFFFF80
7FFFFFFFFF00
7FFFFFFFFE00
3FFFFFFFFC00
1FFFFFFFF800
07FFFFFFE000
01FFFFFFC000
007FFFFE0000
0003FFE00000
ENDCHAR
STARTCHAR 00FE
ENCODING 254
SWIDTH 607 0
DWIDTH 54 0
BBX 49 83 2 -17
BITMAP
03FE0000000000
03FF8000000000
03FFC000000000
03FFE000000000
07FFF000000000
07FFF000000000
07FFF000000000
07FFF000000000
07FFF000000000
07FFF000000000
07FFF000000000
07FFF000000000
07FFF000000000
07FFF000000000
07FFF000000000
07FFF000000000
07FFF00FF80000
07FFF07FFF0000
07FFF0FFFFC000
07FFE3FFFFE000
07FFE7FFFFF000
0FFFE7FFFFF800
0FFFEFFFFFFC00
0FFFFFFFFFFC00
0FFFFFFFFFFE00
0FFFFFFFFFFE00
0FFFFFFFFFFF00
0FFFFFFFFFFF00
0FFFFE07FFFF00
0FFFF801FFFF00
0FFFF001FFFF80
0FFFF000FFFF80
0FFFE000FFFF80
0FFFE000FFFF80
1FFFC0007FFF80
1FFFC0007FFF80
1FFFC0007FFF80
1FFF80007FFF80
1FFF80007FFF80
1FFF80007FFF80
1FFF80007FFF80
1FFF80007FFF80
1FFF80007FFF80
1FFF80007FFF80
1FFF80007FFF80
1FFF80007FFF80
1FFF8000FFFF00
3FFF8000FFFF00
3FFFC000FFFF00
3FFFC000FFFF00
3FFFC001FFFE00
3FFFE003FFFE00
3FFFE003FFFE00
3FFFF007FFFC00
3FFFF81FFFFC00
3FFFFFFFFFF800
3FFFFFFFFFF800
3FFFFFFFFFF000
3FFFFFFFFFF000
7FFFFFFFFFE000
7FFF7FFFFFC000
7FFF3FFFFF8000
7FFF3FFFFF0000
7FFF1FFFFE0000
7FFF0FFFF80000
7FFF03FFE00000
7FFF00FF000000
7FFF0000000000
7FFF0000000000
7FFF0000000000
7FFE0000000000
7FFE0000000000
7FFE0000000000
7FFE0000000000
FFFE0000000000
FFFE0000000000
7FFE0000000000
7FFE0000000000
7FFE0000000000
7FFE0000000000
3FFE0000000000
1FFE0000000000
07FC0000000000
ENDCHAR
STARTCHAR 00FF
ENCODING 255
SWIDTH 607 0
DWIDTH 54 0
BBX 47 85 3 -17
BITMAP
0001F0003F00
000FFC00FFC0
001FFC01FFE0
003FFE03FFE0
007FFE03FFE0
007FFE07FFE0
007FFE07FFE0
007FFE07FFE0
007FFC03FFE0
003FFC03FFC0
003FF801FF80
000FE000FE00
000000000000
000000000000
000000000000
000000000000
000000000000
000000000000
0FF000003F80
0FFE00007FF0
1FFF00007FF8
1FFF80007FFC
1FFF80007FFE
1FFF80007FFE
1FFFC000FFFE
1FFFC000FFFE
1FFFC000FFFE
1FFFC000FFFE
1FFFC000FFFE
3FFFC000FFFE
3FFF8000FFFE
3FFF8000FFFE
3FFF8000FFFE
3FFF8000FFFE
3FFF8000FFFE
3FFF8000FFFE
3FFF8001FFFE
3FFF8001FFFC
3FFF8001FFFC
3FFF8001FFFC
3FFF0001FFFC
3FFF0001FFFC
7FFF0001FFFC
7FFF0003FFFC
7FFF0003FFFC
7FFF0003FFFC
7FFF0007FFFC
7FFF0007FFFC
7FFF000FFFFC
7FFF000FFFFC
7FFF801FFFF8
7FFFC03FFFF8
3FFFE0FFFFF8
3FFFFFFFFFF8
3FFFFFFFFFF8
3FFFFFFFFFF8
3FFFFFFFFFF8
1FFFFFFFFFF8
1FFFFFFBFFF8
0FFFFFFBFFF8
07FFFFF3FFF8
03FFFFE3FFF8
01FFFF83FFF8
00FFFF03FFF8
001FF807FFF0
00000007FFF0
00000007FFF0
00000007FFF0
03C0000FFFF0
1FC0000FFFF0
3FE0001FFFF0
7FF0003FFFE0
FFF8007FFFE0
FFFE01FFFFC0
FFFFFFFFFFC0
FFFFFFFFFF80
FFFFFFFFFF80
7FFFFFFFFF00
7FFFFFFFFE00
3FFFFFFFFC00
1FFFFFFFF800
07FFFFFFE000
01FFFFFFC000
007FFFFE0000
0003FFE00000
ENDCHAR
STARTCHAR 0100
ENCODING 256
SWIDTH 618 0
DWIDTH 55 0
BBX 52 81 1 0
BITMAP
00007FFFFFF800
0001FFFFFFF800
0003FFFFFFF800
0003FFFFFFF800
0003FFFFFFF800
0007FFFFFFF800
0007FFFFFFF800
0007FFFFFFF000
0007FFFFFFF000
0007FFFFFFC000
00000000000000
00000000000000
00000000000000
00000000000000
00000000000000
00000000000000
00000000000000
00000000000000
00000FFFE00000
00000FFFF00000
00001FFFF80000
00001FFFFC0000
00003FFFFE0000
00003FFFFE0000
00007FFFFE0000
00007FFFFF0000
0000FFFFFF0000
0000FFFFFF0000
0000FFFFFF8000
0001FFFFFF8000
0001FFFFFF8000
0003FFFFFF8000
0003FFEFFFC000
0007FFEFFFC000
0007FFCFFFC000
0007FFCFFFC000
000FFFCFFFE000
000FFFCFFFE000
001FFF87FFE000
001FFF87FFE000
001FFF87FFF000
003FFF07FFF000
003FFF07FFF000
007FFF07FFF000
007FFF03FFF800
007FFE03FFF800
00FFFE03FFF800
00FFFE03FFF800
00FFFC03FFFC00
01FFFC03FFFC00
01FFFC01FFFC00
03FFFC01FFFC00
03FFF801FFFC00
03FFF801FFFE00
07FFFFFFFFFE00
07FFFFFFFFFE00
07FFFFFFFFFE00
0FFFFFFFFFFF00
0FFFFFFFFFFF00
0FFFFFFFFFFF00
1FFFFFFFFFFF00
1FFFFFFFFFFF80
1FFFFFFFFFFF80
3FFFFFFFFFFF80
3FFFFFFFFFFF80
3FFFFFFFFFFFC0
7FFFFFFFFFFFC0
7FFFC0007FFFC0
7FFF80007FFFC0
7FFF80007FFFE0
FFFF80003FFFE0
FFFF80003FFFE0
FFFF00003FFFE0
FFFF00003FFFE0
FFFF00003FFFF0
FFFF00001FFFF0
FFFE00001FFFF0
FFFE00000FFFF0
7FFE000007FFF0
3FFE000003FFF0
0FFC0000007FF0
ENDCHAR
STARTCHAR 0101
ENCODING 257
SWIDTH 562 0
DWIDTH 50 0
BBX 47 65 1 -1
BITMAP
0003FFFFFFC0
000FFFFFFFC0
001FFFFFFFC0
001FFFFFFFC0
001FFFFFFFC0
003FFFFFFFC0
003FFFFFFFC0
003FFFFFFF80
003FFFFFFF00
003FFFFFFE00
000000000000
000000000000
000000000000
000000000000
00001FFE0000
0001FFFFE000
000FFFFFF800
003FFFFFFC00
007FFFFFFF00
00FFFFFFFF00
01FFFFFFFF80
03FFFFFFFFC0
03FFFFFFFFC0
07FFFFFFFFE0
07FFFFFFFFE0
07FFFFFFFFE0
0FFFF03FFFE0
0FFFE01FFFE0
0FFFC00FFFF0
07FF800FFFF0
07FF800FFFF0
07FF8007FFF0
03FF0007FFE0
01FF0007FFE0
002E0007FFE0
0000000FFFE0
00000FFFFFE0
0001FFFFFFE0
001FFFFFFFE0
007FFFFFFFE0
01FFFFFFFFE0
03FFFFFFFFE0
07FFFFFFFFC0
0FFFFC0FFFC0
1FFFE01FFFC0
3FFF801FFFC0
7FFF001FFFC0
7FFF001FFFC0
7FFE003FFFC0
FFFE003FFFC0
FFFE007FFFE0
FFFF00FFFFF0
FFFF83FFFFFE
FFFFFFFFFFFE
FFFFFFFFFFFE
FFFFFFFFFFFE
FFFFFFFFFFFE
7FFFFFFFFFFE
7FFFFFEFFFFC
7FFFFFCFFFFC
3FFFFF8FFFF8
1FFFFF07FFF8
0FFFFC03FFF0
03FFF001FFE0
007F80007F00
ENDCHAR
STARTCHAR 0102
ENCODING 258
SWIDTH 618 0
DWIDTH 55 0
BBX 52 83 1 0
BITMAP
00003E0007E000
0000FF000FF000
0000FF801FF000
0001FF803FF000
0001FFC07FF000
0001FFE0FFF000
0001FFFFFFE000
0001FFFFFFE000
0000FFFFFFC000
00007FFFFF8000
00003FFFFF0000
00001FFFFC0000
000007FFF00000
000001FF800000
00000000000000
00000000000000
00000000000000
00000000000000
00000000000000
00000000000000
000007FFC00000
00000FFFF00000
00001FFFF80000
00001FFFFC0000
00003FFFFE0000
00003FFFFE0000
00007FFFFE0000
00007FFFFF0000
0000FFFFFF0000
0000FFFFFF0000
0000FFFFFF8000
0001FFFFFF8000
0001FFFFFF8000
0003FFFFFF8000
0003FFEFFFC000
0007FFEFFFC000
0007FFCFFFC000
0007FFCFFFC000
000FFFCFFFC000
000FFFCFFFE000
001FFF87FFE000
001FFF87FFE000
001FFF87FFE000
003FFF07FFF000
003FFF07FFF000
003FFF07FFF000
007FFF03FFF000
007FFE03FFF800
00FFFE03FFF800
00FFFE03FFF800
00FFFC03FFF800
01FFFC03FFFC00
01FFFC01FFFC00
03FFFC01FFFC00
03FFF801FFFC00
03FFF801FFFE00
07FFFFFFFFFE00
07FFFFFFFFFE00
07FFFFFFFFFE00
0FFFFFFFFFFF00
0FFFFFFFFFFF00
0FFFFFFFFFFF00
1FFFFFFFFFFF00
1FFFFFFFFFFF80
1FFFFFFFFFFF80
3FFFFFFFFFFF80
3FFFFFFFFFFF80
3FFFFFFFFFFFC0
7FFFFFFFFFFFC0
7FFFC0007FFFC0
7FFF80007FFFC0
7FFF80007FFFE0
FFFF80003FFFE0
FFFF80003FFFE0
FFFF00003FFFE0
FFFF00003FFFE0
FFFF00003FFFF0
FFFF00001FFFF0
FFFE00001FFFF0
FFFE00000FFFF0
7FFE000007FFF0
3FFE000003FFF0
0FFC0000007FF0
ENDCHAR
STARTCHAR 0103
ENCODING 259
SWIDTH 562 0
DWIDTH 50 0
BBX 47 68 1 -1
BITMAP
0001F8001F00
0003FC007F80
0007FC00FFC0
000FFE01FFC0
000FFF07FF80
000FFFFFFF80
0007FFFFFF00
0007FFFFFF00
0003FFFFFE00
0001FFFFF800
0000FFFFF000
00003FFFC000
000007FE0000
000000000000
000000000000
000000000000
000000000000
00001FFE0000
0001FFFFE000
000FFFFFF800
003FFFFFFC00
007FFFFFFF00
00FFFFFFFF00
01FFFFFFFF80
03FFFFFFFFC0
03FFFFFFFFC0
07FFFFFFFFE0
07FFFFFFFFE0
07FFFFFFFFE0
0FFFF03FFFE0
0FFFE01FFFE0
0FFFC00FFFF0
07FF800FFFF0
07FF800FFFF0
07FF8007FFF0
03FF0007FFE0
01FF0007FFE0
002E0007FFE0
0000000FFFE0
00000FFFFFE0
0001FFFFFFE0
001FFFFFFFE0
007FFFFFFFE0
01FFFFFFFFE0
03FFFFFFFFE0
07FFFFFFFFC0
0FFFFC0FFFC0
1FFFE01FFFC0
3FFF801FFFC0
7FFF001FFFC0
7FFF001FFFC0
7FFE003FFFC0
FFFE003FFFC0
FFFE007FFFE0
FFFF00FFFFF0
FFFF83FFFFFE
FFFFFFFFFFFE
FFFFFFFFFFFE
FFFFFFFFFFFE
FFFFFFFFFFFE
7FFFFFFFFFFE
7FFFFFEFFFFC
7FFFFFCFFFFC
3FFFFF8FFFF8
1FFFFF07FFF8
0FFFFC03FFF0
03FFF001FFE0
007F80007F00
ENDCHAR
STARTCHAR 0104
ENCODING 260
SWIDTH 618 0
DWIDTH 55 0
BBX 52 81 1 -17
BITMAP
000007FFE00000
00000FFFF00000
00001FFFF80000
00001FFFFC0000
00003FFFFE0000
00003FFFFE0000
00007FFFFE0000
00007FFFFF0000
0000FFFFFF0000
0000FFFFFF0000
0000FFFFFF0000
0001FFFFFF8000
0001FFFFFF8000
0003FFFFFF8000
0003FFEFFF8000
0003FFEFFFC000
0007FFEFFFC000
0007FFCFFFC000
000FFFCFFFC000
000FFFCFFFE000
000FFF87FFE000
001FFF87FFE000
001FFF87FFE000
003FFF87FFF000
003FFF07FFF000
003FFF07FFF000
007FFF07FFF000
007FFF03FFF800
00FFFE03FFF800
00FFFE03FFF800
00FFFE03FFF800
01FFFC03FFFC00
01FFFC03FFFC00
01FFFC01FFFC00
03FFFC01FFFC00
03FFF801FFFE00
03FFF801FFFE00
07FFFFFFFFFE00
07FFFFFFFFFE00
07FFFFFFFFFF00
0FFFFFFFFFFF00
0FFFFFFFFFFF00
0FFFFFFFFFFF00
1FFFFFFFFFFF80
1FFFFFFFFFFF80
1FFFFFFFFFFF80
3FFFFFFFFFFF80
3FFFFFFFFFFF80
3FFFFFFFFFFFC0
7FFFFFFFFFFFC0
7FFFC0007FFFC0
7FFF80007FFFC0
7FFF80007FFFE0
FFFF80003FFFE0
FFFF80003FFFE0
FFFF00003FFFE0
FFFF00003FFFE0
FFFF00003FFFF0
FFFF00001FFFF0
FFFE00001FFFF0
FFFE00000FFFF0
7FFE000007FFF0
3FFE000003FFF0
0FFC000000FFF0
0000000001FC00
0000000003F800
000000000FF800
000000001FF000
000000001FF000
000000003FE000
000000007FE000
000000007FE000
00000000FFF000
00000000FFF800
00000000FFFC00
00000000FFFE00
00000000FFFF00
000000007FFE00
000000007FFC00
000000003FF800
000000000FE000
ENDCHAR
STARTCHAR 0105
ENCODING 261
SWIDTH 562 0
DWIDTH 50 0
BBX 47 67 1 -17
BITMAP
00003FFE0000
0003FFFFE000
000FFFFFF800
003FFFFFFC00
007FFFFFFF00
00FFFFFFFF00
01FFFFFFFF80
03FFFFFFFFC0
07FFFFFFFFC0
07FFFFFFFFE0
07FFFFFFFFE0
07FFFFFFFFE0
0FFFF03FFFE0
0FFFC00FFFE0
07FFC00FFFF0
07FF800FFFF0
07FF8007FFF0
03FF8007FFE0
01FF0007FFE0
003F0007FFE0
0000000FFFE0
00000FFFFFE0
0001FFFFFFE0
000FFFFFFFE0
007FFFFFFFE0
00FFFFFFFFE0
03FFFFFFFFE0
07FFFFFFFFE0
0FFFFE0FFFC0
1FFFE01FFFC0
3FFFC01FFFC0
3FFF001FFFC0
7FFF001FFFC0
7FFE003FFFC0
FFFE003FFFC0
FFFE007FFFC0
FFFF00FFFFE0
FFFF01FFFFF0
FFFFEFFFFFFE
FFFFFFFFFFFE
FFFFFFFFFFFE
FFFFFFFFFFFE
FFFFFFFFFFFE
7FFFFFFFFFFE
7FFFFFCFFFFC
3FFFFF8FFFFC
3FFFFF0FFFF8
1FFFFE07FFF0
0FFFFC03FFE0
03FFF001FFE0
007F80007FC0
000000007F80
00000000FF00
00000001FF00
00000003FE00
00000003FE00
00000007FE00
0000000FFE00
0000000FFF00
0000000FFF00
0000000FFFC0
0000000FFFE0
0000000FFFF0
0000000FFFE0
00000007FFC0
00000003FF80
00000001FC00
ENDCHAR
STARTCHAR 0106
ENCODING 262
SWIDTH 618 0
DWIDTH 55 0
BBX 51 87 3 -1
BITMAP
00000000007000
0000000001F800
0000000007FE00
000000000FFF00
000000001FFF80
000000003FFFC0
00000000FFFFE0
00000001FFFFE0
00000003FFFFE0
00000007FFFFC0
00000007FFFF00
0000000FFFFC00
0000000FFFF000
00000007FFC000
00000007FF0000
00000003F80000
00000000800000
00000000000000
00000000000000
00000000000000
00000000000000
00000000000000
000000FFF80000
00000FFFFF0000
00003FFFFFE000
0000FFFFFFF000
0003FFFFFFFC00
0007FFFFFFFE00
000FFFFFFFFF00
003FFFFFFFFF80
003FFFFFFFFF80
007FFFFFFFFFC0
00FFFFFFFFFFC0
01FFFFFFFFFFC0
01FFFFFFFFFFE0
03FFFFFFFFFFE0
07FFFFC0FFFFE0
07FFFF003FFFE0
0FFFFE003FFFE0
0FFFFC001FFFE0
0FFFF8001FFFE0
1FFFF8001FFFE0
1FFFF0001FFFC0
1FFFF0001FFFC0
3FFFE0001FFF80
3FFFE0001FFF80
3FFFE0001FFE00
3FFFC0001FFC00
7FFFC0000FE000
7FFFC000000000
7FFFC000000000
7FFF8000000000
7FFF8000000000
7FFF8000000000
7FFF8000000000
7FFF8000000000
7FFF8000000000
FFFF8000000000
FFFF8000000000
FFFF8000000000
FFFF8000000000
7FFF8000000000
7FFF8000000000
7FFF8000000000
7FFFC000000000
7FFFC000000000
7FFFC000001C00
7FFFE000007C00
7FFFE00000FC00
3FFFF00001FC00
3FFFF80007FC00
3FFFFC001FFC00
1FFFFF007FFC00
1FFFFFFFFFFC00
0FFFFFFFFFFC00
0FFFFFFFFFF800
07FFFFFFFFF800
07FFFFFFFFF800
03FFFFFFFFF000
01FFFFFFFFF000
00FFFFFFFFE000
007FFFFFFFC000
003FFFFFFF8000
000FFFFFFE0000
0007FFFFFC0000
0000FFFFE00000
00000FFE000000
ENDCHAR
STARTCHAR 0107
ENCODING 263
SWIDTH 506 0
DWIDTH 45 0
BBX 42 75 3 -1
BITMAP
00000003C000
00000003F800
00000007FE00
0000000FFF00
0000001FFF80
0000001FFFC0
0000003FFF80
0000007FFF00
0000007FFF00
000000FFFE00
000001FFFC00
000001FFF000
000003FFE000
000007FFC000
000007FF8000
000007FE0000
000007FC0000
000003F80000
000001E00000
000000000000
000000000000
000000000000
000000000000
000000000000
00003FFC0000
0001FFFF8000
0007FFFFE000
001FFFFFF000
007FFFFFFC00
00FFFFFFFC00
01FFFFFFFE00
03FFFFFFFF00
07FFFFFFFF00
07FFFFFFFF00
0FFFFFFFFF80
1FFFFFFFFF80
1FFFF07FFF80
1FFFE03FFF80
3FFFC03FFF80
3FFF801FFF80
7FFF801FFF00
7FFF001FFF00
7FFF001FFE00
7FFF001FFC00
FFFE001FF800
FFFE001FC000
FFFE00000000
FFFE00000000
FFFE00000000
FFFE00000000
FFFE00000000
FFFE00000000
FFFE00000000
FFFE00000000
FFFE00000000
FFFE00000000
FFFE00000000
FFFE00000000
FFFF00001000
FFFF00007800
FFFF8001F800
7FFFC003F800
7FFFE01FF800
7FFFFFFFF800
3FFFFFFFF000
3FFFFFFFF000
1FFFFFFFF000
0FFFFFFFE000
0FFFFFFFE000
07FFFFFFC000
03FFFFFF8000
00FFFFFE0000
007FFFFC0000
001FFFE00000
0001FF800000
ENDCHAR
STARTCHAR 0108
ENCODING 264
SWIDTH 618 0
DWIDTH 55 0
BBX 51 87 3 -1
BITMAP
00000007FC0000
0000001FFE0000
0000003FFF0000
0000007FFF8000
000000FFFF8000
000001FFFFC000
000003FFFFE000
000007FFFFF000
00001FFFFFF800
00003FFF7FF800
00007FFE3FFC00
0000FFFC1FFE00
0000FFF00FFF00
0000FFC007FE00
00007F8001FC00
00003E0000F800
00001000002000
00000000000000
00000000000000
00000000000000
00000000000000
00000000000000
000000FFF00000
00000FFFFF0000
00003FFFFFE000
0000FFFFFFF000
0003FFFFFFFC00
0007FFFFFFFE00
000FFFFFFFFF00
003FFFFFFFFF00
003FFFFFFFFF80
007FFFFFFFFFC0
00FFFFFFFFFFC0
01FFFFFFFFFFC0
01FFFFFFFFFFE0
03FFFFFFFFFFE0
07FFFFC0FFFFE0
07FFFF003FFFE0
0FFFFE003FFFE0
0FFFFC001FFFE0
0FFFF8001FFFE0
1FFFF8001FFFE0
1FFFF0001FFFC0
1FFFF0001FFFC0
3FFFE0001FFF80
3FFFE0001FFF80
3FFFE0001FFF00
3FFFC0001FFC00
7FFFC0001FF000
7FFFC000000000
7FFFC000000000
7FFF8000000000
7FFF8000000000
7FFF8000000000
7FFF8000000000
7FFF8000000000
7FFF8000000000
FFFF8000000000
FFFF8000000000
FFFF8000000000
FFFF8000000000
7FFF8000000000
7FFF8000000000
7FFF8000000000
7FFFC000000000
7FFFC000000000
7FFFC000001C00
7FFFE000007C00
7FFFE00000FC00
3FFFF00001FC00
3FFFF80007FC00
3FFFFC001FFC00
1FFFFF007FFC00
1FFFFFFFFFFC00
0FFFFFFFFFFC00
0FFFFFFFFFF800
07FFFFFFFFF800
07FFFFFFFFF800
03FFFFFFFFF000
01FFFFFFFFF000
00FFFFFFFFE000
007FFFFFFFC000
003FFFFFFF8000
000FFFFFFE0000
0007FFFFFC0000
0000FFFFE00000
00000FFE000000
ENDCHAR
STARTCHAR 0109
ENCODING 265
SWIDTH 506 0
DWIDTH 45 0
BBX 41 75 3 -1
BITMAP
000000FE0000
000003FF8000
000007FF8000
00000FFFC000
00001FFFC000
00003FFFE000
00007FFFF000
0000FFFFF000
0001FFFFF800
0001FFFFF800
0003FFDFFC00
0007FF8FFE00
000FFF0FFE00
001FFE07FF00
001FFC03FF00
003FF801FF80
001FE000FF00
000FC0007E00
000700003800
000000000000
000000000000
000000000000
000000000000
000000000000
00003FFC0000
0001FFFF8000
0007FFFFE000
001FFFFFF000
007FFFFFFC00
00FFFFFFFC00
01FFFFFFFE00
03FFFFFFFF00
07FFFFFFFF00
07FFFFFFFF00
0FFFFFFFFF80
1FFFFFFFFF80
1FFFF07FFF80
1FFFE03FFF80
3FFFC03FFF80
3FFF801FFF80
7FFF801FFF00
7FFF001FFF00
7FFF001FFE00
7FFF001FFC00
FFFE001FF800
FFFE001FC000
FFFE00000000
FFFE00000000
FFFE00000000
FFFE00000000
FFFE00000000
FFFE00000000
FFFE00000000
FFFE00000000
FFFE00000000
FFFE00000000
FFFE00000000
FFFE00000000
FFFF00001000
FFFF00007800
FFFF8001F800
7FFFC003F800
7FFFE01FF800
7FFFFFFFF800
3FFFFFFFF000
3FFFFFFFF000
1FFFFFFFF000
0FFFFFFFE000
0FFFFFFFE000
07FFFFFFC000
03FFFFFF8000
00FFFFFE0000
007FFFFC0000
001FFFE00000
0001FF800000
ENDCHAR
STARTCHAR 010A
ENCODING 266
SWIDTH 618 0
DWIDTH 55 0
BBX 51 84 3 -1
BITMAP
00000003FC0000
0000000FFF0000
0000001FFF8000
0000003FFF8000
0000007FFF8000
0000007FFF8000
0000007FFF8000
0000007FFF8000
0000007FFF8000
0000007FFF0000
0000007FFE0000
0000003FFC0000
0000000FF00000
00000000000000
00000000000000
00000000000000
00000000000000
00000000000000
00000000000000
000000FFF00000
00000FFFFF0000
00003FFFFFE000
0000FFFFFFF000
0003FFFFFFFC00
0007FFFFFFFE00
000FFFFFFFFF00
003FFFFFFFFF00
003FFFFFFFFF80
007FFFFFFFFFC0
00FFFFFFFFFFC0
01FFFFFFFFFFC0
01FFFFFFFFFFE0
03FFFFFFFFFFE0
07FFFFC0FFFFE0
07FFFF003FFFE0
0FFFFE003FFFE0
0FFFFC001FFFE0
0FFFF8001FFFE0
1FFFF8001FFFE0
1FFFF0001FFFC0
1FFFF0001FFFC0
3FFFE0001FFF80
3FFFE0001FFF80
3FFFE0001FFF00
3FFFC0001FFC00
7FFFC0001FF000
7FFFC000000000
7FFFC000000000
7FFF8000000000
7FFF8000000000
7FFF8000000000
7FFF8000000000
7FFF8000000000
7FFF8000000000
FFFF8000000000
FFFF8000000000
FFFF8000000000
FFFF8000000000
7FFF8000000000
7FFF8000000000
7FFF8000000000
7FFFC000000000
7FFFC000000000
7FFFC000001C00
7FFFE000007C00
7FFFE00000FC00
3FFFF00001FC00
3FFFF80007FC00
3FFFFC001FFC00
1FFFFF007FFC00
1FFFFFFFFFFC00
0FFFFFFFFFFC00
0FFFFFFFFFF800
07FFFFFFFFF800
07FFFFFFFFF800
03FFFFFFFFF000
01FFFFFFFFF000
00FFFFFFFFE000
007FFFFFFFC000
003FFFFFFF8000
000FFFFFFE0000
0007FFFFFC0000
0000FFFFE00000
00000FFE000000
ENDCHAR
STARTCHAR 010B
ENCODING 267
SWIDTH 506 0
DWIDTH 45 0
BBX 41 68 3 -1
BITMAP
000001FE0000
000007FF8000
00000FFFC000
00001FFFC000
00003FFFC000
00003FFFC000
00003FFFC000
00003FFFC000
00003FFFC000
00003FFF8000
00003FFF0000
00001FFE0000
000007F80000
000000000000
000000000000
000000000000
000000000000
00003FF80000
0001FFFF8000
0007FFFFE000
001FFFFFF000
007FFFFFFC00
00FFFFFFFC00
01FFFFFFFE00
03FFFFFFFF00
07FFFFFFFF00
07FFFFFFFF00
0FFFFFFFFF80
1FFFFFFFFF80
1FFFF07FFF80
1FFFE03FFF80
3FFFC03FFF80
3FFF801FFF80
7FFF801FFF00
7FFF001FFF00
7FFF001FFE00
7FFF001FFC00
FFFE001FF800
FFFE001FE000
FFFE00000000
FFFE00000000
FFFE00000000
FFFE00000000
FFFE00000000
FFFE00000000
FFFE00000000
FFFE00000000
FFFE00000000
FFFE00000000
FFFE00000000
FFFE00000000
FFFF00001000
FFFF00007800
FFFF8001F800
7FFFC003F800
7FFFE01FF800
7FFFFFFFF800
3FFFFFFFF000
3FFFFFFFF000
1FFFFFFFF000
0FFFFFFFE000
0FFFFFFFE000
07FFFFFFC000
03FFFFFF8000
00FFFFFE0000
007FFFFC0000
001FFFF00000
0001FF800000
ENDCHAR
STARTCHAR 010C
ENCODING 268
SWIDTH 618 0
DWIDTH 55 0
BBX 51 87 3 -1
BITMAP
00000380000E00
00000FC0003F80
00001FF000FF80
00003FF801FFC0
00001FFC07FFC0
00001FFE0FFF80
00000FFF3FFF00
000007FFFFFE00
000003FFFFFC00
000003FFFFF800
000001FFFFF000
000000FFFFE000
0000007FFFC000
0000003FFF0000
0000001FFE0000
0000001FFC0000
00000001800000
00000000000000
00000000000000
00000000000000
00000000000000
00000000000000
000000FFF00000
00000FFFFF0000
00003FFFFFE000
0000FFFFFFF000
0003FFFFFFFC00
0007FFFFFFFE00
000FFFFFFFFF00
003FFFFFFFFF00
003FFFFFFFFF80
007FFFFFFFFFC0
00FFFFFFFFFFC0
01FFFFFFFFFFC0
01FFFFFFFFFFE0
03FFFFFFFFFFE0
07FFFFC0FFFFE0
07FFFF003FFFE0
0FFFFE003FFFE0
0FFFFC001FFFE0
0FFFF8001FFFE0
1FFFF8001FFFE0
1FFFF0001FFFC0
1FFFF0001FFFC0
3FFFE0001FFF80
3FFFE0001FFF80
3FFFE0001FFF00
3FFFC0001FFC00
7FFFC0001FF000
7FFFC000000000
7FFFC000000000
7FFF8000000000
7FFF8000000000
7FFF8000000000
7FFF8000000000
7FFF8000000000
7FFF8000000000
FFFF8000000000
FFFF8000000000
FFFF8000000000
FFFF8000000000
7FFF8000000000
7FFF8000000000
7FFF8000000000
7FFFC000000000
7FFFC000000000
7FFFC000001C00
7FFFE000007C00
7FFFE00000FC00
3FFFF00001FC00
3FFFF80007FC00
3FFFFC001FFC00
1FFFFF007FFC00
1FFFFFFFFFFC00
0FFFFFFFFFFC00
0FFFFFFFFFF800
07FFFFFFFFF800
07FFFFFFFFF800
03FFFFFFFFF000
01FFFFFFFFF000
00FFFFFFFFE000
007FFFFFFFC000
003FFFFFFF8000
000FFFFFFE0000
0007FFFFFC0000
0000FFFFE00000
00000FFE000000
ENDCHAR
STARTCHAR 010D
ENCODING 269
SWIDTH 506 0
DWIDTH 45 0
BBX 42 74 3 -1
BITMAP
0001C0000E00
0003E0003F00
0007F8007F80
000FFC01FFC0
000FFE03FFC0
000FFE07FF80
0007FF1FFF00
0003FFBFFE00
0003FFFFFC00
0001FFFFF800
0000FFFFF000
0000FFFFE000
00007FFFC000
00003FFF8000
00003FFF0000
00001FFE0000
00000FFC0000
000007F00000
000000000000
000000000000
000000000000
000000000000
000000000000
00003FF80000
0001FFFF8000
0007FFFFE000
001FFFFFF000
007FFFFFFC00
00FFFFFFFC00
01FFFFFFFE00
03FFFFFFFF00
07FFFFFFFF00
07FFFFFFFF00
0FFFFFFFFF80
1FFFFFFFFF80
1FFFF07FFF80
1FFFE03FFF80
3FFFC03FFF80
3FFF801FFF80
7FFF801FFF00
7FFF001FFF00
7FFF001FFE00
7FFF001FFC00
FFFE001FF800
FFFE001FE000
FFFE00000000
FFFE00000000
FFFE00000000
FFFE00000000
FFFE00000000
FFFE00000000
FFFE00000000
FFFE00000000
FFFE00000000
FFFE00000000
FFFE00000000
FFFE00000000
FFFF00001000
FFFF00007800
FFFF8001F800
7FFFC003F800
7FFFE01FF800
7FFFFFFFF800
3FFFFFFFF000
3FFFFFFFF000
1FFFFFFFF000
0FFFFFFFE000
0FFFFFFFE000
07FFFFFFC000
03FFFFFF8000
00FFFFFE0000
007FFFFC0000
001FFFF00000
0001FF800000
ENDCHAR
STARTCHAR 010E
ENCODING 270
SWIDTH 663 0
DWIDTH 59 0
BBX 51 87 5 -1
BITMAP
0001C000038000
0003F0000FC000
0007F8003FE000
000FFC00FFF000
000FFF01FFE000
0007FF87FFC000
0003FFCFFF8000
0003FFFFFF0000
0001FFFFFE0000
0000FFFFFC0000
00007FFFF80000
00003FFFF00000
00003FFFE00000
00001FFFC00000
00000FFF800000
000007FF000000
00000040000000
00000000000000
00000000000000
00000000000000
00000000000000
00000000000000
0003FFFF000000
1FFFFFFFF80000
1FFFFFFFFF0000
1FFFFFFFFFC000
1FFFFFFFFFE000
1FFFFFFFFFF800
1FFFFFFFFFFC00
1FFFFFFFFFFC00
1FFFFFFFFFFE00
1FFFFFFFFFFF00
1FFFFFFFFFFF00
1FFFFFFFFFFF80
1FFFFFFFFFFF80
1FFFFFFFFFFFC0
1FFFE00FFFFFC0
1FFFC003FFFFC0
3FFFC000FFFFC0
3FFFC0007FFFC0
3FFFC0007FFFE0
3FFFC0003FFFE0
3FFFC0003FFFE0
3FFFC0003FFFE0
3FFFC0003FFFE0
3FFF80001FFFE0
3FFF80001FFFE0
3FFF80001FFFE0
3FFF80001FFFE0
3FFF80001FFFE0
3FFF80001FFFE0
7FFF80001FFFE0
7FFF80001FFFE0
7FFF80001FFFE0
7FFF80001FFFE0
7FFF80001FFFE0
7FFF80001FFFE0
7FFF80003FFFE0
7FFF80003FFFC0
7FFF80003FFFC0
7FFF00003FFFC0
7FFF00003FFFC0
7FFF00007FFFC0
FFFF00007FFFC0
FFFF00007FFF80
FFFF0000FFFF80
FFFF0000FFFF80
FFFF0001FFFF00
FFFF0003FFFF00
FFFF0007FFFF00
FFFF000FFFFE00
FFFF001FFFFE00
FFFF00FFFFFC00
FFFFFFFFFFFC00
FFFFFFFFFFF800
FFFFFFFFFFF000
FFFFFFFFFFF000
FFFFFFFFFFE000
FFFFFFFFFFC000
FFFFFFFFFF8000
FFFFFFFFFF0000
FFFFFFFFFC0000
FFFFFFFFF80000
7FFFFFFFE00000
3FFFFFFF800000
0FFFFFFC000000
03FFFFC0000000
ENDCHAR
STARTCHAR 010F
ENCODING 271
SWIDTH 686 0
DWIDTH 61 0
BBX 65 68 3 -1
BITMAP
00000000000000FC00
000000003FE003FE00
000000003FF807FF00
000000003FFC0FFF00
000000003FFE0FFF00
000000003FFF1FFF00
000000007FFF1FFF80
000000007FFF1FFF80
000000007FFF1FFF00
000000007FFF0FFF00
000000007FFF0FFF00
000000007FFF01FF00
000000007FFF00FF00
000000007FFF01FE00
000000007FFF03FE00
000000007FFF07FC00
000000007FFF1FFC00
00007FC07FFF0FF800
0003FFF87FFF0FF000
000FFFFC7FFE0FC000
003FFFFEFFFE000000
007FFFFFFFFE000000
00FFFFFFFFFE000000
01FFFFFFFFFE000000
03FFFFFFFFFE000000
07FFFFFFFFFE000000
0FFFFFFFFFFE000000
0FFFFFFFFFFE000000
1FFFFFFFFFFE000000
1FFFF80FFFFE000000
3FFFF007FFFE000000
3FFFE003FFFE000000
3FFFC001FFFC000000
7FFFC001FFFC000000
7FFF8001FFFC000000
7FFF8001FFFC000000
7FFF8000FFFC000000
FFFF0000FFFC000000
FFFF0000FFFC000000
FFFF0000FFFC000000
FFFF0000FFFC000000
FFFF0000FFFC000000
FFFF0000FFFC000000
FFFF0000FFFC000000
FFFF0000FFFC000000
FFFF0000FFFC000000
FFFF0001FFF8000000
FFFF0001FFF8000000
FFFF0001FFF8000000
FFFF0001FFF8000000
FFFF8003FFF8000000
FFFF8003FFF8000000
FFFF8007FFF8000000
FFFFC00FFFF8000000
7FFFE01FFFF8000000
7FFFF03FFFF8000000
7FFFFFFFFFF8000000
3FFFFFFFFFF8000000
3FFFFFFFFFF8000000
3FFFFFFFFFF0000000
1FFFFFFFFFF0000000
0FFFFFFBFFF0000000
0FFFFFFBFFF0000000
07FFFFF1FFF0000000
03FFFFE1FFF0000000
00FFFFC0FFF0000000
003FFF001FF0000000
0007F8000000000000
ENDCHAR
STARTCHAR 0110
ENCODING 272
SWIDTH 675 0
DWIDTH 60 0
BBX 57 65 0 -1
BITMAP
00001FFFFC000000
007FFFFFFFC00000
007FFFFFFFF80000
007FFFFFFFFE0000
00FFFFFFFFFF8000
00FFFFFFFFFFC000
00FFFFFFFFFFE000
00FFFFFFFFFFF000
00FFFFFFFFFFF800
00FFFFFFFFFFF800
00FFFFFFFFFFFC00
00FFFFFFFFFFFC00
00FFFFFFFFFFFE00
00FFFFFFFFFFFE00
00FFFE003FFFFE00
00FFFE000FFFFE00
00FFFE0007FFFF00
00FFFE0003FFFF00
00FFFE0001FFFF00
00FFFE0001FFFF00
01FFFE0001FFFF00
01FFFE0000FFFF00
01FFFE0000FFFF00
01FFFE0000FFFF80
01FFFE0000FFFF80
01FFFE0000FFFF80
01FFFE0000FFFF80
0FFFFFFF00FFFF80
3FFFFFFF00FFFF80
7FFFFFFF00FFFF80
FFFFFFFF00FFFF80
FFFFFFFF00FFFF00
FFFFFFFF00FFFF00
FFFFFFFE00FFFF00
FFFFFFFE00FFFF00
FFFFFFFC00FFFF00
FFFFFFF000FFFF00
03FFFC0000FFFF00
03FFFC0001FFFF00
03FFFC0001FFFE00
03FFFC0001FFFE00
03FFFC0001FFFE00
03FFFC0003FFFE00
03FFFC0003FFFC00
03FFF80007FFFC00
03FFF8000FFFFC00
03FFF8000FFFFC00
07FFF8001FFFF800
07FFF8003FFFF800
07FFF800FFFFF000
07FFF807FFFFF000
07FFFFFFFFFFE000
07FFFFFFFFFFC000
07FFFFFFFFFFC000
07FFFFFFFFFF8000
07FFFFFFFFFF0000
07FFFFFFFFFE0000
07FFFFFFFFFC0000
07FFFFFFFFF80000
07FFFFFFFFF00000
03FFFFFFFFC00000
03FFFFFFFF800000
01FFFFFFFE000000
007FFFFFF0000000
000FFFFF00000000
ENDCHAR
STARTCHAR 0111
ENCODING 273
SWIDTH 607 0
DWIDTH 54 0
BBX 55 67 3 -1
BITMAP
000000003FE000
000000003FF800
000000003FFC00
000000003FFE00
000000007FFF00
000000007FFF00
00000003FFFFFC
00000007FFFFFE
0000000FFFFFFE
0000001FFFFFFE
0000001FFFFFFC
0000001FFFFFFC
0000001FFFFFFC
0000001FFFFFF8
0000001FFFFFF8
0000001FFFFFE0
00007FC07FFF00
0003FFF87FFF00
000FFFFC7FFE00
003FFFFEFFFE00
007FFFFFFFFE00
00FFFFFFFFFE00
01FFFFFFFFFE00
03FFFFFFFFFE00
07FFFFFFFFFE00
0FFFFFFFFFFE00
0FFFFFFFFFFE00
1FFFFFFFFFFE00
1FFFF80FFFFE00
3FFFF007FFFE00
3FFFE003FFFE00
3FFFC001FFFC00
7FFFC001FFFC00
7FFF8001FFFC00
7FFF8001FFFC00
7FFF8000FFFC00
FFFF0000FFFC00
FFFF0000FFFC00
FFFF0000FFFC00
FFFF0000FFFC00
FFFF0000FFFC00
FFFF0000FFFC00
FFFF0000FFFC00
FFFF0000FFFC00
FFFF0000FFFC00
FFFF0001FFF800
FFFF0001FFF800
FFFF0001FFF800
FFFF0001FFF800
FFFF8003FFF800
FFFF8003FFF800
FFFF8007FFF800
FFFFC00FFFF800
7FFFE01FFFF800
7FFFF03FFFF800
7FFFFFFFFFF800
3FFFFFFFFFF800
3FFFFFFFFFF800
3FFFFFFFFFF000
1FFFFFFFFFF000
0FFFFFFBFFF000
0FFFFFFBFFF000
07FFFFF1FFF000
03FFFFE1FFF000
00FFFFC0FFF000
003FFF001FF000
0007F800000000
ENDCHAR
STARTCHAR 0112
ENCODING 274
SWIDTH 506 0
DWIDTH 45 0
BBX 38 81 5 0
BITMAP
003FFFFFFC
00FFFFFFFC
01FFFFFFFC
01FFFFFFFC
01FFFFFFFC
03FFFFFFFC
03FFFFFFFC
03FFFFFFF8
03FFFFFFF0
03FFFFFFE0
0000000000
0000000000
0000000000
0000000000
0000000000
0000000000
0000000000
0000000000
0FFFFFFFF8
1FFFFFFFF8
1FFFFFFFF8
1FFFFFFFF8
1FFFFFFFF8
1FFFFFFFF8
1FFFFFFFF8
1FFFFFFFF8
1FFFFFFFF8
1FFFFFFFF0
1FFFFFFFF0
1FFFFFFFC0
1FFFC00000
1FFFC00000
3FFFC00000
3FFFC00000
3FFFC00000
3FFFC00000
3FFFC00000
3FFFC00000
3FFF800000
3FFF800000
3FFF800000
3FFF800000
3FFFFFFE00
3FFFFFFE00
7FFFFFFE00
7FFFFFFE00
7FFFFFFE00
7FFFFFFE00
7FFFFFFE00
7FFFFFFE00
7FFFFFFE00
7FFFFFFC00
7FFFFFFC00
7FFFFFF800
7FFFFFF000
7FFF000000
7FFF000000
7FFF000000
FFFF000000
FFFF000000
FFFF000000
FFFF000000
FFFF000000
FFFF000000
FFFF000000
FFFF000000
FFFF000000
FFFE000000
FFFE000000
FFFFFFFFF0
FFFFFFFFF0
FFFFFFFFF0
FFFFFFFFF0
FFFFFFFFF0
FFFFFFFFF0
FFFFFFFFF0
FFFFFFFFF0
FFFFFFFFF0
7FFFFFFFE0
3FFFFFFFC0
0FFFFFFF80
ENDCHAR
STARTCHAR 0113
ENCODING 275
SWIDTH 528 0
DWIDTH 47 0
BBX 44 65 2 -1
BITMAP
0003FFFFFFE0
0007FFFFFFE0
000FFFFFFFE0
001FFFFFFFE0
001FFFFFFFE0
001FFFFFFFE0
001FFFFFFFC0
001FFFFFFFC0
001FFFFFFF80
001FFFFFFE00
000000000000
000000000000
000000000000
000000000000
000007FF8000
00007FFFF000
0001FFFFFC00
0007FFFFFE00
001FFFFFFF00
003FFFFFFF80
007FFFFFFFC0
00FFFFFFFFC0
01FFFFFFFFE0
03FFFFFFFFE0
03FFFFFFFFE0
07FFFFFFFFF0
07FFF83FFFF0
0FFFF01FFFF0
0FFFE00FFFF0
1FFFE00FFFF0
1FFFC00FFFE0
3FFFC00FFFE0
3FFF800FFFE0
3FFF800FFFE0
3FFF801FFFC0
7FFF003FFFC0
7FFF00FFFF80
7FFF07FFFF00
7FFFFFFFFE00
7FFFFFFFFC00
7FFFFFFFF800
7FFFFFFFE000
FFFFFFFF0000
FFFFFFF80000
FFFFFF800000
FFFF00000000
7FFF00000000
7FFF00000000
7FFF00000000
7FFF8000E000
7FFF8001F800
7FFFC003FC00
3FFFE007FE00
3FFFF81FFE00
1FFFFFFFFF00
1FFFFFFFFF00
0FFFFFFFFF00
0FFFFFFFFE00
07FFFFFFFE00
03FFFFFFFC00
01FFFFFFF800
007FFFFFF000
003FFFFFE000
0007FFFF0000
00007FF00000
ENDCHAR
STARTCHAR 0114
ENCODING 276
SWIDTH 506 0
DWIDTH 45 0
BBX 37 83 5 0
BITMAP
0004000040
003F8007F8
007F800FF8
00FFC01FF8
00FFE03FF8
00FFF07FF8
00FFFFFFF0
00FFFFFFF0
007FFFFFE0
007FFFFFC0
003FFFFF80
000FFFFE00
0007FFF800
0000FFC000
0000000000
0000000000
0000000000
0000000000
0000000000
0000000000
0FFFFFFFF8
1FFFFFFFF8
1FFFFFFFF8
1FFFFFFFF8
1FFFFFFFF8
1FFFFFFFF8
1FFFFFFFF8
1FFFFFFFF8
1FFFFFFFF8
1FFFFFFFF0
1FFFFFFFF0
1FFFFFFFC0
1FFFC00000
1FFFC00000
3FFFC00000
3FFFC00000
3FFFC00000
3FFFC00000
3FFFC00000
3FFFC00000
3FFF800000
3FFF800000
3FFF800000
3FFF800000
3FFFFFFE00
3FFFFFFE00
7FFFFFFE00
7FFFFFFE00
7FFFFFFE00
7FFFFFFE00
7FFFFFFE00
7FFFFFFE00
7FFFFFFE00
7FFFFFFC00
7FFFFFFC00
7FFFFFF800
7FFFFFF000
7FFF000000
7FFF000000
7FFF000000
FFFF000000
FFFF000000
FFFF000000
FFFF000000
FFFF000000
FFFF000000
FFFF000000
FFFF000000
FFFF000000
FFFE000000
FFFE000000
FFFFFFFFF0
FFFFFFFFF0
FFFFFFFFF0
FFFFFFFFF0
FFFFFFFFF0
FFFFFFFFF0
FFFFFFFFF0
FFFFFFFFF0
FFFFFFFFF0
7FFFFFFFE0
3FFFFFFFC0
0FFFFFFF80
ENDCHAR
STARTCHAR 0115
ENCODING 277
SWIDTH 528 0
DWIDTH 47 0
BBX 44 68 2 -1
BITMAP
00003E0007E0
0000FF001FF0
0001FF803FF0
0001FF807FF0
0001FFC1FFF0
0001FFFFFFE0
0001FFFFFFE0
0001FFFFFFC0
0000FFFFFF80
00007FFFFF00
00003FFFFC00
00000FFFF000
000001FF8000
000000000000
000000000000
000000000000
000000000000
000007FF8000
00007FFFF000
0001FFFFFC00
0007FFFFFE00
001FFFFFFF00
003FFFFFFF80
007FFFFFFFC0
00FFFFFFFFC0
01FFFFFFFFE0
03FFFFFFFFE0
03FFFFFFFFE0
07FFFFFFFFF0
07FFF83FFFF0
0FFFF01FFFF0
0FFFE00FFFF0
1FFFE00FFFF0
1FFFC00FFFE0
3FFFC00FFFE0
3FFF800FFFE0
3FFF800FFFE0
3FFF801FFFC0
7FFF003FFFC0
7FFF00FFFF80
7FFF07FFFF00
7FFFFFFFFE00
7FFFFFFFFC00
7FFFFFFFF800
7FFFFFFFE000
FFFFFFFF0000
FFFFFFF80000
FFFFFF800000
FFFF00000000
7FFF00000000
7FFF00000000
7FFF00000000
7FFF8000E000
7FFF8001F800
7FFFC003FC00
3FFFE007FE00
3FFFF81FFE00
1FFFFFFFFF00
1FFFFFFFFF00
0FFFFFFFFF00
0FFFFFFFFE00
07FFFFFFFE00
03FFFFFFFC00
01FFFFFFF800
007FFFFFF000
003FFFFFE000
0007FFFF0000
00007FF00000
ENDCHAR
STARTCHAR 0116
ENCODING 278
SWIDTH 506 0
DWIDTH 45 0
BBX 37 83 5 0
BITMAP
00000FE000
00007FF800
0000FFFC00
0001FFFC00
0001FFFE00
0003FFFE00
0003FFFE00
0003FFFE00
0003FFFC00
0003FFFC00
0001FFF800
0000FFF000
00003F8000
0000000000
0000000000
0000000000
0000000000
0000000000
0000000000
0000000000
0FFFFFFFF8
1FFFFFFFF8
1FFFFFFFF8
1FFFFFFFF8
1FFFFFFFF8
1FFFFFFFF8
1FFFFFFFF8
1FFFFFFFF8
1FFFFFFFF8
1FFFFFFFF0
1FFFFFFFF0
1FFFFFFFC0
1FFFC00000
1FFFC00000
3FFFC00000
3FFFC00000
3FFFC00000
3FFFC00000
3FFFC00000
3FFFC00000
3FFF800000
3FFF800000
3FFF800000
3FFF800000
3FFFFFFE00
3FFFFFFE00
7FFFFFFE00
7FFFFFFE00
7FFFFFFE00
7FFFFFFE00
7FFFFFFE00
7FFFFFFE00
7FFFFFFE00
7FFFFFFC00
7FFFFFFC00
7FFFFFF800
7FFFFFF000
7FFF000000
7FFF000000
7FFF000000
FFFF000000
FFFF000000
FFFF000000
FFFF000000
FFFF000000
FFFF000000
FFFF000000
FFFF000000
FFFF000000
FFFE000000
FFFE000000
FFFFFFFFF0
FFFFFFFFF0
FFFFFFFFF0
FFFFFFFFF0
FFFFFFFFF0
FFFFFFFFF0
FFFFFFFFF0
FFFFFFFFF0
FFFFFFFFF0
7FFFFFFFE0
3FFFFFFFC0
0FFFFFFF80
ENDCHAR
STARTCHAR 0117
ENCODING 279
SWIDTH 528 0
DWIDTH 47 0
BBX 44 68 2 -1
BITMAP
0000003FC000
000000FFF000
000003FFF000
000003FFF800
000007FFF800
000007FFF800
00000FFFF800
00000FFFF800
00000FFFF800
000007FFF000
000007FFE000
000003FFC000
000000FF0000
000000000000
000000000000
000000000000
000000000000
000007FF8000
00007FFFF000
0001FFFFFC00
0007FFFFFE00
001FFFFFFF00
003FFFFFFF80
007FFFFFFFC0
00FFFFFFFFC0
01FFFFFFFFE0
03FFFFFFFFE0
03FFFFFFFFE0
07FFFFFFFFF0
07FFF83FFFF0
0FFFF01FFFF0
0FFFE00FFFF0
1FFFE00FFFF0
1FFFC00FFFE0
3FFFC00FFFE0
3FFF800FFFE0
3FFF800FFFE0
3FFF801FFFC0
7FFF003FFFC0
7FFF00FFFF80
7FFF07FFFF00
7FFFFFFFFE00
7FFFFFFFFC00
7FFFFFFFF800
7FFFFFFFE000
FFFFFFFF0000
FFFFFFF80000
FFFFFF800000
FFFF00000000
7FFF00000000
7FFF00000000
7FFF00000000
7FFF8000E000
7FFF8001F800
7FFFC003FC00
3FFFE007FE00
3FFFF81FFE00
1FFFFFFFFF00
1FFFFFFFFF00
0FFFFFFFFF00
0FFFFFFFFE00
07FFFFFFFE00
03FFFFFFFC00
01FFFFFFF800
007FFFFFF000
003FFFFFE000
0007FFFF0000
00007FF00000
ENDCHAR
STARTCHAR 0118
ENCODING 280
SWIDTH 506 0
DWIDTH 45 0
BBX 37 81 5 -17
BITMAP
0FFFFFFFF8
1FFFFFFFF8
1FFFFFFFF8
1FFFFFFFF8
1FFFFFFFF8
1FFFFFFFF8
1FFFFFFFF8
1FFFFFFFF8
1FFFFFFFF8
1FFFFFFFF0
1FFFFFFFF0
1FFFFFFFC0
1FFFC00000
1FFFC00000
3FFFC00000
3FFFC00000
3FFFC00000
3FFFC00000
3FFFC00000
3FFFC00000
3FFF800000
3FFF800000
3FFF800000
3FFF800000
3FFF800000
3FFFFFFE00
3FFFFFFE00
7FFFFFFE00
7FFFFFFE00
7FFFFFFE00
7FFFFFFE00
7FFFFFFE00
7FFFFFFE00
7FFFFFFE00
7FFFFFFC00
7FFFFFFC00
7FFFFFF800
7FFFFFF000
7FFF000000
7FFF000000
FFFF000000
FFFF000000
FFFF000000
FFFF000000
FFFF000000
FFFF000000
FFFF000000
FFFF000000
FFFF000000
FFFF000000
FFFE000000
FFFE000000
FFFFFFFFF0
FFFFFFFFF0
FFFFFFFFF0
FFFFFFFFF0
FFFFFFFFF0
FFFFFFFFF0
FFFFFFFFF0
FFFFFFFFF0
FFFFFFFFF0
7FFFFFFFE0
3FFFFFFFC0
0FFFFFFF80
0007F00000
000FF00000
001FE00000
003FC00000
007FC00000
00FFC00000
00FFC00000
01FFC00000
01FFC00000
01FFE00000
03FFF00000
03FFF80000
01FFFC0000
01FFFC0000
01FFF80000
00FFE00000
003F800000
ENDCHAR
STARTCHAR 0119
ENCODING 281
SWIDTH 528 0
DWIDTH 47 0
BBX 44 67 2 -17
BITMAP
000007FF8000
00007FFFF000
0001FFFFFC00
0007FFFFFE00
001FFFFFFF80
003FFFFFFF80
007FFFFFFFC0
00FFFFFFFFE0
01FFFFFFFFE0
03FFFFFFFFE0
03FFFFFFFFE0
07FFFFFFFFF0
07FFF83FFFF0
0FFFF00FFFF0
0FFFE00FFFF0
1FFFC00FFFF0
1FFFC00FFFE0
3FFF800FFFE0
3FFF800FFFE0
3FFF801FFFC0
3FFF803FFFC0
7FFF007FFF80
7FFF07FFFF00
7FFFFFFFFE00
7FFFFFFFFC00
7FFFFFFFF800
7FFFFFFFE000
7FFFFFFF8000
FFFFFFFC0000
FFFFFF800000
FFFF00000000
7FFF00000000
7FFF00000000
7FFF00000000
7FFF8000C000
7FFF8001F800
7FFFC003FC00
3FFFE007FE00
3FFFF00FFE00
3FFFFFFFFF00
1FFFFFFFFF00
1FFFFFFFFF00
0FFFFFFFFE00
07FFFFFFFE00
03FFFFFFFE00
01FFFFFFFC00
00FFFFFFF800
007FFFFFE000
001FFFFF8000
0003FFFC0000
00007F800000
0000FF000000
0001FE000000
0003FE000000
0007FE000000
0007FC000000
000FFC000000
000FFC000000
001FFE000000
001FFF000000
001FFF800000
001FFFC00000
001FFFE00000
000FFFC00000
000FFF800000
0007FF000000
0001FC000000
ENDCHAR
STARTCHAR 011A
ENCODING 282
SWIDTH 506 0
DWIDTH 45 0
BBX 40 86 5 0
BITMAP
001C000078
003F0001FC
007F8003FE
00FFC00FFF
00FFE03FFE
007FF07FFC
007FF9FFF8
003FFFFFF0
001FFFFFE0
000FFFFFC0
0007FFFF80
0007FFFF00
0003FFFE00
0001FFFC00
0000FFF800
00007FE000
0000040000
0000000000
0000000000
0000000000
0000000000
0000000000
0000000000
0FFFFFFFF8
1FFFFFFFF8
1FFFFFFFF8
1FFFFFFFF8
1FFFFFFFF8
1FFFFFFFF8
1FFFFFFFF8
1FFFFFFFF8
1FFFFFFFF8
1FFFFFFFF0
1FFFFFFFF0
1FFFFFFFC0
1FFFC00000
1FFFC00000
3FFFC00000
3FFFC00000
3FFFC00000
3FFFC00000
3FFFC00000
3FFFC00000
3FFF800000
3FFF800000
3FFF800000
3FFF800000
3FFFFFFE00
3FFFFFFE00
7FFFFFFE00
7FFFFFFE00
7FFFFFFE00
7FFFFFFE00
7FFFFFFE00
7FFFFFFE00
7FFFFFFE00
7FFFFFFC00
7FFFFFFC00
7FFFFFF800
7FFFFFF000
7FFF000000
7FFF000000
7FFF000000
FFFF000000
FFFF000000
FFFF000000
FFFF000000
FFFF000000
FFFF000000
FFFF000000
FFFF000000
FFFF000000
FFFE000000
FFFE000000
FFFFFFFFF0
FFFFFFFFF0
FFFFFFFFF0
FFFFFFFFF0
FFFFFFFFF0
FFFFFFFFF0
FFFFFFFFF0
FFFFFFFFF0
FFFFFFFFF0
7FFFFFFFE0
3FFFFFFFC0
0FFFFFFF80
ENDCHAR
ENDFONT
